<?xml version="1.0" encoding="UTF-8"?> <svg xmlns="http://www.w3.org/2000/svg" xmlns:xlink="http://www.w3.org/1999/xlink" xml:space="preserve" id="Layer_1" x="0" y="0" style="enable-background:new 0 0 3183.5 1038.3" version="1.1" viewBox="0 0 3183.5 1038.3"><style>.st0{fill:#7143e0}.st2{opacity:.45;fill:#295073;enable-background:new}.st4{fill:#ee594d}.st10{enable-background:new}.st11{fill:#fff}.st13{fill:#2b124c}.st14{fill:#f4bd27}.st17{fill:#fcf9f5}.st25{fill:#fcfbf8}</style><switch><g><g id="Group_32590" transform="translate(1408.704 -726.798)"><path id="Path_29903" d="m1774.8 1764.1-768.2-298.4-245.7-233.4-138.7-356.2-199.4-143.4-264.8 50-141 3.7-89.4 239-285.4 273-307.9 282.9-84.5 51.7 5.4 131 2519.6.1z" class="st0"></path><path id="Path_29904" d="m623.3 867.1-69.1 314.3-138-208.3-145-76.8-69.1 116.8h-86.3L1.9 1197.9h-127.7l-165.7 118.8 113.1-206.2 104.5-97.3 89.8-233.7 169.5-8.8 237.9-43.8 200 140.2z" style="fill:#adacf5"></path><path id="Path_29905" d="m-744 1630.7-664.7-167.7v302.1H-744v-134.4z" class="st0"></path><path id="Path_29906" d="M1770.5 1764.1c-136.4-61-763.9-298.4-763.9-298.4l-245.7-233.4-6.5 65.3 56.9 181.4 82.1 90.8c-42.3 31.3-84.7 62.6-127 93.9l-386.7 100.5h1383.7l7.1-.1z" class="st2"></path><path id="Path_29907" d="m-392.8 1645.8 114.8-51.9 74.8-182-199.6 84.5-37.4-29.9-212.1 179.3-756.4-182.8v302.1h667.3v-1h538.3l-189.7-118.3z" class="st2"></path><path id="Path_29908" d="m304 968.2 92.2 29.1 50 148.9-33.6 149.7-63 13.3L291 1073l13-104.8z" class="st2"></path></g><g id="Group_35167" transform="translate(-1682.564 -11702.87)"><g id="Group_35750" transform="translate(2068.803 11776.1)"><defs><path id="SVGID_1_" d="M1510.2 172.8h54.9v97.5h-54.9z"></path></defs><clipPath id="SVGID_00000016768505165084482650000003312805864558227643_"><use xlink:href="#SVGID_1_" style="overflow:visible"></use></clipPath><g id="Group_35749" style="clip-path:url(#SVGID_00000016768505165084482650000003312805864558227643_)"><path id="Path_39052" d="M1554.6 174c6.5 17.5 11.1 37.2.9 54.4-4.4 7.4-10.7 13.4-17.2 19-7.4 6.4-15.1 12.5-22.6 18.7-1.3 1-.5 3.2.9 3.6 5.2 1.3 10.7.8 15.5-1.4 1.9-.8 1-4.3-1.1-4-4.4.6-8.7 1.2-13.1 1.7-1 .1-2.1.5-2.8-.6-.5-.7-.3-2.8-.4-3.6-.2-2.3-.3-4.7-.3-7-.1-2.7-4.3-2.7-4.2 0 0 3.4.3 6.8.7 10.2.3 2 .8 4 2.8 5 2.2 1 5.1.2 7.4-.1l10-1.2c-.4-1.3-.7-2.7-1.1-4-3.9 1.7-8.1 2-12.2 1l.9 3.6c8.1-6.7 16.3-13.2 24.1-20.2 6.7-6 13.2-12.7 17.3-20.8 8.9-17.3 4.8-38.2-3.9-54.8-.4-1.1-2-.5-1.6.5" class="st4"></path></g></g><g id="Group_35751" transform="translate(1856.695 11830.1)"><defs><path id="SVGID_00000060006029803353505620000009470858819818774688_" d="M1510.2 172.8h51v90.6h-51z"></path></defs><clipPath id="SVGID_00000158022102424299317420000011606798897455119520_"><use xlink:href="#SVGID_00000060006029803353505620000009470858819818774688_" style="overflow:visible"></use></clipPath><g id="Group_35749-2" style="clip-path:url(#SVGID_00000158022102424299317420000011606798897455119520_)"><path id="Path_39052-2" d="M1520 173.9c-6 16.3-10.4 34.6-.8 50.5 4.1 6.9 10 12.5 16 17.7 6.9 5.9 14 11.6 21 17.3.8.8.8 2.1 0 2.8-.2.2-.5.4-.9.5-4.8 1.2-9.9.7-14.4-1.3-1.8-.8-.9-4 1-3.7 4.1.5 8.1 1.1 12.2 1.6.9.1 1.9.4 2.6-.6.5-.7.3-2.6.4-3.3.2-2.2.3-4.3.3-6.5 0-2.5 4-2.5 3.9 0 0 3.2-.2 6.3-.6 9.4-.2 1.9-.7 3.7-2.6 4.6-2.1 1-4.7.2-6.9-.1l-9.3-1.1c.3-1.2.7-2.5 1-3.7 3.6 1.5 7.6 1.8 11.4.9l-.9 3.3c-7.5-6.2-15.1-12.3-22.4-18.8-6.3-5.6-12.2-11.8-16.1-19.3-8.3-16.1-4.4-35.5 3.6-50.9.4-.8 1.8-.2 1.5.7" class="st4"></path></g></g><g id="Group_35752" transform="rotate(-25 27952.749 1978.658)"><defs><path id="SVGID_00000013910577582171346570000007739277116013618087_" d="M1295.7 794.9h46.3v82.2h-46.3z" transform="rotate(-25.001 1318.841 836.03)"></path></defs><clipPath id="SVGID_00000129894869023822963430000011968030779485932702_"><use xlink:href="#SVGID_00000013910577582171346570000007739277116013618087_" style="overflow:visible"></use></clipPath><g id="Group_35749-3" style="clip-path:url(#SVGID_00000129894869023822963430000011968030779485932702_)"><path id="Path_39052-3" d="M1304.5 795.9c-5.5 14.8-9.4 31.4-.8 45.8 3.7 6.2 9 11.3 14.5 16 6.2 5.4 12.7 10.5 19.1 15.7.7.7.7 1.9 0 2.6-.2.2-.5.4-.8.4-4.4 1.1-9 .7-13.1-1.2-1.6-.7-.8-3.6.9-3.4 3.7.5 7.4 1 11 1.4.8.1 1.7.4 2.4-.5.4-.6.3-2.3.3-3 .2-2 .2-3.9.3-5.9 0-2.3 3.6-2.3 3.5 0 0 2.9-.2 5.7-.6 8.6-.2 1.7-.7 3.4-2.3 4.2-1.9.9-4.3.2-6.3-.1l-8.4-1c.3-1.1.6-2.2.9-3.4 3.3 1.4 6.9 1.7 10.3.8-.3 1-.5 2-.8 3-6.8-5.6-13.7-11.1-20.3-17-5.7-5.1-11.1-10.7-14.6-17.5-7.5-14.6-4-32.2 3.3-46.2.5-.7 1.9-.2 1.5.7" class="st4"></path></g></g><g id="Group_35754" transform="rotate(41 -14904.798 8950.209)"><defs><path id="SVGID_00000067223715213025988970000005340770161114045080_" d="M1235-842.2h83v46.8h-83z" transform="rotate(-48.997 1276.558 -818.905)"></path></defs><clipPath id="SVGID_00000067923344155371803350000001966964403668487303_"><use xlink:href="#SVGID_00000067223715213025988970000005340770161114045080_" style="overflow:visible"></use></clipPath><g id="Group_35749-4" style="clip-path:url(#SVGID_00000067923344155371803350000001966964403668487303_)"><path id="Path_39052-4" d="M1291-859.4c5.5 14.9 9.5 31.7.8 46.3-3.8 6.3-9.1 11.4-14.6 16.2-6.3 5.4-12.8 10.6-19.3 15.9-.7.7-.7 1.9 0 2.6.2.2.5.4.8.5 4.4 1.1 9.1.7 13.2-1.2 1.6-.7.8-3.6-.9-3.4-3.7.5-7.4 1-11.2 1.4-.9.1-1.8.4-2.4-.5-.4-.6-.3-2.4-.3-3.1-.2-2-.2-4-.3-6 0-2.3-3.6-2.3-3.6 0 0 2.9.2 5.8.6 8.7.2 1.7.7 3.4 2.4 4.2 1.9.9 4.3.2 6.3-.1l8.5-1c-.3-1.1-.6-2.3-.9-3.4-3.3 1.4-6.9 1.7-10.4.8.3 1 .5 2 .8 3.1 6.9-5.7 13.9-11.3 20.5-17.2 5.7-5.1 11.2-10.8 14.7-17.7 7.6-14.8 4.1-32.5-3.3-46.7-.4-.8-1.7-.2-1.4.6" class="st4"></path></g></g><g id="Group_35755" transform="rotate(53 -11021.513 8284.353)"><defs><path id="SVGID_00000152230714590047102700000004969501587220834176_" d="M1025.5-1080.9h95.5v53.8h-95.5z" transform="rotate(-36.997 1073.206 -1053.931)"></path></defs><clipPath id="SVGID_00000088854713984734513600000010825781654469933752_"><use xlink:href="#SVGID_00000152230714590047102700000004969501587220834176_" style="overflow:visible"></use></clipPath><g id="Group_35749-5" style="clip-path:url(#SVGID_00000088854713984734513600000010825781654469933752_)"><path id="Path_39052-5" d="M1089.9-1100.6c6.3 17.2 10.9 36.5.9 53.2-4.3 7.2-10.5 13.1-16.8 18.6-7.3 6.2-14.8 12.2-22.2 18.3-.8.8-.8 2.2 0 3 .3.2.6.4.9.5 5.1 1.3 10.4.8 15.2-1.4 1.9-.8 1-4.2-1.1-3.9-4.3.5-8.5 1.1-12.8 1.6-1 .1-2 .5-2.8-.6-.5-.7-.3-2.7-.4-3.5-.2-2.3-.3-4.6-.3-6.8 0-2.6-4.2-2.7-4.1 0 0 3.3.3 6.6.6 10 .2 2 .8 3.9 2.7 4.8 2.2 1 5 .2 7.3-.1l9.8-1.2c-.4-1.3-.7-2.6-1.1-3.9-3.8 1.6-8 1.9-12 .9.3 1.2.6 2.3.9 3.5 7.9-6.5 16-12.9 23.6-19.8 6.6-5.9 12.9-12.4 16.9-20.4 8.7-17 4.7-37.4-3.8-53.6-.3-.8-1.8-.2-1.4.8" class="st4"></path></g></g><g id="Group_35753" transform="rotate(-13 54153.015 -1677.99)"><defs><path id="SVGID_00000152951121193653457340000002286891488280607894_" d="M1432.6 508.1h49.8v88.4h-49.8z" transform="rotate(-13.002 1457.201 552.253)"></path></defs><clipPath id="SVGID_00000090994874605760816340000009644604071874262429_"><use xlink:href="#SVGID_00000152951121193653457340000002286891488280607894_" style="overflow:visible"></use></clipPath><g id="Group_35749-6" style="clip-path:url(#SVGID_00000090994874605760816340000009644604071874262429_)"><path id="Path_39052-6" d="M1442.2 509.2c-5.9 15.9-10.1 33.8-.8 49.3 4 6.7 9.7 12.2 15.6 17.2 6.7 5.8 13.7 11.3 20.5 16.9.8.8.7 2 0 2.8-.2.2-.5.4-.8.5-4.7 1.2-9.7.7-14.1-1.3-1.7-.8-.9-3.9 1-3.6 4 .5 7.9 1 11.9 1.5.9.1 1.9.4 2.6-.5.4-.7.3-2.5.4-3.3.2-2.1.3-4.2.3-6.3 0-2.5 3.9-2.5 3.8 0 0 3.1-.2 6.2-.6 9.2-.2 1.8-.7 3.7-2.5 4.5-2 .9-4.6.2-6.7-.1l-9.1-1.1c.3-1.2.7-2.4 1-3.6 3.5 1.5 7.4 1.8 11.1.9l-.9 3.3c-7.3-6.1-14.8-12-21.9-18.3-6.1-5.4-11.9-11.5-15.7-18.9-8.1-15.7-4.3-34.6 3.5-49.7.3-.9 1.7-.3 1.4.6" class="st4"></path></g></g><g class="st10"><path d="M3267.6 11984.2c-.3.1-.8.3-1.5.5s-1.5.5-2.4.8c-.9.3-1.9.7-3 1-1.1.4-2.2.7-3.3 1.1v.2c.3 1.7.6 3.2.9 4.6.3 1.4.6 2.8.9 4.1l.9 3.9c.3 1.3.6 2.6 1 4 .3 1.4.7 2.9 1.1 4.4.4 1.6.8 3.3 1.3 5.1.1.2 0 .5-.1.7-.2.2-.4.3-.6.4s-.5.1-.7 0c-.2-.1-.4-.3-.5-.6-.1-.3-.2-.9-.4-1.7-.2-.8-.4-1.8-.7-2.9-.3-1.1-.5-2.4-.9-3.8-.3-1.4-.6-2.8-1-4.2-.3-1.4-.7-2.9-1-4.3-.3-1.4-.6-2.7-.9-4-.3-1.2-.5-2.3-.7-3.3-.2-.9-.4-1.7-.5-2.2-.9.3-1.8.6-2.6.9-.8.3-1.6.5-2.4.8-.7.2-1.4.5-2 .7-.6.2-1 .4-1.4.5-.3.1-.6.1-.8 0-.2-.1-.4-.3-.5-.5s0-.5.1-.7c.1-.3.4-.4.7-.5 1.2-.4 2.3-.7 3.2-1 .9-.3 1.8-.5 2.5-.8.7-.2 1.4-.5 2.1-.7.6-.2 1.3-.4 1.9-.6.6-.2 1.3-.4 1.9-.7.7-.2 1.4-.5 2.2-.8.8-.3 1.7-.7 2.8-1 1-.4 2.2-.8 3.6-1.3.2-.1.4-.1.7.1.2.1.4.3.5.5.1.2.1.5.1.7 0 .3-.2.5-.5.6zM3278.1 12008.9c-.8.3-1.6.5-2.3.4-.7-.1-1.3-.3-1.9-.6-.6-.4-1.1-.8-1.5-1.4-.5-.6-.9-1.3-1.2-2-.3-.7-.6-1.5-.9-2.3-.2-.8-.4-1.6-.5-2.4l-.7.4c-.2.1-.4 0-.6-.1-.2-.1-.3-.3-.4-.5-.1-.2-.1-.4 0-.7s.2-.4.5-.6l.9-.5c.1-.9.2-1.7.4-2.6.2-.9.5-1.7.9-2.5s.9-1.5 1.5-2.1c.6-.6 1.3-1.1 2.2-1.3 1.4-.5 2.6-.5 3.6-.2s2 .9 2.8 1.7c.3.3.5.5.7.8.2.3.3.6.4.9.1.3 0 .6-.1.8s-.3.5-.7.6l-9.8 5c0 .5.1 1.1.2 1.8s.3 1.3.5 2 .5 1.3.8 1.9c.3.6.7 1.1 1.2 1.5s.9.7 1.5.8c.5.1 1.1.1 1.8-.2.5-.2 1-.5 1.5-.9s1-.9 1.4-1.4c.5-.5.9-1 1.2-1.6.4-.6.7-1.1 1-1.6.2-.3.4-.5.6-.5.2 0 .4 0 .6.2.2.1.3.3.4.6.1.2.1.5-.1.7-.3.6-.7 1.2-1.2 1.8-.4.6-.9 1.2-1.5 1.8-.5.5-1.1 1-1.6 1.5l-1.6.8zm-3.2-17.2c-.5.2-.9.5-1.3.9s-.8.9-1.1 1.5c-.3.6-.6 1.2-.8 1.8-.2.6-.3 1.2-.2 1.7l8.6-4.4c-.1-.2-.2-.4-.5-.7-.3-.3-.6-.5-1.1-.8-.4-.2-1-.4-1.6-.4s-1.3 0-2 .4zM3293.6 12005.5c-.9.6-1.8.9-2.5.9-.7.1-1.4 0-1.9-.3s-1-.7-1.3-1.3c-.3-.6-.6-1.3-.8-2-.2-.8-.3-1.6-.3-2.5 0-.9 0-1.8.1-2.7.1-1 .3-2.1.6-3.3.3-1.2.8-2.4 1.3-3.5s1.2-2.1 1.9-3c.7-.9 1.6-1.4 2.5-1.7.2-.1.5-.1.9-.1.3 0 .7 0 1 .1.3.1.7.3 1 .5s.7.6 1 1c.1.2.2.4.1.6-.1.2-.1.4-.3.5-.1.1-.3.2-.5.3-.2 0-.3 0-.4-.2-.3-.5-.7-.8-1.1-1-.4-.2-.8-.2-1.2-.1-.6.2-1.2.6-1.7 1.2-.6.6-1.1 1.3-1.5 2.2-.5.9-.8 1.9-1.2 3-.3 1.1-.6 2.3-.7 3.5-.2 1.2-.2 2.3-.1 3.3s.3 1.8.7 2.5c.3.6.8 1 1.4 1.2.6.1 1.3-.1 2.2-.6.8-.5 1.5-1 2.1-1.6.6-.6 1.2-1.2 1.8-1.9.6-.7 1.1-1.3 1.7-2 .5-.7 1.1-1.4 1.7-2.1.3-.2.5-.3.6-.2.2.1.3.3.3.5.1.2.1.5 0 .8 0 .3-.1.5-.2.6-.5.6-1 1.3-1.5 2s-1.1 1.3-1.7 2c-.6.7-1.2 1.3-1.8 1.8-.8.7-1.5 1.2-2.2 1.6zM3305.1 12003.6c-.1-.3-.2-.9-.3-1.7s-.4-1.8-.6-2.9c-.2-1.1-.5-2.4-.7-3.7-.3-1.4-.5-2.7-.8-4.1-.3-1.4-.5-2.8-.8-4.2s-.5-2.7-.7-3.9c-.2-1.2-.4-2.2-.6-3.2-.2-.9-.3-1.6-.4-2.1-.1-.3 0-.6.1-.8.2-.2.4-.3.6-.4.2 0 .5 0 .7.2s.4.4.4.8c0 .2.1.6.2 1.2s.3 1.3.4 2.2.3 1.7.5 2.7.4 1.8.5 2.6c.2.8.3 1.5.4 2.1.1.6.2.9.2 1.1.3-.5.6-1 1-1.6.4-.6.9-1.2 1.4-1.8.5-.6 1-1.1 1.6-1.6.5-.5 1.1-.8 1.6-1 .7-.2 1.4-.2 2 .1.6.3 1.1.7 1.6 1.4.5.6.9 1.4 1.2 2.3.4.9.7 1.9 1 3 .3 1.1.5 2.1.7 3.2.2 1.1.4 2.1.5 3.1.1 1 .3 1.9.4 2.6s.2 1.4.3 1.9c.1.3 0 .5-.2.7-.2.2-.4.3-.6.4-.2.1-.4 0-.7-.1-.2-.1-.3-.3-.4-.7-.1-.8-.2-1.8-.4-3-.1-1.2-.3-2.4-.5-3.7-.2-1.3-.5-2.5-.7-3.8-.3-1.2-.6-2.3-1-3.2-.4-.9-.8-1.6-1.4-2-.5-.4-1.1-.5-1.7-.2-.5.2-.9.6-1.4 1.2s-1 1.2-1.5 1.9-.9 1.4-1.3 2.1c-.4.7-.7 1.3-1 1.7.2.9.3 1.7.4 2.2s.2 1 .2 1.4c.1.4.1.7.2 1.1s.1.7.2 1.2.2 1.1.4 1.9c.2.8.4 1.8.7 3 0 .2 0 .5-.2.7-.2.2-.3.3-.6.4-.2.1-.4.1-.7 0 0-.1-.2-.3-.2-.7zM3320.8 12000.5c-.1-.4-.2-1.1-.4-2-.2-.9-.3-1.9-.5-3s-.4-2.3-.6-3.6c-.2-1.3-.4-2.5-.6-3.7s-.4-2.3-.6-3.3c-.2-1-.3-1.8-.5-2.5-.1-.3 0-.6.1-.8.2-.2.4-.3.6-.4.2 0 .5 0 .7.2s.4.4.4.8c0 .3.1.6.1 1.1.1.5.1.9.2 1.4.1.5.1.9.2 1.4s.1.7.1.9c.6-1.9 1.4-3.4 2.3-4.4.9-1 1.9-1.7 3-2 .8-.3 1.6-.3 2.2 0 .6.3 1.2.7 1.7 1.4.5.6.9 1.4 1.2 2.4.3.9.6 1.9.9 3 .2 1.1.4 2.1.6 3.2s.3 2.1.4 3.1c.1 1 .2 1.8.2 2.6.1.8.1 1.3.2 1.7 0 .3 0 .6-.2.8-.2.2-.4.3-.7.3-.3 0-.5-.1-.7-.2-.2-.2-.3-.4-.4-.8 0-.9 0-2-.1-3.2-.1-1.2-.1-2.4-.3-3.6s-.3-2.4-.5-3.5-.5-2.1-.8-3c-.3-.8-.7-1.5-1.1-2-.4-.5-.9-.6-1.5-.5-.7.1-1.3.4-1.9.8-.6.4-1.1.9-1.5 1.6-.4.6-.8 1.3-1.1 2.1-.3.8-.5 1.5-.7 2.3s-.3 1.6-.3 2.4c0 .8 0 1.5.1 2.2.1.4.1.7.2 1.1.1.4.2.8.3 1.3s.2 1.1.4 1.7c.1.7.3 1.5.6 2.5 0 .2 0 .5-.2.7s-.3.3-.6.4-.4.1-.7 0c0-.4-.1-.6-.2-.9zM3332.6 11975.5c-.3-.2-.5-.4-.5-.6 0-.3 0-.5.1-.7.1-.2.3-.4.6-.5.2-.1.5-.1.8 0 .3.2.5.4.5.6 0 .3 0 .5-.1.7-.1.2-.3.4-.6.5-.2.1-.5.1-.8 0zm4 22.1c-.1-.4-.2-1.1-.4-2-.2-.9-.4-1.9-.6-3-.2-1.1-.4-2.3-.7-3.6-.2-1.3-.5-2.5-.7-3.6-.2-1.2-.4-2.3-.6-3.3-.2-1-.4-1.8-.5-2.4-.1-.3 0-.6.1-.8.2-.2.4-.3.6-.4.2 0 .5 0 .7.2.2.2.4.4.4.8.1.8.2 1.5.3 2.2.1.7.2 1.4.4 2.1.1.7.3 1.4.5 2.3.2.8.4 1.7.6 2.8.2 1 .5 2.2.8 3.6.3 1.4.6 2.9 1 4.8 0 .2 0 .5-.2.7-.2.2-.4.3-.6.4-.2.1-.5.1-.7 0-.2-.2-.4-.4-.4-.8zM3346.8 11995.2c-1 .6-1.8.9-2.5.9s-1.4 0-1.9-.3-1-.7-1.3-1.3c-.3-.6-.6-1.3-.8-2-.2-.8-.3-1.6-.3-2.5 0-.9 0-1.8.1-2.7.1-1 .3-2.1.6-3.3s.8-2.4 1.3-3.5 1.2-2.1 1.9-3c.7-.9 1.6-1.4 2.5-1.7.2-.1.5-.1.9-.1.3 0 .7 0 1 .1s.7.3 1 .5c.3.2.7.6 1 1 .1.2.2.4.1.6-.1.2-.1.4-.3.5-.1.1-.3.2-.5.3-.2 0-.3 0-.4-.2-.3-.5-.7-.8-1.1-1-.4-.2-.8-.2-1.2-.1-.6.2-1.2.6-1.7 1.2-.6.6-1.1 1.3-1.5 2.2s-.8 1.9-1.2 3-.6 2.3-.7 3.5c-.2 1.2-.2 2.3-.1 3.3s.3 1.8.7 2.5c.3.6.8 1 1.4 1.2.6.1 1.3-.1 2.2-.6.8-.5 1.5-1 2.1-1.6.6-.6 1.2-1.2 1.8-1.9s1.1-1.3 1.7-2c.5-.7 1.1-1.4 1.6-2.1.3-.2.5-.3.6-.2.2.1.3.3.3.5.1.2.1.5 0 .8 0 .3-.1.5-.2.6-.5.6-1 1.3-1.5 2s-1.1 1.3-1.7 2c-.6.7-1.2 1.3-1.8 1.8-.7.7-1.4 1.2-2.1 1.6zM3373.3 11993.1c-.6-.9-1.1-1.9-1.5-3-.4-1.1-.8-2.2-1.2-3.4-.3-1.2-.7-2.3-.9-3.5-.3-1.2-.5-2.3-.7-3.5-.3.8-.5 1.7-.7 2.5s-.5 1.8-.8 2.7c-.3.9-.6 1.8-1.1 2.7-.4.9-.9 1.8-1.6 2.6-.6.8-1.2 1.5-1.8 2-.6.5-1.1.8-1.6 1-.5.2-1 .2-1.4.1s-.8-.3-1.2-.5c-.4-.3-.8-.9-1.1-1.7-.3-.8-.5-1.8-.6-2.8-.1-1.1-.1-2.2 0-3.4.1-1.2.4-2.4.8-3.5.6-1.6 1.3-3 2.2-4.2.9-1.2 1.8-2.2 2.8-3 1-.8 2-1.5 3-1.9 1-.4 2-.7 2.8-.8.2 0 .4 0 .6.2.2.1.3.3.4.5.1.2.1.4 0 .5-.1.2-.2.3-.5.3-1.4.3-2.7.8-3.8 1.5-1.1.7-2.1 1.4-2.9 2.4-.8.9-1.5 1.9-2.1 3-.6 1.1-1.1 2.3-1.4 3.5-.2.8-.4 1.7-.4 2.6s0 1.7.1 2.4c.1.8.3 1.4.5 1.9s.5.9.7 1c.4.2.9.1 1.5-.3s1.3-1.2 2-2.4c.9-1.5 1.7-3 2.2-4.5.5-1.5 1-2.8 1.3-4 .3-1.2.5-2.4.7-3.4s.3-1.8.5-2.5c.1-.3.2-.4.4-.5.2-.1.4-.1.7 0 .2.1.4.2.6.5.2.3.3.6.3 1.1.1 1.1.2 2.5.4 4s.5 3 .9 4.5.8 3 1.4 4.4 1.1 2.6 1.8 3.5c.2.3.2.5.2.8-.1.3-.2.5-.4.6-.2.2-.4.3-.7.3 0 0-.2-.1-.4-.3zM3377.6 11989.7c-.1-.3-.2-.9-.3-1.7-.2-.8-.4-1.8-.6-2.9-.2-1.1-.5-2.4-.7-3.7-.3-1.4-.5-2.7-.8-4.2-.3-1.4-.6-2.8-.8-4.2-.3-1.4-.5-2.7-.8-3.9-.2-1.2-.5-2.3-.6-3.2-.2-.9-.3-1.6-.4-2.1-.1-.3 0-.6.1-.8s.4-.3.6-.4c.2 0 .5 0 .7.2.2.1.4.4.4.8.3 1.7.5 3.2.8 4.6.2 1.4.5 2.7.7 4 .2 1.3.5 2.5.8 3.7.3 1.2.5 2.5.8 3.8.3 1.3.6 2.8.9 4.3.3 1.5.7 3.2 1.1 5.1 0 .2 0 .5-.2.7-.2.2-.4.3-.6.4s-.5.1-.7 0c-.2 0-.4-.2-.4-.5zM3401.1 11990c-.2.2-.5.3-.7.2-.3 0-.5-.1-.7-.3-.2-.2-.3-.4-.4-.6-.1-.3 0-.5.2-.8.5-.3 1.1-.9 1.9-1.7.8-.8 1.6-1.7 2.4-2.8.8-1.1 1.7-2.2 2.5-3.4s1.5-2.4 2.1-3.5c.6-1.1 1.1-2.2 1.3-3.1.3-.9.3-1.7.1-2.2-.3-.6-.6-1-1.1-1.1-.4-.1-.9-.1-1.5.2-.6.2-1.2.6-1.8 1.1-.7.5-1.4 1.1-2.1 1.8-.7.7-1.4 1.4-2.2 2.1-.7.7-1.5 1.4-2.2 2.1-1.3 1.2-2.5 2-3.5 2.4-1 .4-1.8.4-2.4 0-.6-.4-1.1-1-1.4-2-.3-1-.4-2.2-.5-3.7 0-1.3.1-2.6.4-4 .3-1.4.6-2.7 1.1-4.1.5-1.3 1-2.6 1.7-3.8.6-1.2 1.3-2.2 2.1-3 .8-.8 1.6-1.5 2.4-1.9.9-.4 1.7-.5 2.7-.3.3.1.6.2.7.4s.2.4.2.6c0 .2-.1.4-.3.5s-.4.2-.8.2c-.8 0-1.6.2-2.3.6-.7.5-1.4 1.1-2 1.9-.6.8-1.2 1.8-1.7 2.8-.5 1.1-1 2.2-1.3 3.3-.4 1.1-.7 2.3-.9 3.5s-.3 2.2-.4 3.2c-.1 2.2.3 3.5 1.1 3.9.8.4 2.1-.3 3.9-1.9.7-.7 1.5-1.4 2.3-2.2.8-.8 1.6-1.5 2.5-2.3.8-.7 1.7-1.4 2.5-1.9.8-.6 1.6-.9 2.3-1.2.7-.2 1.4-.2 2 0 .6.2 1.1.7 1.6 1.6.4.9.6 1.9.4 3-.2 1.1-.6 2.3-1.2 3.5-.6 1.2-1.3 2.5-2.2 3.7-.9 1.3-1.7 2.5-2.6 3.6s-1.7 2.2-2.6 3.2c-.5.9-1.2 1.7-1.6 2.4zM3434.9 11979.7c-.3.2-.8.4-1.4.7-.6.3-1.3.6-2.1 1s-1.6.7-2.5 1.1c-.9.4-1.8.8-2.6 1.2-.9.4-1.7.8-2.6 1.2-.8.4-1.6.7-2.2 1.1-.7.4-1.3.6-1.8.5-.5-.1-.8-.5-.8-1.2-.1-.5-.3-1.1-.5-2-.2-.8-.4-1.8-.6-2.8-.2-1-.5-2.1-.8-3.3-.3-1.2-.5-2.3-.8-3.4-.2 0-.5-.1-.6-.2-.2-.1-.3-.3-.4-.4s-.1-.3 0-.5.3-.3.6-.4h.1c-.2-1.1-.5-2.1-.7-3.2-.2-1.1-.5-2.1-.7-3.1s-.4-1.9-.6-2.8c-.2-.9-.4-1.6-.5-2.2-.3.1-.6.1-.9 0-.3-.1-.5-.2-.7-.4-.2-.2-.2-.4-.2-.6 0-.2.2-.4.5-.5 1.3-.5 2.3-.9 3.1-1.3.8-.3 1.5-.6 2-.9.6-.3 1.1-.5 1.6-.8.5-.2 1.1-.6 1.9-.9.7-.4 1.6-.8 2.7-1.4 1.1-.6 2.5-1.3 4.1-2.1.3-.2.6-.2.9-.1s.5.2.6.4.2.4.1.6c0 .2-.2.4-.4.6-.3.2-.8.4-1.4.7-.6.3-1.3.6-2.1 1s-1.6.8-2.5 1.2c-.9.4-1.8.9-2.7 1.3-.9.4-1.8.8-2.6 1.3-.9.4-1.6.8-2.3 1.1.4 2.2.8 4.2 1.2 6.1s.8 3.7 1.2 5.3l11.1-5.7c.3-.1.6-.2.8-.1.2.1.4.2.5.4.1.2.1.4.1.6 0 .2-.2.4-.5.6l-11.7 6.1c.4 1.5.8 3.2 1.3 5.2s1 4 1.5 6.2c.8-.3 1.5-.6 2-.8.6-.2 1.1-.5 1.6-.7.5-.2 1-.5 1.5-.7.5-.3 1.1-.6 1.8-.9.7-.4 1.6-.8 2.6-1.3s2.3-1.1 3.7-1.9c.3-.2.6-.2.9-.1.3.1.5.2.6.4.1.2.2.4.1.6s-.3 0-.5.2zM3445 11978.1c-1 .1-2-.2-3.1-.9s-2.1-1.6-3-2.9c-.9-1.3-1.7-2.8-2.4-4.7-.7-1.8-1.1-3.9-1.3-6.2-.2-2-.1-3.9.1-5.6.3-1.7.8-3.2 1.4-4.4.7-1.3 1.5-2.3 2.5-3 1-.8 2.2-1.3 3.4-1.4 1.6-.3 3.1 0 4.4.7 1.3.7 2.4 1.7 3.4 3.1.9 1.3 1.7 2.9 2.3 4.8.6 1.8 1 3.8 1.1 5.8.2 2.2 0 4.2-.3 5.9-.4 1.8-1 3.3-1.8 4.6-.8 1.3-1.8 2.3-3 3-1 .7-2.3 1.1-3.7 1.2zm-2-27.4c-1 .2-1.8.6-2.7 1.2-.8.6-1.5 1.4-2 2.5s-.9 2.3-1.1 3.8c-.2 1.5-.2 3.2 0 5.2s.6 3.8 1.1 5.4c.5 1.6 1.2 3 1.9 4.1s1.5 2 2.4 2.5c.9.6 1.8.8 2.6.8 1.2-.1 2.3-.4 3.2-1.1.9-.7 1.7-1.6 2.2-2.8.6-1.2 1-2.5 1.2-4 .2-1.5.3-3.1.2-4.8-.2-1.9-.5-3.7-1-5.4-.5-1.7-1.2-3.1-2-4.3-.8-1.2-1.7-2.1-2.8-2.6-.9-.5-2-.7-3.2-.5z" class="st11"></path></g><g class="st10"><path d="M3463.3 11913.5c-1.4.2-2.6.2-3.5-.1-1-.3-1.7-.8-2.3-1.6-.6-.7-1-1.6-1.2-2.7-.2-1.1-.3-2.2-.3-3.4s.2-2.5.5-3.8c.3-1.3.7-2.6 1.2-3.8.4-.9.8-1.9 1.4-2.9.6-1 1.2-2.1 1.9-3.1s1.5-2 2.4-3c.8-1 1.7-1.8 2.6-2.5.9-.7 1.9-1.3 2.8-1.7 1-.4 1.9-.6 2.9-.5.4 0 .8.1 1.3.3.5.2 1 .4 1.5.7.5.3.9.8 1.3 1.3s.7 1.2 1 2c.1.3.1.6-.1.9-.1.2-.3.4-.6.5-.2.1-.5.1-.7 0-.2-.1-.4-.3-.5-.6-.1-.6-.3-1.1-.6-1.5-.3-.4-.6-.7-.9-1-.3-.2-.7-.4-1-.5-.4-.1-.7-.1-1-.1-1 0-2 .3-3.1 1s-2.2 1.6-3.3 2.7c-1.1 1.1-2.1 2.5-3.1 4s-1.8 3.2-2.5 4.9c-.5 1.1-.8 2.2-1.1 3.4-.3 1.1-.5 2.2-.5 3.1-.1 1 0 1.9.1 2.7.1.8.4 1.5.8 2.1.4.6.9 1 1.6 1.3s1.5.4 2.4.3c1.4-.1 2.6-.5 3.9-.9 1.2-.5 2.4-1.1 3.6-1.7 1.1-.7 2.2-1.4 3.3-2.2 1.1-.8 2.1-1.6 3.1-2.3.2-.1.4-.2.7-.1.2.1.4.2.5.4.1.2.2.4.1.7 0 .2-.2.5-.4.6-1.1.9-2.2 1.7-3.4 2.5-1.2.8-2.4 1.5-3.6 2.2-1.2.7-2.4 1.2-3.6 1.7s-2.5.5-3.6.7zM3484.1 11914c-.7-.2-1.4-.6-1.9-1.3-.5-.6-1-1.4-1.2-2.4s-.4-2.1-.4-3.3c0-1.2.2-2.6.6-4 .4-1.3.8-2.5 1.4-3.5.6-1 1.2-1.9 1.9-2.5.7-.7 1.5-1.1 2.3-1.4.8-.3 1.7-.3 2.6-.1 1.1.2 2 .7 2.7 1.4.7.7 1.2 1.6 1.5 2.7.3 1.1.4 2.2.4 3.5 0 1.3-.3 2.6-.6 3.8-.4 1.4-.9 2.6-1.6 3.6-.7 1-1.4 1.8-2.3 2.4-.8.6-1.7 1-2.6 1.2-1 .2-1.9.1-2.8-.1zm5-16.8c-.5-.1-1.1 0-1.7.2-.6.2-1.2.6-1.8 1.1-.6.5-1.1 1.2-1.6 2s-.9 1.8-1.2 2.9c-.3 1.3-.6 2.4-.6 3.5-.1 1 0 1.9.2 2.7.2.8.5 1.4.9 1.8.4.5.9.8 1.5.9.7.2 1.4.2 2.1-.1.7-.3 1.4-.7 2-1.2.6-.6 1.2-1.3 1.7-2.1s.9-1.8 1.2-2.8c.3-1 .4-1.9.4-2.9s-.1-1.9-.3-2.7c-.2-.8-.6-1.6-1.1-2.2-.4-.6-1-1-1.7-1.1zM3495.3 11915.6c.1-.4.2-1.1.3-2 .2-.9.3-1.9.6-3 .2-1.1.4-2.3.7-3.6.2-1.3.5-2.5.7-3.7.2-1.2.4-2.3.6-3.3.2-1 .3-1.8.4-2.5.1-.3.2-.6.4-.7s.5-.2.7-.1c.2 0 .4.2.6.4.2.2.2.5.1.9-.1.3-.1.6-.2 1.1-.1.4-.2.9-.3 1.4s-.2.9-.3 1.3c-.1.4-.2.7-.2.9 1.3-1.6 2.5-2.7 3.7-3.3 1.2-.6 2.4-.9 3.5-.9.9 0 1.6.3 2.1.7.5.5.9 1.1 1.1 1.8.2.8.3 1.6.3 2.6s-.1 2-.2 3.1-.3 2.2-.6 3.2c-.2 1.1-.5 2.1-.7 3.1-.3.9-.5 1.8-.7 2.5-.2.7-.4 1.3-.4 1.7-.1.3-.2.6-.5.7-.3.1-.5.1-.8 0-.2-.1-.4-.2-.6-.5s-.2-.5-.1-.8c.3-.9.6-1.9 1-3s.7-2.3.9-3.4c.3-1.2.5-2.3.7-3.4.2-1.1.3-2.1.3-3 0-.9-.1-1.6-.4-2.2-.2-.6-.6-.9-1.2-1-.7-.1-1.4-.1-2 .2-.7.2-1.3.5-1.9 1-.6.4-1.2 1-1.7 1.6s-1 1.3-1.4 2c-.4.7-.8 1.4-1.1 2.1-.3.7-.5 1.4-.6 2.1-.1.4-.1.7-.2 1.1s-.1.8-.2 1.3-.1 1.1-.2 1.8-.2 1.5-.3 2.5c0 .3-.2.4-.4.6s-.4.2-.7.2c-.2 0-.4-.1-.6-.2-.2-.7-.2-1-.2-1.3zM3526.3 11901.4c-1.4.3-2.9.6-4.5 1.1-1.5.5-3 1-4.5 1.7-.3 1.6-.6 3.3-.8 4.8-.2 1.6-.3 3-.3 4.3 0 1.3.1 2.3.4 3.1.3.8.7 1.2 1.4 1.2.7.1 1.3-.1 2-.3s1.3-.6 1.8-1c.6-.4 1.1-.9 1.5-1.5.4-.6.8-1.1 1.1-1.7.2-.3.4-.5.6-.5.2 0 .5 0 .6.1.2.1.3.3.4.6s.1.5-.1.7c-.4.6-.9 1.3-1.5 2.1-.7.7-1.4 1.4-2.2 2-.8.6-1.6 1-2.5 1.3-.9.3-1.7.3-2.5 0-.9-.1-1.5-.6-2-1.4-.4-.8-.7-1.9-.8-3.1-.1-1.3-.1-2.7.1-4.4.2-1.6.4-3.3.8-5.1-.3.2-.6.3-.9.5-.3.2-.6.4-.9.5-.3.2-.6.2-.8.1-.3-.1-.5-.2-.6-.5-.1-.2-.2-.4-.1-.7.1-.3.3-.5.6-.6.7-.3 1.3-.6 1.8-.8.5-.2.9-.4 1.3-.6.4-1.9.9-3.8 1.4-5.6.5-1.8 1-3.5 1.5-5.1.1-.3.2-.5.5-.6.2-.1.4-.1.7-.1.2 0 .4.1.5.3.1.2.2.4.1.6-.1.4-.3 1-.5 1.6-.2.7-.4 1.4-.6 2.3-.2.8-.5 1.8-.7 2.7-.2 1-.5 2-.7 3 .4-.2.8-.3 1.2-.5.4-.2 1-.3 1.6-.6s1.3-.4 2.2-.7c.9-.3 1.9-.6 3.1-.9.2-.1.5 0 .7.1.2.2.3.4.4.6.1.2.1.5 0 .7-.3.1-.5.3-.8.3zM3535.1 11922c-.9 0-1.7-.1-2.3-.4-.6-.3-1.2-.7-1.6-1.3-.4-.5-.7-1.2-1-1.9s-.4-1.5-.5-2.3c-.1-.8-.1-1.6 0-2.5.1-.8.2-1.7.4-2.5l-.8.1c-.2 0-.4-.1-.5-.3-.1-.2-.2-.4-.2-.6 0-.2.1-.4.2-.6.1-.2.4-.3.7-.3l1-.1c.4-.8.8-1.5 1.3-2.3.5-.8 1.1-1.4 1.7-2.1.6-.6 1.4-1.1 2.1-1.5.8-.4 1.6-.5 2.5-.5 1.5 0 2.6.4 3.5 1 .9.6 1.5 1.5 2 2.5.2.3.3.7.4 1 .1.3.1.7.1 1s-.2.5-.3.7-.5.3-.9.4l-10.9 1.3c-.2.5-.3 1.1-.4 1.7-.1.7-.2 1.3-.2 2s0 1.4.1 2 .3 1.3.6 1.8.6.9 1.1 1.3c.5.3 1 .5 1.7.5.5 0 1.1-.1 1.7-.3.6-.2 1.2-.5 1.8-.8.6-.3 1.2-.7 1.7-1.1.6-.4 1-.8 1.5-1.1.3-.2.5-.3.7-.3.2.1.4.2.5.4.1.2.2.4.2.7s-.1.5-.3.6c-.5.5-1.1.9-1.7 1.3s-1.3.8-2 1.2c-.7.3-1.4.6-2.1.8-.5.3-1.1.5-1.8.5zm2.9-17.3c-.5 0-1 .2-1.6.4-.5.3-1.1.6-1.6 1s-.9.9-1.3 1.4c-.4.5-.6 1-.8 1.5l9.6-1.2c0-.2-.1-.5-.2-.8-.1-.4-.4-.7-.7-1.1s-.8-.7-1.3-.9c-.6-.3-1.3-.4-2.1-.3zM3545.4 11923.5c0-.4.2-1.1.3-2 .2-.9.3-1.9.6-3 .2-1.1.4-2.3.7-3.6.2-1.3.5-2.5.7-3.7s.4-2.3.6-3.3c.2-1 .3-1.8.4-2.5.1-.3.2-.6.4-.7.2-.1.5-.2.7-.1.2 0 .4.2.6.4.2.2.2.5.1.9-.1.3-.1.6-.2 1.1-.1.4-.2.9-.3 1.4-.1.5-.2.9-.3 1.3-.1.4-.2.7-.2.9 1.3-1.6 2.5-2.7 3.7-3.3 1.2-.6 2.4-.9 3.5-.9.9 0 1.6.2 2.1.7.5.5.9 1.1 1.1 1.8.2.8.3 1.6.3 2.6s-.1 2-.2 3.1-.3 2.2-.6 3.2c-.2 1.1-.5 2.1-.7 3.1-.3.9-.5 1.8-.7 2.5-.2.7-.4 1.3-.4 1.7-.1.3-.2.6-.5.7-.3.1-.5.1-.8 0-.2-.1-.4-.2-.6-.5-.2-.2-.2-.5-.1-.8.3-.9.6-1.9 1-3s.7-2.3.9-3.4c.3-1.2.5-2.3.7-3.4.2-1.1.3-2.1.3-3 0-.9-.1-1.6-.4-2.2-.2-.6-.6-.9-1.2-1-.7-.1-1.4-.1-2 .1-.7.2-1.3.5-1.9 1-.6.4-1.2 1-1.7 1.6-.5.6-1 1.3-1.4 2-.4.7-.8 1.4-1.1 2.1-.3.7-.5 1.4-.6 2.1-.1.4-.1.7-.2 1.1-.1.4-.1.8-.2 1.3s-.1 1.1-.2 1.8-.2 1.5-.3 2.5c0 .3-.2.4-.4.6-.2.1-.4.2-.7.2-.2 0-.4-.1-.6-.2-.2-.6-.3-.8-.2-1.2zM3576.3 11909.4c-1.4.3-2.9.6-4.5 1.1-1.5.5-3 1-4.5 1.7-.3 1.6-.6 3.3-.8 4.8-.2 1.6-.3 3-.3 4.3 0 1.3.1 2.3.4 3.1.3.8.7 1.2 1.4 1.2.7.1 1.3-.1 2-.3.6-.3 1.3-.6 1.8-1 .6-.4 1.1-.9 1.5-1.5.5-.6.8-1.1 1.1-1.7.2-.3.4-.5.6-.5.2 0 .5 0 .6.1.2.1.3.3.4.6.1.2.1.5-.1.7-.4.6-.9 1.3-1.5 2.1-.7.7-1.4 1.4-2.2 2-.8.6-1.6 1-2.5 1.3-.9.3-1.7.3-2.5 0-.9-.1-1.5-.6-2-1.4-.4-.8-.7-1.9-.8-3.1-.1-1.3-.1-2.7.1-4.4.2-1.6.4-3.3.8-5.1-.3.2-.6.3-.9.5-.3.2-.6.4-.9.5-.3.2-.6.2-.8.1s-.5-.2-.6-.5c-.1-.2-.2-.5-.1-.7.1-.3.3-.5.6-.6.7-.3 1.3-.6 1.8-.8.5-.2.9-.4 1.3-.6.4-1.9.9-3.8 1.4-5.6.5-1.8 1-3.5 1.5-5.1.1-.3.2-.5.5-.6.2-.1.4-.1.7-.1s.4.1.5.3c.1.2.2.4.1.6-.1.4-.3 1-.5 1.6-.2.7-.4 1.4-.6 2.3-.2.8-.5 1.8-.7 2.7-.2 1-.5 2-.7 3 .4-.2.8-.3 1.2-.5s1-.3 1.6-.6c.6-.2 1.3-.4 2.2-.7s1.9-.6 3.1-.9c.2-.1.5 0 .7.1.2.2.3.4.4.6.1.2.1.5 0 .7s-.5.2-.8.3zM3599 11917.5c-.2-.4-.5-.9-.8-1.5-.3-.6-.6-1.3-1-2.1s-.8-1.7-1.3-2.7c-.5-1-1.1-2.2-1.8-3.5-.4 2.2-.7 4.2-1.1 6.1-.3 1.9-.6 3.9-.9 5.8-.3 2-.6 4-.9 6.2-.3 2.2-.6 4.6-.9 7.2 0 .3-.2.4-.4.6-.2.1-.5.2-.7.2s-.5-.1-.7-.2c-.2-.2-.3-.4-.2-.7 0-.3.1-.9.2-1.7.1-.8.3-1.8.5-2.9.2-1.1.4-2.4.6-3.8.2-1.4.4-2.8.7-4.3.2-1.5.4-2.9.7-4.3s.4-2.8.6-4c.2-1.2.4-2.3.5-3.3.1-1 .3-1.7.3-2.2.1-.4.2-.8.4-1 .2-.2.4-.4.7-.4.2-.1.5 0 .7.1.2.1.5.3.6.5l5.6 10.3 8.3-9c.2-.2.5-.4.7-.5.3-.1.6-.2.9-.1.3 0 .5.2.7.4s.3.6.2 1.1c-.1.5-.2 1.2-.3 2.2-.1 1-.3 2.1-.4 3.3s-.3 2.6-.5 4-.3 2.9-.5 4.3c-.2 1.5-.3 2.9-.5 4.3s-.3 2.7-.5 3.8c-.1 1.1-.3 2.1-.4 2.9-.1.8-.2 1.4-.2 1.7-.1.3-.2.5-.4.7-.2.1-.5.2-.7.1-.2 0-.5-.2-.6-.3-.2-.2-.2-.4-.2-.6.5-2.6.8-5 1.1-7.2.3-2.2.6-4.2.8-6.2.2-2 .4-3.9.6-5.9.2-1.9.4-4 .7-6.1l-7.8 8.6-.5.5-.6.3c-.2.1-.4.1-.7 0-.2-.3-.4-.5-.6-.7zM3625 11939c-.2-1-.3-2.2-.4-3.3 0-1.2 0-2.4.1-3.6l.3-3.6c.1-1.2.3-2.4.5-3.5-.5.7-1 1.4-1.5 2.2s-1.1 1.5-1.6 2.3c-.6.7-1.2 1.5-1.9 2.2-.7.7-1.5 1.4-2.4 1.9-.9.6-1.7 1-2.4 1.3-.7.3-1.3.4-1.9.4-.5 0-1-.1-1.4-.4s-.7-.5-.9-.9c-.3-.5-.4-1.1-.5-2 0-.9.1-1.8.4-2.9.3-1 .7-2.1 1.2-3.2s1.2-2.1 2-3c1.1-1.3 2.3-2.3 3.5-3.2 1.2-.8 2.5-1.4 3.7-1.9 1.2-.4 2.4-.7 3.5-.7 1.1-.1 2.1 0 2.9.2.2.1.4.2.5.4.1.2.2.4.2.6 0 .2 0 .4-.1.5-.1.1-.3.2-.6.1-1.4-.2-2.8-.1-4 .1-1.3.2-2.4.7-3.5 1.2-1.1.6-2.1 1.3-3 2.1s-1.8 1.8-2.5 2.8c-.5.7-.9 1.4-1.3 2.2-.3.8-.6 1.6-.8 2.3-.2.8-.2 1.4-.2 2 0 .6.1 1 .3 1.2.3.3.8.4 1.5.2s1.6-.7 2.7-1.6c1.4-1.1 2.6-2.3 3.6-3.5 1-1.2 1.9-2.3 2.6-3.4.7-1.1 1.3-2 1.8-2.9.5-.9.9-1.6 1.4-2.2.2-.2.4-.3.6-.4.2 0 .4 0 .6.2.2.2.3.4.4.7.1.3.1.7-.1 1.1-.3 1.1-.7 2.4-1 3.9-.3 1.5-.5 3-.7 4.6-.2 1.6-.2 3.1-.2 4.6s.2 2.8.5 3.9c.1.3 0 .6-.1.8s-.4.4-.6.5c-.2.1-.5.1-.7 0-.3.1-.4-.1-.5-.3zM3630.4 11937.2c0-.4.1-1.1.2-2s.2-1.9.4-3.1c.1-1.1.3-2.4.5-3.6.2-1.3.3-2.5.5-3.7.2-1.2.3-2.3.4-3.4.1-1 .2-1.9.3-2.5 0-.3.2-.6.4-.7.2-.1.5-.2.7-.2s.4.2.6.4c.2.2.2.5.2.8 0 .3-.1.6-.2 1s-.1.8-.2 1.2c-.1.4-.1.8-.2 1.1s-.1.6-.1.8c.5-.7 1.1-1.3 1.8-1.8s1.4-.9 2.1-1.2 1.5-.5 2.2-.6c.8-.1 1.5-.1 2.3 0 .8.1 1.5.4 2.2.8.7.5 1.2 1.1 1.7 2 .2.3.2.5.1.7-.1.2-.3.3-.5.4-.2.1-.4.1-.6 0-.2-.1-.4-.2-.4-.3-.3-.6-.6-1-1.1-1.3-.5-.3-1-.5-1.6-.6-.8-.1-1.7 0-2.7.3s-1.9.8-2.7 1.4c-.9.6-1.6 1.4-2.2 2.4s-1 2-1.1 3.1c-.1.9-.3 2.1-.5 3.6s-.4 3.2-.5 5.2c0 .2-.1.4-.3.6-.2.1-.4.2-.6.2-.2 0-.4-.1-.6-.2-.5-.2-.6-.4-.5-.8zM3662.5 11939.5c.2.2.3.5.3.7 0 .2-.1.4-.3.6s-.4.3-.6.3c-.3.1-.5 0-.7-.2-1.6-1.4-2.9-2.6-4.1-3.7-1.1-1-2.1-2-3-2.8-.9-.8-1.7-1.6-2.4-2.3l-2.2-2.2c-.1.9-.2 1.7-.3 2.5-.1.8-.2 1.7-.3 2.5-.1.9-.3 1.8-.4 2.8-.1 1-.3 2.1-.5 3.3-.1.3-.2.6-.4.7-.2.1-.5.2-.7.1-.2 0-.4-.2-.6-.4-.2-.2-.2-.5-.1-.8.1-.3.1-.6.2-1.1.1-.5.2-1.1.3-2 .1-.9.2-1.9.4-3.2.2-1.3.4-2.9.7-4.8.3-1.9.6-4.2 1-6.8.4-2.6.9-5.7 1.4-9.1.1-.3.2-.6.4-.7s.5-.2.7-.1.4.2.6.4.2.5.1.9c-.5 2.4-.9 4.8-1.2 7.1-.3 2.3-.6 4.4-.9 6.3 1.2-.5 2.4-1 3.5-1.5s2.2-.9 3.2-1.3 1.8-.8 2.6-1.1c.8-.3 1.3-.6 1.8-.7.3-.1.6-.1.8 0 .2.1.4.3.5.5.1.2.1.5 0 .7-.1.3-.3.4-.7.6-1.1.4-2.2.8-3.1 1.2-1 .4-1.9.7-2.7 1.1-.9.3-1.7.7-2.4 1-.8.3-1.5.7-2.3 1 1.2 1.2 2.4 2.4 3.7 3.5 1.2 1.2 2.4 2.2 3.4 3.2 1.1 1 2 1.8 2.8 2.5.6.5 1.2 1 1.5 1.3zM3671.4 11943.5c-.9 0-1.7-.1-2.3-.4-.6-.3-1.2-.7-1.6-1.3s-.7-1.2-1-1.9c-.2-.7-.4-1.5-.5-2.3-.1-.8-.1-1.6 0-2.5.1-.8.2-1.7.4-2.5l-.8.1c-.2 0-.4-.1-.5-.3-.1-.2-.2-.4-.2-.6 0-.2.1-.4.2-.6.1-.2.4-.3.7-.3l1-.1c.4-.8.8-1.5 1.3-2.3.5-.8 1.1-1.4 1.7-2.1.6-.6 1.4-1.1 2.1-1.5.8-.4 1.6-.5 2.5-.5 1.5 0 2.6.4 3.5 1 .9.6 1.5 1.5 2 2.5.2.3.3.7.4 1 .1.3.1.7.1 1s-.2.5-.3.7c-.2.2-.5.3-.9.4l-10.9 1.4c-.2.5-.3 1.1-.4 1.7-.1.7-.2 1.3-.2 2s0 1.4.1 2c.1.7.3 1.3.6 1.8s.6.9 1.1 1.3c.5.3 1 .5 1.7.5.5 0 1.1-.1 1.7-.3.6-.2 1.2-.5 1.8-.8.6-.3 1.2-.7 1.7-1.1.6-.4 1-.8 1.5-1.1.3-.2.5-.3.7-.3.2.1.4.2.5.4.1.2.2.4.2.7 0 .3-.1.5-.3.6-.5.5-1.1.9-1.7 1.3-.6.4-1.3.8-2 1.2-.7.3-1.4.6-2.1.8-.5.3-1.2.4-1.8.4zm2.9-17.2c-.5 0-1 .2-1.6.4-.5.3-1.1.6-1.6 1s-.9.9-1.3 1.4c-.4.5-.6 1-.8 1.5l9.6-1.2c0-.2-.1-.5-.2-.8-.1-.4-.4-.7-.7-1.1-.3-.4-.8-.7-1.3-.9-.7-.3-1.3-.4-2.1-.3zM3696.7 11928.4c-1.4.3-2.9.6-4.5 1.1-1.5.5-3 1-4.5 1.7-.3 1.6-.6 3.3-.8 4.8-.2 1.6-.3 3-.3 4.3s.1 2.3.4 3.1c.3.8.7 1.2 1.4 1.2.7.1 1.3-.1 2-.3.7-.3 1.3-.6 1.8-1 .6-.4 1.1-.9 1.5-1.5s.8-1.1 1.1-1.7c.2-.3.4-.5.6-.5.2 0 .5 0 .6.1.2.1.3.3.4.6.1.2.1.5-.1.7-.4.6-.9 1.3-1.5 2.1-.7.7-1.4 1.4-2.2 2-.8.6-1.6 1-2.5 1.3-.9.3-1.7.3-2.5 0-.9-.1-1.5-.6-2-1.4-.4-.8-.7-1.9-.8-3.1-.1-1.3-.1-2.7.1-4.4.2-1.6.4-3.3.8-5.1-.3.2-.6.3-.9.5-.3.2-.6.4-.9.5s-.6.2-.8.1c-.3-.1-.5-.2-.6-.5s-.2-.5-.1-.7c.1-.3.3-.5.6-.6.7-.3 1.3-.6 1.8-.8.5-.2.9-.4 1.3-.6.4-1.9.9-3.8 1.4-5.6.5-1.8 1-3.5 1.5-5.1.1-.3.2-.5.5-.6.2-.1.4-.1.7-.1.2 0 .4.1.5.3.1.2.2.4.1.6-.1.4-.3 1-.5 1.6-.2.7-.4 1.4-.6 2.3-.2.8-.5 1.8-.7 2.7-.2 1-.5 2-.7 3 .4-.2.8-.3 1.2-.5.4-.2 1-.3 1.6-.6.6-.2 1.3-.4 2.2-.7s1.9-.6 3.1-.9c.2-.1.5 0 .7.1.2.2.3.4.4.6.1.2.1.5 0 .7-.2.1-.4.3-.8.3zM3698.4 11948c.1-.4.2-1.1.3-2 .1-.9.3-1.9.5-3s.4-2.3.6-3.6c.2-1.3.4-2.5.6-3.7.2-1.2.4-2.3.5-3.3.2-1 .3-1.8.4-2.5.1-.3.2-.6.4-.7.2-.1.5-.2.7-.1.2 0 .4.2.6.4.2.2.2.5.1.9-.2.8-.3 1.5-.4 2.2-.1.7-.3 1.4-.4 2.1s-.2 1.5-.3 2.3c-.1.8-.3 1.7-.4 2.8-.1 1.1-.3 2.3-.5 3.6-.2 1.4-.4 3-.7 4.8 0 .3-.2.4-.4.6-.2.1-.5.2-.7.2-.2 0-.5-.1-.7-.3-.2-.2-.3-.4-.2-.7zm3.8-22.2c-.2-.3-.3-.5-.3-.8.1-.3.2-.5.4-.6.2-.2.4-.3.7-.3.3 0 .5.1.7.3.2.3.3.5.3.8-.1.3-.2.5-.4.6s-.4.3-.7.3c-.2 0-.5-.1-.7-.3zM3704 11948.7c0-.4.2-1.1.3-2 .2-.9.3-1.9.6-3 .2-1.1.4-2.3.7-3.6.2-1.3.5-2.5.7-3.7.2-1.2.4-2.3.6-3.3.2-1 .3-1.8.4-2.5.1-.3.2-.6.4-.7.2-.1.5-.2.7-.1.2 0 .4.2.6.4.2.2.2.5.1.9-.1.3-.1.6-.2 1.1-.1.4-.2.9-.3 1.4s-.2.9-.3 1.3c-.1.4-.2.7-.2.9 1.3-1.6 2.5-2.7 3.7-3.3 1.2-.6 2.4-.9 3.5-.9.9 0 1.6.2 2.1.7.5.5.9 1.1 1.1 1.9.2.8.3 1.6.3 2.6s-.1 2-.2 3.1-.3 2.2-.6 3.2c-.2 1.1-.5 2.1-.7 3.1-.3.9-.5 1.8-.7 2.5-.2.7-.4 1.3-.4 1.7-.1.3-.2.6-.5.7-.3.1-.5.1-.8 0-.2-.1-.4-.2-.6-.5s-.2-.5-.1-.8c.3-.9.6-1.9 1-3s.7-2.3.9-3.4c.3-1.2.5-2.3.7-3.4.2-1.1.3-2.1.3-3 0-.9-.1-1.6-.4-2.2-.2-.6-.6-.9-1.2-1-.7-.1-1.4-.1-2 .1-.7.2-1.3.5-1.9 1-.6.4-1.2 1-1.7 1.6-.5.6-1 1.3-1.4 2-.4.7-.8 1.4-1.1 2.1-.3.7-.5 1.4-.6 2.1-.1.4-.1.7-.2 1.1-.1.4-.1.8-.2 1.3s-.1 1.1-.2 1.8-.2 1.5-.3 2.5c0 .3-.2.4-.4.6-.2.1-.4.2-.7.2-.2 0-.4-.1-.6-.2-.2-.8-.2-1-.2-1.3zM3734.6 11940.9c-.1.9-.2 1.9-.2 3-.1 1.2-.1 2.4-.2 3.7-.1 1.3-.2 2.6-.4 4s-.4 2.7-.7 3.9c-.3 1.3-.7 2.4-1.2 3.5s-1.1 2-1.8 2.8c-.7.8-1.6 1.3-2.6 1.7-1 .4-2.2.4-3.6.2-.9-.1-1.7-.4-2.3-.8-.7-.4-1.2-.9-1.7-1.5s-.8-1.3-1.1-2.1c-.3-.8-.5-1.7-.5-2.6 0-.3 0-.5.2-.7.2-.2.4-.3.6-.3.2 0 .4 0 .6.2.2.1.3.4.3.7.1 1.1.3 1.9.6 2.6s.6 1.2 1 1.7c.4.4.8.7 1.3.9.5.2.9.3 1.4.4 1.3.2 2.4.1 3.3-.4.9-.5 1.7-1.3 2.3-2.3.6-1 1.1-2.2 1.5-3.6.4-1.4.7-2.8.9-4.3.2-1.5.4-2.9.4-4.4.1-1.4.2-2.7.2-3.8-.4.6-.9 1.3-1.4 1.9-.5.7-1.1 1.4-1.7 2-.6.7-1.2 1.3-1.9 1.9-.6.6-1.3 1.1-2 1.4-.7.4-1.4.7-2 .8-.7.1-1.4.1-2-.1-.7-.2-1.2-.7-1.5-1.3-.3-.6-.5-1.4-.4-2.2 0-.9.2-1.8.5-2.8.3-1 .7-2.1 1.2-3.1s1.1-2 1.7-3c.7-1 1.4-1.8 2.1-2.6.8-.8 1.7-1.4 2.7-1.8 1-.4 2-.6 2.9-.4.9.1 1.8.5 2.6 1.2s1.3 1.7 1.7 3c.1.3 0 .5-.1.7-.2.2-.3.3-.5.4-.2.1-.4 0-.6-.1s-.3-.3-.4-.6c-.1-.7-.3-1.2-.6-1.7-.3-.4-.6-.7-1-.9-.4-.2-.8-.3-1.3-.3s-1 .1-1.4.2c-.5.2-1 .4-1.4.6-.5.3-.9.6-1.2.9-.6.6-1.1 1.3-1.6 2.1s-1 1.6-1.5 2.5-.8 1.7-1.1 2.5c-.3.8-.5 1.6-.6 2.3-.1.7-.1 1.3 0 1.8s.3.8.7.9c.6.2 1.2.3 1.9 0 .7-.2 1.3-.6 2-1.1s1.3-1.1 1.9-1.8c.6-.7 1.2-1.4 1.8-2.2.6-.7 1-1.5 1.5-2.2s.8-1.3 1.1-1.8c.2-.4.4-.6.7-.7.2-.1.5-.1.7 0s.4.2.5.5c-.3.2-.3.4-.3.6z" class="st11"></path></g><g class="st10"><path d="M3689.9 12283.1c-.2 0-.4 0-.6-.1-.2 0-.3-.1-.5-.2l-.3-.3c-.1-.1-.1-.3 0-.6s.2-.9.4-1.8.5-1.9.8-3.2c.3-1.2.7-2.6 1-4.1.4-1.5.8-3 1.2-4.6.4-1.6.8-3.1 1.2-4.7s.7-3 1.1-4.3c.3-1.3.6-2.5.9-3.4s.4-1.7.5-2.2c.1-.3.2-.6.5-.7.2-.1.5-.1.7-.1.2.1.4.2.6.4.1.2.2.5.1.9-.7 2.4-1.3 4.7-1.9 6.8-.6 2.1-1.1 4.2-1.6 6.4-.5 2.1-1 4.3-1.6 6.6-.5 2.3-1.1 4.7-1.7 7.4 1 .1 2 .2 3 .4s2.1.3 3.2.4c1.1.1 2.3.3 3.6.4 1.3.1 2.7.3 4.2.5.2 0 .4.2.6.4.1.2.2.5.2.7 0 .2-.1.5-.2.7-.1.2-.4.3-.7.2l-14.7-1.9zM3708.8 12284.8c.1-.4.3-1.1.5-1.9.2-.9.5-1.8.8-2.9s.6-2.3 1-3.5c.4-1.2.7-2.4 1-3.6.3-1.1.6-2.2.9-3.2.3-1 .5-1.8.7-2.4.1-.3.3-.6.5-.7.2-.1.5-.1.7-.1.2.1.4.2.6.5.1.2.1.5 0 .9-.3.8-.5 1.5-.7 2.1-.2.7-.4 1.3-.6 2-.2.7-.4 1.4-.6 2.2-.2.8-.5 1.7-.7 2.7-.3 1-.6 2.2-.9 3.6-.3 1.3-.8 2.9-1.2 4.7-.1.2-.2.4-.5.5-.2.1-.5.1-.7.1-.2 0-.4-.2-.6-.3-.3-.2-.3-.4-.2-.7zm6.5-21.5c-.2-.3-.3-.6-.2-.8.1-.2.2-.4.5-.6.2-.1.5-.2.7-.2.3 0 .5.1.7.4.2.3.3.6.2.8-.1.3-.2.5-.5.6s-.5.2-.7.2c-.3-.1-.5-.2-.7-.4zM3714.3 12286.2c.1-.4.3-1.1.6-1.9.3-.9.6-1.8.9-3 .3-1.1.7-2.3 1.1-3.5s.8-2.4 1.1-3.6c.4-1.2.7-2.2 1-3.2.3-1 .5-1.8.7-2.4.1-.3.3-.5.5-.7.2-.1.5-.1.7-.1.2.1.4.2.6.5.1.2.2.5 0 .9-.1.3-.2.6-.4 1s-.3.9-.5 1.3c-.2.5-.3.9-.5 1.3-.1.4-.2.7-.3.9 1.4-1.4 2.8-2.4 4.1-2.9 1.3-.5 2.5-.6 3.6-.5.9.1 1.5.4 2 1 .4.5.7 1.2.9 2 .1.8.1 1.7 0 2.7-.1 1-.3 2-.6 3-.3 1.1-.6 2.1-1 3.2s-.7 2-1.1 2.9c-.4.9-.7 1.7-1 2.4s-.5 1.2-.6 1.6c-.1.3-.3.5-.6.6-.3.1-.5 0-.8-.1-.2-.1-.4-.3-.5-.5s-.1-.5 0-.8c.4-.8.9-1.8 1.4-2.9s.9-2.2 1.4-3.3c.4-1.1.8-2.2 1.1-3.3.3-1.1.5-2.1.6-3 .1-.9.1-1.7-.1-2.3s-.5-1-1.1-1.1c-.7-.2-1.3-.2-2-.1s-1.4.4-2 .7c-.7.4-1.3.8-1.9 1.4s-1.2 1.1-1.7 1.8c-.5.6-.9 1.3-1.3 2s-.7 1.4-.9 2c-.1.3-.2.7-.3 1l-.3 1.2c-.1.4-.3 1-.5 1.7s-.4 1.5-.6 2.4c-.1.2-.2.4-.4.5s-.4.1-.7.1-.4-.1-.6-.3c-.1-.1-.1-.3 0-.6zM3745.5 12292.5c.2.3.3.5.2.7-.1.2-.2.4-.4.6-.2.1-.4.2-.7.2s-.5-.1-.6-.2c-1.4-1.6-2.6-3-3.6-4.2-1-1.2-1.9-2.2-2.7-3.2s-1.5-1.8-2.1-2.6c-.6-.8-1.2-1.6-1.9-2.4-.2.8-.4 1.7-.6 2.5-.2.8-.4 1.6-.6 2.5-.2.9-.5 1.8-.7 2.7-.3 1-.6 2-.9 3.2-.1.3-.3.5-.5.7-.2.1-.5.1-.7 0s-.4-.2-.5-.5c-.1-.2-.1-.5 0-.8.1-.3.2-.6.3-1.1.1-.5.3-1.1.5-1.9.2-.8.5-1.9.8-3.1s.8-2.8 1.3-4.7c.5-1.9 1.1-4.1 1.8-6.6s1.6-5.5 2.5-8.9c.1-.3.3-.6.5-.7.2-.1.5-.1.7-.1s.4.2.6.5c.1.2.1.5 0 .9-.8 2.3-1.4 4.6-2.1 6.9-.6 2.3-1.2 4.3-1.7 6.2 1.2-.3 2.5-.7 3.7-1s2.3-.7 3.3-.9 1.9-.5 2.7-.8c.8-.2 1.4-.4 1.8-.5.3-.1.6-.1.8.1s.4.3.4.6 0 .5-.1.7c-.1.2-.4.4-.7.5-1.2.3-2.2.6-3.2.8-1 .2-1.9.5-2.8.7-.9.2-1.7.5-2.5.7-.8.2-1.6.5-2.4.7 1.1 1.3 2.1 2.6 3.2 3.9 1.1 1.3 2.1 2.5 3 3.6.9 1.1 1.8 2 2.5 2.8.6.6 1.1 1.1 1.4 1.5zM3759.4 12305c0-.1 0-.2.1-.4 0-.2.1-.4.1-.6-.4-.2-.7-.3-.8-.5-.2-.2-.2-.4-.1-.6.1-.2.2-.3.4-.5.2-.1.5-.2.9-.2.2-.9.4-2 .7-3.2.2-1.2.5-2.5.8-4 .3-1.4.6-2.9.9-4.4l.9-4.5c.3-1.5.6-2.9.9-4.3.3-1.4.5-2.6.8-3.8-.1 0-.2 0-.3.1-.1 0-.2.1-.3.1-.3 0-.5-.2-.7-.4s-.3-.4-.3-.6c0-.2 0-.4.1-.6.1-.2.3-.3.5-.4.2 0 .4-.1.7-.1.2 0 .4-.1.7-.1.1-.6.2-1.1.3-1.6.1-.4.2-.8.2-1 .1-.3.2-.5.5-.6.2-.1.5-.1.7 0 .2.1.4.2.6.5.1.2.2.5.1.9 0 .3-.1.5-.2.8-.1.3-.1.5-.2.8 1.8-.2 3.5-.3 5.1-.3 1.6 0 3 .2 4.2.5 1.2.3 2.2.7 3 1.3.8.5 1.2 1.2 1.4 2 .1.5 0 1.1-.2 1.7-.3.6-.7 1.2-1.2 1.8s-1.2 1.2-2 1.8c-.8.6-1.6 1.1-2.5 1.7-.9.5-1.9 1-2.9 1.4-1 .4-2 .7-3 1 .9.1 1.9.3 3 .6s2.2.7 3.2 1.2 1.9 1.1 2.7 1.9c.8.8 1.3 1.7 1.5 2.7.1.7.1 1.5-.1 2.2-.2.7-.5 1.5-1 2.1-.5.7-1 1.3-1.7 1.9-.7.6-1.5 1.1-2.3 1.5-1.6.8-3.5 1.3-5.6 1.7-2.2.3-4.6.4-7.3.1 0 .2 0 .4-.1.5 0 .2-.1.4-.1.5-.1.3-.2.4-.4.5-.2.1-.5.2-.7.1-.2 0-.5-.1-.6-.3-.4-.3-.5-.5-.4-.9zm14.6-4.1c.6-.3 1.1-.7 1.6-1.2.5-.4.9-.9 1.3-1.4.3-.5.6-1 .8-1.5.2-.5.2-1 .2-1.5-.1-.7-.4-1.4-.9-2-.5-.6-1.2-1.1-2-1.5-.8-.4-1.7-.8-2.7-1-1-.3-2-.5-3-.6-1-.1-1.9-.2-2.8-.2-.9 0-1.6 0-2.2.2-.4 2-.7 4-1.1 6.1l-1.2 6.3c2.7.4 5 .4 7 .1 2-.5 3.6-1 5-1.8zm4.9-21.8c-.1-.3-.4-.6-1-.9-.5-.3-1.3-.6-2.3-.8-1-.2-2.2-.3-3.7-.3s-3.2.2-5.2.6c-.4 1.7-.8 3.3-1.1 5-.3 1.7-.7 3.4-1 5.1.8 0 1.8-.2 2.8-.5 1.1-.3 2.2-.7 3.3-1.1 1.1-.5 2.2-1 3.3-1.6 1.1-.6 2-1.2 2.8-1.8.8-.6 1.4-1.3 1.8-1.9.4-.6.5-1.2.3-1.8zM3784.1 12306.3c-.7-.5-1.2-1.1-1.6-2-.4-.8-.5-2-.5-3.4s.3-3.2.8-5.4c.5-2.1 1.3-4.8 2.4-7.8.1-.3.3-.6.6-.7.2-.1.5-.1.7-.1.2.1.4.2.6.4.1.2.2.4.1.7-1.1 2.7-1.8 5-2.3 7.1-.5 2-.8 3.7-.9 5.1-.1 1.4 0 2.5.3 3.2s.6 1.3 1.1 1.5c.4.2.8.1 1.3-.2.5-.3 1-.8 1.6-1.5.6-.7 1.1-1.5 1.7-2.5.6-1 1.2-2.1 1.7-3.3.5-1.2 1.1-2.4 1.6-3.7.5-1.3.9-2.6 1.3-4 .1-.3.2-.4.5-.5.2 0 .5 0 .7.1s.4.2.6.4c.2.2.2.4.1.6-.5 1.3-.9 2.6-1.3 4.1-.4 1.5-.8 2.9-1 4.5-.3 1.5-.4 3.1-.4 4.6 0 1.5.2 3.1.6 4.5.1.2 0 .4-.1.6-.2.2-.4.3-.6.4-.2.1-.5.1-.7 0-.2-.1-.4-.3-.5-.6-.1-.4-.2-1-.3-1.8-.1-.8-.1-1.6-.1-2.4 0-.9 0-1.7.1-2.5s.1-1.5.2-1.9c-.1.3-.3.8-.6 1.3-.3.6-.6 1.1-1 1.8-.4.6-.8 1.2-1.3 1.8s-1 1.1-1.6 1.5c-.6.4-1.1.6-1.7.7-1 0-1.5-.2-2.1-.6zM3797 12310.1c.1-.4.3-1.1.5-1.9.2-.9.5-1.8.8-2.9s.6-2.3 1-3.5c.4-1.2.7-2.4 1-3.6.3-1.1.6-2.2.9-3.2.3-1 .5-1.8.7-2.4.1-.3.3-.6.5-.7.2-.1.5-.1.7-.1.2.1.4.2.6.5.1.2.1.5 0 .9-.3.8-.5 1.5-.7 2.1s-.4 1.3-.6 2-.4 1.4-.6 2.2c-.2.8-.5 1.7-.7 2.7-.3 1-.6 2.2-.9 3.6-.3 1.3-.8 2.9-1.2 4.7-.1.2-.2.4-.5.5-.2.1-.5.1-.7.1-.2 0-.5-.2-.6-.3-.2-.1-.3-.4-.2-.7zm6.6-21.5c-.2-.3-.3-.6-.2-.8.1-.2.2-.4.5-.6.2-.1.5-.2.7-.2.3 0 .5.1.7.4.2.3.3.6.2.8-.1.3-.2.5-.5.6-.2.1-.5.2-.7.2-.3 0-.6-.2-.7-.4zM3802.4 12311.7c.1-.3.2-.9.5-1.7.2-.8.5-1.8.8-2.9.3-1.1.7-2.3 1-3.6.4-1.3.8-2.7 1.2-4.1.4-1.4.8-2.8 1.2-4.1.4-1.4.8-2.6 1.1-3.8.3-1.2.6-2.2.9-3.1.3-.9.5-1.6.6-2 .1-.3.3-.6.5-.7.2-.1.5-.1.7-.1.2.1.4.2.5.5s.2.5 0 .9c-.5 1.6-1 3.1-1.4 4.5-.4 1.4-.8 2.6-1.2 3.9-.4 1.2-.7 2.5-1 3.7-.3 1.2-.7 2.5-1 3.8-.3 1.3-.7 2.8-1.1 4.3-.4 1.5-.8 3.2-1.3 5.1-.1.2-.2.4-.5.5-.2.1-.5.1-.7.1-.2 0-.5-.2-.6-.3-.2-.4-.3-.6-.2-.9zM3819.3 12318.9c.1-.2.2-.5.3-1 .1-.5.3-1 .5-1.7s.4-1.4.6-2.2c.2-.8.5-1.7.7-2.6-.5.3-1.1.7-1.8 1-.6.3-1.3.7-2 .9-.7.3-1.3.5-2 .7-.7.2-1.3.3-2 .3-1.1.1-2 0-2.7-.3-.7-.3-1.2-.6-1.6-1.1-.4-.5-.6-1.1-.6-1.7 0-.7.1-1.4.3-2.1.2-.8.6-1.5 1-2.3.5-.8 1-1.6 1.6-2.3.8-1 1.8-1.9 2.9-2.7 1.1-.8 2.3-1.5 3.5-2 1.2-.6 2.4-1 3.6-1.2 1.2-.3 2.3-.4 3.2-.3l2-6.9c.1-.3.3-.6.5-.7.2-.1.5-.1.7-.1s.4.2.6.5.2.5 0 .9c-1 3.1-1.9 6-2.7 8.8-.8 2.8-1.5 5.5-2.2 8.1 0 .2 0 .4-.2.6-.4 1.4-.8 3-1.2 4.6s-.9 3.4-1.4 5.3c-.1.2-.2.4-.5.5-.2.1-.5.1-.7.1-.2 0-.5-.2-.6-.3s.1-.5.2-.8zm-5.9-6.1c.8-.1 1.5-.2 2.3-.5s1.4-.5 2.1-.9 1.4-.7 2.1-1.1c.7-.4 1.4-.8 2-1.2.4-1.5.9-3 1.3-4.6.4-1.5.9-3 1.3-4.5-.7 0-1.6.1-2.6.4s-2 .6-3 1-2.1 1-3.1 1.7-1.9 1.5-2.8 2.4c-.8.9-1.4 1.8-1.9 2.7-.4.9-.7 1.7-.7 2.4s.2 1.3.7 1.6c.6.5 1.3.7 2.3.6zM3825.2 12318.2c.1-.4.3-1.1.5-1.9.2-.9.5-1.8.8-2.9s.6-2.3 1-3.5c.4-1.2.7-2.4 1-3.6.3-1.1.6-2.2.9-3.2.3-1 .5-1.8.7-2.4.1-.3.3-.6.5-.7.2-.1.5-.1.7-.1.2.1.4.2.6.5.1.2.1.5 0 .9-.3.8-.5 1.5-.7 2.1-.2.7-.4 1.3-.6 2s-.4 1.4-.6 2.2c-.2.8-.5 1.7-.7 2.7-.3 1-.6 2.2-.9 3.6-.3 1.3-.8 2.9-1.2 4.7-.1.2-.2.4-.5.5-.2.1-.5.1-.7.1-.2 0-.5-.2-.6-.3-.2-.1-.3-.4-.2-.7zm6.6-21.5c-.2-.3-.3-.6-.2-.8s.2-.4.5-.6c.2-.1.5-.2.7-.2.3 0 .5.1.7.4.2.3.3.6.2.8-.1.3-.2.4-.5.6-.2.1-.5.2-.7.2-.3 0-.5-.2-.7-.4zM3830.8 12319.6c.1-.4.3-1.1.6-1.9.3-.9.6-1.8.9-3 .3-1.1.7-2.3 1.1-3.5s.8-2.4 1.1-3.6c.4-1.2.7-2.2 1-3.2s.5-1.8.7-2.4c.1-.3.3-.6.5-.7.2-.1.5-.1.7-.1.2.1.4.2.6.5.1.2.2.5 0 .9-.1.3-.2.6-.4 1s-.3.9-.5 1.3c-.2.5-.3.9-.5 1.3-.1.4-.2.7-.3.9 1.4-1.4 2.8-2.4 4.1-2.9 1.3-.5 2.5-.6 3.6-.5.9.1 1.5.4 2 1 .4.5.7 1.2.9 2 .1.8.1 1.7 0 2.7-.1 1-.3 2-.6 3-.3 1.1-.6 2.1-1 3.2s-.7 2-1.1 2.9c-.4.9-.7 1.7-1 2.4s-.5 1.2-.6 1.6c-.1.3-.3.5-.6.6-.3.1-.5 0-.8-.1-.2-.1-.4-.3-.5-.5-.1-.3-.1-.5 0-.8.4-.8.9-1.8 1.4-2.9.5-1.1.9-2.2 1.4-3.3.4-1.1.8-2.2 1.1-3.3.3-1.1.5-2.1.6-3 .1-.9.1-1.7-.1-2.3s-.5-1-1.1-1.1c-.7-.2-1.3-.2-2-.1s-1.4.4-2 .7c-.7.4-1.3.8-1.9 1.4s-1.2 1.1-1.7 1.8c-.5.6-.9 1.3-1.3 2s-.7 1.4-.9 2c-.1.3-.2.7-.3 1l-.3 1.2c-.1.5-.3 1-.5 1.7s-.4 1.5-.6 2.4c-.1.2-.2.4-.4.5-.2.1-.4.1-.7.1-.2 0-.4-.1-.6-.3-.1 0-.1-.3 0-.6zM3862.1 12315.6c-.2.8-.4 1.8-.6 3-.2 1.1-.4 2.3-.7 3.6l-.9 3.9c-.3 1.3-.7 2.6-1.2 3.8-.5 1.2-1 2.3-1.6 3.3-.6 1-1.3 1.9-2.2 2.5s-1.8 1.1-2.8 1.3c-1.1.2-2.2.2-3.5-.2-.9-.2-1.6-.6-2.2-1.1-.6-.5-1.1-1.1-1.5-1.7-.4-.7-.7-1.4-.8-2.2-.2-.8-.2-1.7-.2-2.7 0-.3.1-.5.3-.7.2-.2.4-.2.6-.3.2 0 .4.1.6.2.2.2.3.4.3.8 0 1.1 0 2 .2 2.7.2.7.5 1.3.8 1.8.4.5.7.8 1.2 1.1.4.2.9.4 1.3.6 1.3.4 2.4.4 3.4 0s1.8-1.1 2.6-2c.7-.9 1.4-2.1 1.9-3.4s1-2.7 1.4-4.2c.4-1.4.7-2.9 1-4.3.3-1.4.5-2.7.7-3.8-.5.6-1.1 1.1-1.7 1.8-.6.6-1.2 1.2-1.9 1.8-.7.6-1.4 1.1-2.1 1.6-.7.5-1.4.9-2.1 1.2-.7.3-1.4.5-2.1.5s-1.4-.1-2-.4c-.7-.3-1.1-.8-1.4-1.5-.2-.7-.3-1.4-.2-2.3.1-.9.4-1.8.8-2.8.4-1 .9-2 1.6-2.9.6-1 1.3-1.9 2.1-2.8s1.6-1.7 2.4-2.3c.9-.7 1.8-1.2 2.9-1.5 1-.3 2-.3 2.9-.1s1.7.7 2.4 1.5 1.1 1.8 1.3 3.2c0 .3 0 .5-.2.7-.2.2-.4.3-.6.3-.2 0-.4 0-.6-.1-.2-.1-.3-.3-.3-.6 0-.7-.1-1.3-.4-1.7-.2-.5-.5-.8-.9-1.1-.4-.2-.8-.4-1.3-.5-.5-.1-1 0-1.5 0-.5.1-1 .2-1.5.5-.5.2-.9.5-1.3.8-.6.5-1.3 1.2-1.9 1.9-.6.7-1.2 1.5-1.7 2.3-.5.8-1 1.6-1.4 2.4-.4.8-.7 1.5-.9 2.2-.2.7-.3 1.3-.3 1.8s.2.8.6 1c.6.3 1.2.4 1.9.3.7-.1 1.4-.4 2.1-.8.7-.4 1.4-.9 2.2-1.6.7-.6 1.4-1.3 2-1.9.6-.7 1.2-1.3 1.7-2 .5-.6.9-1.2 1.3-1.7.2-.3.5-.5.7-.6.3-.1.5 0 .7.1.2.1.3.3.5.5.1.4.1.6.1.8z" class="st11"></path></g><g class="st10"><path d="M3224.3 12174.1c-.4.2-.7.3-.9.2-.2-.1-.3-.2-.4-.4-.1-.2 0-.5.1-.7s.3-.5.5-.6c.1 0 .1-.1.2-.1s.1-.1.2-.1c-.1-.3-.2-.8-.3-1.6-.2-.8-.3-1.7-.6-2.8-.2-1.1-.4-2.3-.7-3.7-.3-1.4-.5-2.8-.8-4.2s-.6-2.9-.8-4.4c-.3-1.5-.5-2.9-.8-4.2-.3-1.4-.5-2.6-.7-3.8-.2-1.2-.4-2.1-.5-2.9-.2.1-.4.2-.6.2-.2.1-.4.2-.6.2-.2.1-.4.1-.5-.1-.2-.1-.3-.3-.4-.5-.1-.2-.1-.4 0-.6.1-.2.2-.4.5-.5.2-.1.4-.1.7-.2.2-.1.4-.1.7-.2-.1-.3 0-.6.1-.8.2-.2.3-.3.6-.4.2 0 .4 0 .7.1.2.1.4.3.5.6 2.5-.6 4.7-.8 6.6-.7 1.9.1 3.5.4 4.8 1 1.3.6 2.4 1.5 3.2 2.6.8 1.1 1.4 2.4 1.7 3.8.3 1.4.4 3 .2 4.6-.2 1.6-.6 3.2-1.1 4.8-.6 1.6-1.3 3.2-2.2 4.8-.9 1.6-1.8 3-2.9 4.4s-2.1 2.6-3.2 3.7c-1.1 1-2.2 1.9-3.3 2.5zm11-23.7c-.2-1.2-.6-2.3-1.2-3.2-.5-.9-1.2-1.6-2-2.1-.8-.6-1.6-1-2.6-1.2-.9-.3-1.9-.4-2.9-.5s-2.1 0-3.1.1-2.1.3-3.1.6c.4 2.3.7 4.5 1.1 6.6.4 2.1.8 4.2 1.3 6.4.4 2.1.9 4.3 1.4 6.6.5 2.3 1 4.7 1.5 7.3 1-.8 1.9-1.8 2.8-2.8.9-1.1 1.7-2.2 2.5-3.4.8-1.2 1.4-2.4 2.1-3.7.6-1.3 1.1-2.5 1.5-3.8.4-1.2.6-2.4.8-3.6.1-1.2.1-2.3-.1-3.3zM3240.2 12143.9c-.3-.2-.5-.4-.5-.6 0-.3 0-.5.1-.7.1-.2.3-.4.6-.5.2-.1.5-.1.8 0 .3.2.5.4.5.6 0 .3 0 .5-.1.7-.1.2-.3.4-.6.5-.3.1-.5.1-.8 0zm3.6 22.2c-.1-.4-.2-1.1-.4-2-.2-.9-.3-1.9-.5-3s-.4-2.3-.6-3.6c-.2-1.3-.4-2.5-.6-3.6-.2-1.2-.4-2.3-.6-3.3-.2-1-.3-1.8-.4-2.5-.1-.3 0-.6.2-.8.2-.2.4-.3.6-.4.2 0 .5 0 .7.2.2.2.4.4.4.8.1.8.2 1.5.3 2.2l.3 2.1c.1.7.3 1.5.4 2.3.2.8.3 1.7.5 2.8.2 1 .4 2.2.7 3.6.3 1.4.6 3 1 4.8 0 .3 0 .5-.2.7-.2.2-.4.3-.6.4-.2.1-.5.1-.7 0-.3-.2-.5-.4-.5-.7zM3259.9 12150.4c.2.8.4 1.8.8 2.9.3 1.1.6 2.3 1 3.6l.9 3.9c.3 1.3.5 2.7.6 3.9.1 1.3.1 2.5 0 3.7-.1 1.2-.4 2.3-.8 3.2-.4 1-1.1 1.8-1.9 2.4-.8.7-1.9 1.1-3.3 1.4-.9.2-1.7.1-2.5 0-.8-.2-1.5-.5-2.1-.9-.6-.4-1.2-1-1.7-1.7s-1-1.4-1.4-2.3c-.1-.3-.1-.5 0-.8.1-.2.2-.4.4-.5.2-.1.4-.1.6 0 .2.1.4.3.6.6.4 1 .9 1.7 1.4 2.3.5.6 1 1 1.5 1.2.5.3 1 .4 1.5.4h1.4c1.3-.2 2.3-.7 3-1.5.7-.8 1.2-1.8 1.4-2.9.3-1.2.3-2.5.2-3.9-.1-1.4-.3-2.9-.6-4.3-.3-1.5-.6-2.9-1-4.3s-.7-2.6-1-3.7c-.2.7-.4 1.5-.7 2.3-.3.8-.6 1.6-.9 2.5-.3.8-.7 1.6-1.2 2.4-.4.8-.9 1.4-1.4 2-.5.6-1.1 1.1-1.7 1.4-.6.3-1.3.5-2 .5-.8 0-1.4-.2-1.9-.7-.5-.5-.9-1.2-1.1-2-.3-.8-.4-1.8-.5-2.8-.1-1.1 0-2.2.1-3.3.1-1.1.4-2.3.7-3.4.3-1.1.7-2.2 1.1-3.1.5-1 1.1-1.9 1.9-2.6.8-.7 1.7-1.2 2.6-1.4.9-.2 1.9-.1 2.8.3.9.4 1.8 1.1 2.6 2.3.2.2.2.5.1.7-.1.2-.2.4-.4.5-.2.1-.4.2-.6.1-.2 0-.4-.2-.6-.4-.3-.6-.7-1.1-1.1-1.4-.4-.3-.8-.5-1.3-.5-.4-.1-.9 0-1.4.1-.5.2-.9.4-1.3.7-.4.3-.8.7-1.1 1.1-.3.4-.6.8-.8 1.3-.3.8-.6 1.6-.9 2.5-.2.9-.4 1.9-.6 2.8-.1 1-.2 1.9-.2 2.8 0 .9 0 1.7.1 2.4s.3 1.3.5 1.7c.3.4.6.7 1 .7.7 0 1.3-.2 1.8-.6.6-.4 1.1-1 1.5-1.7.5-.7.9-1.5 1.2-2.4.4-.9.7-1.8 1-2.6.3-.9.5-1.7.7-2.5s.3-1.5.4-2c.1-.4.2-.7.4-.8.2-.2.4-.2.6-.2.2 0 .4.1.6.3.8-.1.9.1 1 .3zM3262.3 12140c-.3-.2-.5-.4-.5-.6 0-.3 0-.5.1-.7.1-.2.3-.4.6-.5.2-.1.5-.1.8 0 .3.2.5.4.5.6 0 .3 0 .5-.1.7-.1.2-.3.4-.6.5-.3.1-.5.1-.8 0zm3.6 22.2c-.1-.4-.2-1.1-.4-2-.2-.9-.3-1.9-.5-3s-.4-2.3-.6-3.6-.4-2.5-.6-3.6c-.2-1.2-.4-2.3-.6-3.3-.2-1-.3-1.8-.4-2.5-.1-.3 0-.6.2-.8.2-.2.4-.3.6-.4s.5 0 .7.2c.2.2.4.4.4.8.1.8.2 1.5.3 2.2l.3 2.1c.1.7.3 1.5.4 2.3.2.8.3 1.7.5 2.8.2 1 .4 2.2.7 3.6.3 1.4.6 3 1 4.8 0 .3 0 .5-.2.7-.2.2-.4.3-.6.4-.2.1-.5.1-.7 0-.3-.2-.5-.4-.5-.7zM3280.3 12140.3c-1.3.7-2.5 1.6-3.8 2.5s-2.5 2-3.7 3c.2 1.7.5 3.3.8 4.8.3 1.6.7 2.9 1.1 4.1.4 1.2.9 2.1 1.4 2.8.5.7 1.1.9 1.7.7.7-.2 1.2-.5 1.8-.9.5-.5 1-1 1.4-1.6.4-.6.7-1.2 1-1.9.2-.7.4-1.3.5-2 .1-.3.2-.6.4-.7.2-.1.4-.1.7-.1.2.1.4.2.6.4.2.2.2.4.2.7-.1.7-.4 1.5-.8 2.5-.4.9-.8 1.8-1.4 2.6-.6.8-1.2 1.5-1.9 2s-1.5.8-2.3.8c-.9.2-1.7-.1-2.3-.7-.7-.6-1.3-1.5-1.8-2.7-.5-1.2-1-2.6-1.3-4.2-.4-1.6-.7-3.3-.9-5.1-.3.2-.5.5-.7.8-.2.3-.4.5-.6.8-.2.3-.5.4-.7.4-.3 0-.5-.1-.7-.2-.2-.2-.3-.4-.3-.6 0-.3.1-.5.4-.8.6-.5 1-1 1.4-1.3s.7-.7 1.1-1c-.2-1.9-.4-3.8-.5-5.7-.1-1.9-.2-3.7-.3-5.3 0-.3.1-.6.2-.7.2-.2.4-.3.6-.3s.4 0 .6.1c.2.1.3.3.3.5v1.7c0 .7.1 1.5.1 2.4.1.9.1 1.8.2 2.8.1 1 .2 2 .3 3.1.3-.3.6-.6 1-.9.4-.3.8-.6 1.3-1s1.1-.9 1.9-1.4c.7-.5 1.6-1.2 2.6-1.9.2-.1.4-.2.7-.1.2.1.5.2.6.4.2.2.2.4.2.7-.7.2-.8.4-1.1.5zM3303 12158.3c-.6-.9-1-1.9-1.5-3s-.8-2.2-1.1-3.4c-.3-1.2-.6-2.4-.9-3.5-.3-1.2-.5-2.3-.7-3.5-.3.8-.5 1.7-.8 2.5-.2.9-.5 1.8-.8 2.7-.3.9-.7 1.8-1.1 2.7-.4.9-1 1.8-1.6 2.6-.6.8-1.3 1.5-1.8 2-.6.5-1.1.8-1.6 1-.5.2-1 .2-1.4.1-.4-.1-.8-.3-1.2-.6-.4-.3-.8-.9-1.1-1.8-.3-.8-.5-1.8-.6-2.8s-.1-2.2.1-3.4c.1-1.2.4-2.3.9-3.4.6-1.6 1.4-3 2.3-4.1.9-1.2 1.9-2.2 2.9-3 1-.8 2-1.4 3-1.8 1-.4 2-.7 2.9-.8.2 0 .4 0 .6.2.2.1.3.3.4.5.1.2.1.4 0 .5-.1.2-.2.3-.5.3-1.4.3-2.7.8-3.8 1.4-1.1.6-2.1 1.4-2.9 2.3-.8.9-1.6 1.9-2.2 3-.6 1.1-1.1 2.3-1.5 3.5-.3.8-.4 1.7-.5 2.5-.1.9 0 1.7 0 2.5s.2 1.4.4 1.9.4.9.7 1c.4.2.9.1 1.5-.3s1.3-1.2 2.1-2.4c1-1.5 1.7-3 2.3-4.4.6-1.4 1-2.8 1.3-4 .3-1.2.6-2.4.8-3.4.2-1 .4-1.8.6-2.5.1-.3.2-.4.4-.5.2-.1.4-.1.7 0 .2.1.4.3.6.5s.3.6.3 1.1c0 1.1.1 2.5.3 4 .2 1.5.5 3 .8 4.6.3 1.5.8 3 1.3 4.4.5 1.4 1.1 2.6 1.8 3.5.2.3.2.5.1.8-.1.3-.2.5-.4.6-.2.2-.4.2-.7.3-.1-.1-.3-.2-.4-.4zM3307.2 12154.9c-.1-.3-.2-.9-.3-1.7-.2-.8-.3-1.8-.5-2.9-.2-1.1-.4-2.4-.7-3.7-.2-1.4-.5-2.7-.8-4.2-.3-1.4-.5-2.8-.8-4.2s-.5-2.7-.7-3.9c-.2-1.2-.4-2.3-.6-3.2-.2-.9-.3-1.6-.4-2.1-.1-.3 0-.6.2-.8.2-.2.4-.3.6-.4.2 0 .5 0 .7.2.2.2.4.4.4.8.2 1.7.5 3.2.7 4.6.2 1.4.4 2.7.7 4s.5 2.5.7 3.8c.2 1.2.5 2.5.8 3.9.3 1.3.6 2.8.9 4.3.3 1.5.7 3.3 1 5.1 0 .3 0 .5-.2.7-.2.2-.4.3-.6.4-.2.1-.5.1-.7 0-.2-.2-.3-.4-.4-.7zM3326.6 12154.2c-.1-.3-.2-.7-.3-1.3-.1-.6-.3-1.3-.5-2.2-.2-.9-.4-1.8-.7-2.9-.3-1.1-.5-2.2-.8-3.4-.3.2-.6.2-1 .2-.3 0-.6-.1-.7-.3-.2-.2-.2-.4-.1-.7.1-.3.3-.6.8-.9.1-.1.2-.1.3-.2.1-.1.2-.1.3-.2-.3-1.2-.5-2.4-.8-3.7-.3-1.2-.6-2.4-.8-3.6-.3-1.1-.5-2.2-.7-3.3-.2-1-.4-1.9-.6-2.7-.1.1-.2.1-.2.2l-.2.2c-.3.2-.5.3-.7.2-.2-.1-.4-.2-.5-.4-.1-.2-.1-.4-.1-.7 0-.3.2-.5.4-.8.1-.1.3-.2.5-.3.2-.1.3-.2.5-.3 0-.1-.1-.3-.1-.4 0-.1 0-.2-.1-.3-.1-.3 0-.6.1-.8.1-.2.3-.4.5-.5.2-.1.4-.1.6.1.2.1.3.4.4.7l.1.4c1.7-.9 3.3-1.7 4.8-2.3 1.6-.6 3-1 4.3-1.1 1.3-.2 2.4-.1 3.3.3.9.4 1.5 1 1.9 2 .2.7.2 1.5 0 2.5s-.6 2-1.2 3.1c-.5 1.1-1.2 2.3-2 3.4-.8 1.2-1.6 2.3-2.5 3.4-.9 1.1-1.7 2.1-2.6 3.1l-2.4 2.4c.4 1.6.8 3.2 1.2 4.9.4 1.7.9 3.5 1.3 5.5.1.2 0 .5-.1.7-.1.2-.3.3-.5.4-.2.1-.4.1-.6 0-.2.1-.4-.1-.5-.4zm8.3-28.5c-.1-.5-.4-.8-.9-1-.4-.2-1-.3-1.7-.2-.7 0-1.4.2-2.3.4-.8.2-1.7.5-2.6.9-.9.3-1.8.7-2.7 1.2-.9.4-1.7.9-2.5 1.3.2 1.2.4 2.4.7 3.5.2 1.1.5 2.2.7 3.2.2 1.1.5 2.1.7 3.2.2 1 .5 2.1.8 3.2.9-.7 1.7-1.6 2.5-2.5.8-.9 1.6-1.9 2.4-2.9l2.1-3c.6-1 1.2-2 1.6-2.9.4-.9.7-1.7.9-2.5.4-.8.4-1.4.3-1.9zM3345.4 12151.8c0-.3-.1-.8-.3-1.6-.1-.8-.3-1.8-.5-2.8-.2-1.1-.4-2.3-.6-3.6-.2-1.3-.4-2.5-.7-3.7-.3.1-.7.2-1 .1s-.5-.2-.7-.4c-.2-.2-.2-.4-.1-.7.1-.3.4-.5.8-.8.1-.1.2-.1.3-.1.1 0 .2-.1.3-.1-.2-1.2-.4-2.5-.7-3.7s-.5-2.5-.7-3.6c-.2-1.2-.4-2.3-.6-3.3-.2-1-.4-2-.5-2.8-.1.1-.2.1-.3.1-.1 0-.2.1-.2.1-.3.2-.5.2-.8.1-.2-.1-.4-.2-.5-.4-.1-.2-.1-.4-.1-.7 0-.3.2-.5.4-.7.2-.1.3-.1.5-.2s.3-.2.5-.2c0-.1 0-.3-.1-.4v-.3c-.1-.3 0-.6.1-.8.1-.2.3-.3.5-.4.2-.1.4 0 .6.1.2.1.3.4.4.8v.4c1.7-.7 3.3-1.2 4.7-1.6 1.4-.4 2.7-.7 3.8-.8 1.6-.2 2.9-.1 3.8.4s1.5 1 1.8 1.9c.3.8.3 1.8.1 2.9-.2 1.1-.7 2.3-1.4 3.5-.5.9-1.1 1.8-1.8 2.8-.7.9-1.5 1.9-2.3 2.7-.8.9-1.6 1.7-2.5 2.5-.8.8-1.6 1.5-2.4 2.1 1.6.3 3.2.7 4.8 1.4 1.6.6 3.1 1.3 4.5 2.1s2.6 1.5 3.7 2.4c1.1.8 2 1.5 2.6 2.1.2.2.4.5.4.8 0 .3 0 .5-.2.7-.1.2-.3.3-.6.3s-.6-.1-.9-.4c-1-.8-2-1.7-3.1-2.5-1.1-.9-2.3-1.7-3.6-2.4-1.3-.7-2.6-1.4-4-1.9s-2.8-.8-4.3-1c.2.8.3 1.7.5 2.6.2 1 .4 1.9.5 2.9.2 1 .4 2 .5 3 .2 1 .3 2 .5 2.9.1.2 0 .5-.1.6-.2.2-.3.3-.6.4-.2.1-.4 0-.7-.1.5-.2.4-.4.3-.7zm8-24c.5-.9.9-1.8 1.2-2.7s.3-1.6.2-2.2c-.2-.6-.6-1.1-1.2-1.4s-1.7-.4-3-.2c-.7.1-1.3.2-2.1.4-.7.2-1.4.4-2.2.6-.7.2-1.4.5-2.1.7-.7.3-1.4.5-2 .8.2 1.2.3 2.4.5 3.5l.6 3.3c.2 1.1.4 2.1.6 3.2s.4 2.1.7 3.2c.9-.6 1.7-1.3 2.5-2s1.7-1.5 2.4-2.3c.8-.8 1.5-1.6 2.2-2.4.6-.8 1.2-1.6 1.7-2.5z" class="st11"></path></g><g class="st10"><path d="M3198.2 12279.9c0-.3.1-.7.2-1.3.1-.6.2-1.4.4-2.2.1-.9.3-1.9.5-2.9s.3-2.2.5-3.4c-.4 0-.7 0-1-.2-.3-.2-.5-.3-.5-.5-.1-.2 0-.4.1-.7.2-.2.5-.4 1.1-.5.1 0 .2 0 .3-.1.1 0 .2-.1.3-.1.2-1.2.4-2.5.6-3.7l.6-3.6c.2-1.2.4-2.3.5-3.3.2-1 .3-2 .5-2.8-.1 0-.2 0-.3.1-.1 0-.2.1-.3.1-.3.1-.6.1-.8-.1-.2-.1-.3-.3-.3-.5s0-.4.2-.7c.1-.2.3-.4.6-.5.2 0 .4-.1.5-.1.2 0 .4-.1.6-.1 0-.1 0-.3.1-.4 0-.1 0-.2.1-.3 0-.3.2-.6.4-.7.2-.2.4-.2.7-.2.2 0 .4.1.6.3.1.2.2.5.1.8l-.1.3c1.9-.2 3.7-.3 5.3-.3s3.2.2 4.4.6c1.3.3 2.3.9 3 1.5.7.7 1 1.5 1 2.6-.1.7-.4 1.5-1 2.3-.6.8-1.3 1.6-2.3 2.5-.9.8-2 1.6-3.1 2.5-1.2.8-2.4 1.6-3.6 2.3-1.2.7-2.4 1.3-3.6 1.9-1.2.5-2.2 1-3.1 1.3-.2 1.6-.4 3.2-.7 5-.2 1.7-.5 3.6-.8 5.6 0 .3-.2.4-.4.6-.2.1-.4.2-.6.2-.2 0-.4-.1-.6-.2-.1-.5-.1-.7-.1-1.1zm18.4-23.3c.1-.5-.1-.9-.4-1.2-.3-.3-.8-.6-1.5-.8s-1.4-.4-2.2-.5-1.8-.2-2.7-.2c-1 0-1.9 0-2.9.1s-1.9.2-2.8.3c-.3 1.2-.5 2.3-.7 3.5l-.6 3.3c-.2 1.1-.3 2.1-.5 3.2s-.3 2.1-.4 3.2c1.1-.4 2.2-.8 3.3-1.4s2.2-1.1 3.3-1.8c1.1-.6 2.1-1.3 3-2s1.8-1.4 2.5-2.1c.7-.7 1.3-1.3 1.8-2s.7-1 .8-1.6zM3224 12285.3c-.2-1.1-.2-2.2-.2-3.3 0-1.2.1-2.4.2-3.6.1-1.2.3-2.4.5-3.6.2-1.2.4-2.4.7-3.5-.5.6-1.1 1.3-1.7 2.1s-1.1 1.5-1.8 2.2c-.6.7-1.3 1.4-2 2.1-.7.7-1.6 1.3-2.5 1.8-.9.5-1.7.9-2.4 1.1-.7.2-1.3.3-1.9.3-.5 0-1-.2-1.3-.4-.4-.3-.6-.6-.9-1-.3-.5-.4-1.2-.3-2 0-.9.2-1.8.5-2.8.3-1 .8-2.1 1.3-3.1.6-1.1 1.3-2 2.1-2.9 1.2-1.2 2.4-2.2 3.7-3 1.3-.8 2.5-1.3 3.8-1.7s2.4-.6 3.5-.6 2.1.1 2.9.4c.2.1.4.2.5.4s.2.4.2.6c0 .2-.1.4-.2.5-.1.1-.3.2-.6.1-1.4-.2-2.8-.3-4-.1-1.3.2-2.5.5-3.6 1s-2.2 1.2-3.1 2c-1 .8-1.9 1.7-2.7 2.6-.6.7-1 1.4-1.4 2.2-.4.8-.7 1.5-.9 2.3-.2.7-.3 1.4-.3 2 0 .6.1 1 .3 1.2.3.3.8.4 1.5.3.7-.1 1.6-.6 2.8-1.4 1.5-1 2.7-2.1 3.8-3.3 1.1-1.1 2-2.2 2.7-3.2.8-1 1.4-2 2-2.8.5-.9 1-1.6 1.5-2.1.2-.2.4-.3.6-.3.2 0 .4.1.6.2.2.2.3.4.4.7.1.3 0 .7-.1 1.1-.4 1.1-.8 2.3-1.2 3.8-.4 1.5-.7 3-1 4.5-.3 1.5-.4 3.1-.5 4.6-.1 1.5 0 2.8.3 3.9.1.3 0 .6-.2.8-.2.2-.4.4-.6.4-.2.1-.5.1-.7 0-.2-.1-.3-.2-.3-.5zM3228.2 12283.6c.1-.4.2-1.1.4-2 .2-.9.4-1.9.6-3s.5-2.3.8-3.5c.3-1.2.5-2.5.8-3.6.2-1.2.5-2.3.7-3.2.2-1 .4-1.8.5-2.4.1-.3.2-.6.5-.7.2-.1.5-.2.7-.1.2.1.4.2.6.4.1.2.2.5.1.9-.2.8-.4 1.5-.6 2.2-.2.7-.3 1.4-.5 2.1-.1.7-.3 1.4-.5 2.2-.2.8-.3 1.7-.5 2.8-.2 1-.4 2.3-.7 3.6-.3 1.4-.6 3-.9 4.8-.1.2-.2.4-.4.5-.2.1-.5.2-.7.1-.2 0-.5-.1-.6-.3-.3-.2-.3-.5-.3-.8zm5.1-21.9c-.2-.3-.3-.5-.2-.8.1-.3.2-.5.4-.6.2-.2.4-.2.7-.3.3 0 .5.1.7.3.2.3.3.5.2.8-.1.3-.2.5-.4.6-.2.2-.5.2-.7.3-.3 0-.5-.1-.7-.3zM3244.2 12289.3c0-.2.1-.6.2-1 .1-.5.2-1 .3-1.7.1-.7.3-1.4.5-2.3.2-.8.4-1.7.5-2.6-.5.4-1.1.8-1.7 1.1-.6.4-1.2.7-1.9 1.1-.7.3-1.3.6-2 .9-.7.2-1.3.4-1.9.5-1.1.1-2 .1-2.7-.1-.7-.2-1.3-.5-1.6-1-.4-.5-.6-1-.7-1.7s0-1.4.1-2.1c.2-.8.5-1.6.9-2.4.4-.8.9-1.6 1.5-2.4.8-1 1.7-2 2.7-2.9 1.1-.9 2.2-1.6 3.4-2.3 1.2-.6 2.4-1.1 3.5-1.5 1.2-.4 2.2-.5 3.2-.5l1.5-7.1c.1-.3.2-.6.5-.7.2-.1.5-.2.7-.1.2 0 .4.2.6.4.2.2.2.5.1.9-.8 3.2-1.5 6.1-2.1 9-.6 2.8-1.1 5.6-1.6 8.2 0 .2 0 .4-.1.6-.3 1.5-.6 3-.9 4.7-.3 1.6-.6 3.4-1 5.4-.1.2-.2.4-.4.5-.2.1-.5.2-.7.1-.2 0-.5-.1-.6-.3-.3-.1-.3-.3-.3-.7zm-6.2-5.7c.8-.1 1.5-.3 2.2-.6.7-.3 1.4-.6 2.1-1 .7-.4 1.3-.8 2-1.3.6-.5 1.3-.9 2-1.4.3-1.5.7-3.1 1-4.7.3-1.6.6-3.1 1-4.5-.7.1-1.6.3-2.5.6-1 .3-1.9.7-2.9 1.2s-2 1.2-3 1.9c-1 .8-1.8 1.6-2.6 2.6-.7 1-1.3 1.9-1.7 2.8-.4.9-.5 1.8-.5 2.5s.3 1.2.8 1.6 1.1.5 2.1.3zM3263.9 12296.1c-.3.1-.5.1-.8-.1-.2-.1-.4-.3-.5-.5-.1-.2-.1-.5-.1-.7 0-.3.2-.5.5-.7.6-.1 1.4-.4 2.4-.8s2.1-1 3.3-1.7c1.2-.7 2.4-1.4 3.6-2.2 1.2-.8 2.3-1.6 3.3-2.4 1-.8 1.8-1.6 2.4-2.3.6-.7 1-1.4 1-1.9 0-.7-.2-1.2-.5-1.5-.4-.3-.8-.4-1.4-.4-.6 0-1.3.1-2.1.3-.8.2-1.7.5-2.6.8-.9.3-1.8.7-2.8 1.1-1 .4-1.9.7-2.8 1-1.7.6-3.1.9-4.1.8-1 0-1.8-.3-2.2-.9-.4-.6-.6-1.4-.5-2.4.1-1 .5-2.2 1-3.6.5-1.2 1.1-2.4 1.9-3.5s1.6-2.3 2.6-3.3c.9-1 1.9-2 3-2.8 1.1-.8 2.1-1.5 3.1-1.9 1-.5 2-.7 3-.8 1 0 1.8.2 2.6.7.3.2.4.4.5.6.1.2 0 .4 0 .6-.1.2-.2.3-.5.4-.2.1-.5 0-.8-.1-.7-.4-1.5-.5-2.4-.3-.9.2-1.7.5-2.6 1-.9.5-1.8 1.1-2.7 1.9-.9.8-1.7 1.6-2.5 2.6-.8.9-1.5 1.9-2.2 2.8-.6 1-1.2 1.9-1.6 2.8-.9 2-1.1 3.4-.5 4 .6.7 2 .6 4.4-.3.9-.3 2-.7 3-1.1 1.1-.4 2.1-.8 3.2-1.1 1.1-.3 2.1-.6 3.1-.8s1.8-.2 2.6-.2c.8.1 1.4.4 1.9.8s.8 1.1.8 2.1c.1 1-.2 2-.8 2.9-.6 1-1.4 1.9-2.5 2.8-1 .9-2.2 1.8-3.5 2.6-1.3.8-2.6 1.6-3.8 2.3-1.3.7-2.5 1.4-3.6 1.9-1.2.6-2.1 1.1-2.8 1.5zM3287.6 12296.1c-.9 0-1.6-.2-2.3-.5-.6-.3-1.1-.8-1.5-1.3-.4-.5-.7-1.2-.9-1.9-.2-.7-.3-1.5-.3-2.3 0-.8 0-1.6.1-2.5.1-.8.3-1.6.5-2.4h-.8c-.2 0-.4-.1-.5-.3-.1-.2-.2-.4-.2-.6 0-.2.1-.4.2-.6.1-.2.4-.3.7-.3l1-.1c.4-.8.9-1.5 1.4-2.2.5-.7 1.2-1.4 1.8-2 .7-.6 1.4-1 2.2-1.3.8-.3 1.7-.4 2.6-.4 1.5.1 2.6.5 3.4 1.2.8.7 1.5 1.6 1.9 2.6.1.3.3.7.3 1 .1.3.1.7 0 1s-.2.5-.4.7c-.2.2-.5.3-.9.3l-10.9.8c-.2.5-.4 1.1-.5 1.7-.1.6-.2 1.3-.3 2v2c.1.7.2 1.3.5 1.8s.6 1 1 1.3c.4.3 1 .5 1.7.5.5 0 1.1 0 1.7-.2.6-.2 1.2-.4 1.8-.7.6-.3 1.2-.6 1.8-1s1.1-.7 1.6-1.1c.3-.2.5-.3.8-.2.2.1.4.2.5.4.1.2.1.4.1.7 0 .3-.1.5-.3.6-.5.4-1.1.8-1.8 1.2-.7.4-1.3.8-2 1-.7.3-1.4.5-2.1.7-.6.3-1.3.4-1.9.4zm3.8-17.1c-.5 0-1 .1-1.6.3-.6.2-1.1.6-1.6 1s-1 .8-1.4 1.3c-.4.5-.7 1-.9 1.4l9.6-.7c0-.2-.1-.5-.2-.8-.1-.4-.3-.7-.7-1.1-.3-.4-.7-.7-1.3-1-.5-.3-1.1-.4-1.9-.4zM3310.4 12303.7c-.2-1.1-.2-2.2-.2-3.3 0-1.2.1-2.4.2-3.6.1-1.2.3-2.4.5-3.6s.4-2.4.7-3.5c-.5.6-1.1 1.3-1.7 2.1-.6.7-1.1 1.5-1.8 2.2-.6.7-1.3 1.4-2 2.1-.7.7-1.6 1.3-2.5 1.8-.9.5-1.7.9-2.4 1.1-.7.2-1.3.3-1.9.3-.5 0-1-.2-1.3-.4-.4-.3-.6-.6-.9-1-.3-.5-.4-1.2-.3-2 0-.9.2-1.8.5-2.8s.8-2.1 1.3-3.1c.6-1.1 1.3-2 2.1-2.9 1.2-1.2 2.4-2.2 3.7-3 1.3-.8 2.5-1.3 3.8-1.7s2.4-.6 3.5-.6 2.1.1 2.9.4c.2.1.4.2.5.4s.2.4.2.6c0 .2-.1.4-.2.5-.1.1-.3.2-.6.1-1.4-.2-2.8-.3-4-.1-1.3.2-2.5.5-3.6 1s-2.2 1.2-3.1 2c-1 .8-1.9 1.7-2.7 2.6-.6.7-1 1.4-1.4 2.2-.4.8-.7 1.5-.9 2.3-.2.7-.3 1.4-.3 2 0 .6.1 1 .3 1.2.3.3.8.4 1.5.3.7-.1 1.6-.6 2.8-1.4 1.5-1 2.7-2.1 3.8-3.3 1.1-1.1 2-2.2 2.7-3.2.8-1 1.4-2 2-2.8.5-.9 1-1.6 1.5-2.1.2-.2.4-.3.6-.3.2 0 .4.1.6.2.2.2.3.4.4.7.1.3 0 .7-.1 1.1-.4 1.1-.8 2.3-1.2 3.8-.4 1.5-.7 3-1 4.5-.3 1.5-.4 3.1-.5 4.6-.1 1.5 0 2.8.3 3.9.1.3 0 .6-.2.8-.2.2-.4.4-.6.4-.2.1-.5.1-.7 0-.2-.1-.3-.2-.3-.5zM3314.8 12302.1c.1-.4.2-1.1.3-2 .2-.9.3-1.9.5-3s.4-2.3.7-3.6c.2-1.3.5-2.5.7-3.7.2-1.2.4-2.3.6-3.3.2-1 .3-1.8.4-2.5.1-.3.2-.6.4-.7s.5-.2.7-.1c.2 0 .4.2.6.4s.2.5.1.9c-.1.3-.1.6-.2 1s-.2.8-.2 1.1c-.1.4-.2.8-.2 1.1-.1.3-.1.6-.2.8.6-.7 1.2-1.3 1.9-1.7.7-.5 1.4-.9 2.1-1.1.7-.3 1.5-.4 2.3-.5.8-.1 1.5 0 2.3.1.8.1 1.5.4 2.1.9.7.5 1.2 1.2 1.6 2.1.1.3.2.6 0 .7-.1.2-.3.3-.5.4-.2.1-.4.1-.6 0-.2-.1-.4-.2-.4-.4-.2-.6-.6-1.1-1-1.4-.4-.3-1-.6-1.6-.6-.8-.1-1.7-.1-2.7.2s-1.9.7-2.8 1.3c-.9.6-1.7 1.3-2.3 2.2-.7.9-1.1 1.9-1.3 3.1-.2.9-.4 2.1-.6 3.6-.3 1.5-.5 3.2-.8 5.2 0 .2-.2.4-.4.6-.2.1-.4.2-.7.2-.2 0-.4-.1-.6-.3-.1-.5-.2-.7-.2-1zM3332.8 12305.4c-1.1.1-2 .1-2.7-.1s-1.2-.6-1.6-1c-.4-.5-.6-1-.7-1.7-.1-.7-.1-1.4.1-2.2.1-.8.3-1.6.7-2.4.3-.8.7-1.6 1.1-2.4.5-.9 1.1-1.8 1.9-2.8.8-1 1.6-1.9 2.6-2.7.9-.8 1.9-1.5 2.9-2s2-.7 2.9-.6c.3 0 .5.1.8.2.3.1.6.3.9.5.3.2.5.5.8.8.2.3.4.8.5 1.3 0 .2 0 .4-.1.6-.1.2-.3.3-.5.4-.2.1-.4.1-.5.1-.2 0-.3-.2-.3-.4-.1-.6-.3-1-.6-1.3-.3-.3-.7-.5-1.1-.5-.6 0-1.3.1-2.1.4s-1.5.8-2.3 1.4c-.8.6-1.5 1.4-2.3 2.3-.7.9-1.4 1.9-2.1 3-.6 1-1.1 2.1-1.4 3-.3 1-.4 1.8-.3 2.6.1.7.4 1.3.9 1.6.5.4 1.2.5 2.2.3.9-.2 1.7-.4 2.6-.7.8-.3 1.6-.6 2.4-1 .8-.4 1.5-.8 2.3-1.2.8-.4 1.5-.9 2.3-1.3.3-.1.5 0 .6.1.1.1.1.3.1.6 0 .2-.1.5-.3.7-.1.2-.3.4-.5.5-.7.4-1.4.8-2.2 1.2-.7.4-1.5.8-2.3 1.2-.8.4-1.6.7-2.4 1-.6.2-1.5.3-2.3.5zM3343.2 12307.9c.1-.3.2-.9.3-1.7.2-.8.4-1.8.6-2.9.2-1.1.5-2.3.8-3.7.3-1.3.6-2.7.9-4.1l.9-4.2c.3-1.4.6-2.6.8-3.8.3-1.2.5-2.2.7-3.1.2-.9.3-1.6.4-2.1.1-.3.2-.6.5-.7.2-.1.5-.2.7-.1.2 0 .4.2.6.4.2.2.2.5.1.9-.1.2-.1.6-.3 1.2-.1.6-.3 1.3-.5 2.2-.2.8-.4 1.7-.6 2.6-.2.9-.4 1.8-.6 2.6s-.3 1.5-.4 2.1-.2.9-.2 1.1c.4-.3 1-.7 1.6-1.1s1.3-.8 2-1.2c.7-.4 1.4-.7 2.1-.9.7-.2 1.3-.3 1.9-.3.8.1 1.4.3 1.8.8.4.5.7 1.1.9 1.9.2.8.3 1.6.2 2.6 0 1-.1 2-.3 3.1s-.4 2.2-.6 3.2c-.2 1.1-.5 2.1-.7 3.1s-.5 1.8-.7 2.6c-.2.8-.4 1.4-.5 1.8-.1.3-.2.5-.4.6-.2.1-.5.2-.7.1-.2 0-.4-.1-.6-.3-.2-.2-.2-.4-.1-.8.2-.8.5-1.8.8-2.9.3-1.2.6-2.4 1-3.6.3-1.3.6-2.5.8-3.7.2-1.2.3-2.3.3-3.3s-.2-1.8-.5-2.4c-.3-.6-.8-.9-1.5-.9-.5 0-1.1.2-1.8.5s-1.4.7-2.1 1.2c-.7.4-1.4.9-2 1.4s-1.2.9-1.6 1.2c-.2.9-.4 1.7-.5 2.2-.1.5-.2 1-.3 1.4-.1.4-.2.7-.3 1.1-.1.3-.2.7-.3 1.2-.1.5-.2 1.1-.4 1.9-.1.8-.3 1.8-.6 3.1-.1.2-.2.4-.4.5-.2.1-.4.2-.7.1-.2 0-.4-.1-.6-.3.1 0 0-.3.1-.6z" class="st11"></path></g><g class="st10"><path d="M3739 12157.3c-1.4.3-2.6.4-3.5.1-1-.2-1.8-.7-2.4-1.4-.6-.7-1.1-1.5-1.4-2.6-.3-1-.5-2.2-.5-3.4 0-1.2.1-2.5.3-3.8.2-1.3.5-2.6.9-3.9.3-.9.7-1.9 1.2-3s1.1-2.2 1.7-3.3c.7-1.1 1.4-2.1 2.1-3.1.8-1 1.6-1.9 2.5-2.7.9-.8 1.8-1.4 2.7-1.9.9-.5 1.9-.7 2.8-.7.4 0 .8.1 1.3.2s1 .3 1.5.6 1 .7 1.4 1.2c.5.5.8 1.1 1.1 1.9.1.3.1.6 0 .9-.1.3-.3.4-.5.5-.2.1-.5.1-.7 0-.2-.1-.4-.3-.5-.5-.2-.6-.4-1.1-.7-1.5-.3-.4-.6-.7-1-.9-.3-.2-.7-.4-1.1-.4-.4-.1-.7-.1-1-.1-1 .1-2 .5-3.1 1.2s-2.1 1.7-3.1 2.9-2 2.6-2.8 4.2c-.9 1.6-1.6 3.3-2.2 5.1-.4 1.2-.7 2.3-.9 3.4-.2 1.1-.3 2.2-.3 3.2s.1 1.9.3 2.7c.2.8.5 1.5 1 2 .4.5 1 .9 1.7 1.2.7.2 1.5.3 2.5.1 1.3-.2 2.6-.6 3.8-1.2 1.2-.6 2.3-1.2 3.4-2 1.1-.7 2.1-1.5 3.1-2.4s2-1.7 2.9-2.5c.2-.2.4-.2.6-.1.2.1.4.2.5.4.1.2.2.4.2.6 0 .2-.1.5-.4.7-1 .9-2.1 1.8-3.2 2.7-1.1.9-2.3 1.7-3.4 2.4-1.2.7-2.3 1.4-3.5 1.9-1.1.6-2.3 1-3.3 1.3zM3756.2 12159.6c0-.3.1-.8.2-1.6s.2-1.8.3-2.9c.1-1.1.2-2.3.4-3.6.1-1.3.2-2.5.3-3.7-.4 0-.7 0-1-.2-.3-.2-.5-.3-.6-.5-.1-.2-.1-.4.1-.7.2-.2.5-.4 1-.5.1 0 .2-.1.3-.1.1 0 .2 0 .3-.1.1-1.2.2-2.5.3-3.7.1-1.3.2-2.5.3-3.7.1-1.2.2-2.3.3-3.4.1-1.1.2-2 .2-2.8-.1 0-.2.1-.3.1-.1 0-.2 0-.3.1-.3.1-.6.1-.8-.1-.2-.1-.3-.3-.3-.5s0-.5.1-.7c.1-.2.3-.4.6-.6.2 0 .3-.1.5-.1s.4-.1.5-.1v-.4c0-.1 0-.2.1-.3 0-.3.1-.6.3-.8.2-.2.4-.2.6-.2.2 0 .4.1.6.3.2.2.2.5.2.9l-.1.4c1.8-.2 3.5-.3 5-.3s2.8 0 3.9.2c1.6.3 2.8.7 3.6 1.3.8.6 1.2 1.4 1.3 2.3.1.9-.1 1.8-.7 2.9s-1.3 2.1-2.2 3.1c-.7.7-1.5 1.5-2.5 2.2-.9.7-1.9 1.4-2.9 2.1s-2 1.2-3 1.8l-2.8 1.4c1.5.7 2.9 1.5 4.2 2.6 1.4 1 2.6 2.1 3.8 3.2 1.1 1.1 2.1 2.2 3 3.2s1.5 2 1.9 2.7c.2.3.2.6.2.9-.1.3-.2.5-.3.6-.2.1-.4.2-.7.2-.3 0-.5-.2-.8-.6-.7-1.1-1.5-2.1-2.4-3.3-.9-1.1-1.8-2.2-2.9-3.2s-2.2-2-3.4-2.9c-1.2-.9-2.5-1.5-3.9-2.1-.1.8-.1 1.7-.2 2.7-.1 1-.2 2-.2 3-.1 1-.2 2-.3 3.1s-.2 2-.3 2.9c0 .3-.1.5-.3.6s-.4.2-.6.2c-.2 0-.4-.1-.6-.2v-1.1zm13.8-21c.7-.8 1.4-1.5 1.8-2.3.5-.8.7-1.4.7-2.1 0-.6-.3-1.2-.8-1.6-.6-.5-1.5-.8-2.8-1-.7-.1-1.3-.1-2.1-.2h-2.2c-.8 0-1.5.1-2.3.2-.8.1-1.5.2-2.1.3-.2 1.2-.3 2.4-.4 3.5l-.3 3.3c-.1 1.1-.2 2.2-.2 3.2-.1 1.1-.1 2.2-.2 3.3 1-.4 2-.8 3-1.3s2-1 2.9-1.6c1-.6 1.9-1.2 2.7-1.8s1.7-1.2 2.3-1.9zM3781.1 12159.8c-1-.2-1.9-.8-2.7-1.7-.8-.9-1.5-2.1-2.1-3.6-.5-1.5-.9-3.2-1-5.2-.1-2 0-4 .5-6.3.4-2 .9-3.8 1.7-5.4.7-1.6 1.6-2.9 2.6-3.9s2.1-1.8 3.3-2.2c1.2-.5 2.4-.6 3.7-.4 1.6.2 2.9.8 4 1.8s1.9 2.3 2.4 3.9.8 3.3.9 5.2c0 1.9-.1 3.9-.5 5.9-.4 2.1-1.1 4-2 5.6-.9 1.6-1.9 2.9-3 3.9s-2.4 1.7-3.7 2.1c-1.5.5-2.8.5-4.1.3zm5.5-26.9c-1-.1-1.9.1-2.9.4s-1.8 1-2.6 1.8c-.8.9-1.5 2-2.1 3.4-.6 1.4-1.1 3-1.4 5-.3 2-.5 3.8-.4 5.5.1 1.7.3 3.2.7 4.4.4 1.3.9 2.3 1.6 3.1s1.5 1.3 2.3 1.5c1.2.3 2.3.2 3.4-.2s2-1.1 2.9-2.1c.9-.9 1.6-2.1 2.3-3.5.6-1.4 1.1-2.9 1.5-4.5.4-1.9.6-3.7.5-5.5 0-1.8-.3-3.3-.7-4.7-.4-1.4-1.1-2.5-1.9-3.3-.9-.7-2-1.2-3.2-1.3z" class="st11"></path></g></g><g id="Group_32672" transform="translate(-400.251 -348.678)"><path id="Path_30002" d="M2377 953.8c.2-4.5.3-9 .3-13.6-.2-1.2-.4-2.4-.7-3.5 1.9-5.6 3.6-11.2 5-16.9 8.8-35.6.7-52.9-10.1-86.9l-7.8-24.5c-.8-2.9-2.9-5.2-5.7-6.3-.1-.5-.3-1-.4-1.5l-.3-1.5c4.1.8 8.1 1.7 12.2 2.5l.3.1c7.2 1.3 17.9-2.3 22-9 2.9-5 5.2-10.3 6.7-15.9h-.4c2.4-8.1 3.1-16.6 2.1-25.1-.8-6.4-6.5-12.5-12.4-15.5-1-.5-2-1-3.1-1.3-.3-.1-.6-.3-.9-.4h-.1c-6.8-1.6-13.6-3.1-20.4-4.7v-.2l-11.7-2.7v.3c-8.8-2-17.6-4.1-26.3-6-13-2.9-25.9-6.1-39-8.9-21.8-4.7-43.7-8.9-65.5-13.2l.1-.3c-3.9-.8-7.8-1.5-11.8-2.3l-.1.2c-6.9-1.4-13.8-2.9-20.8-4.2-7.2-1.4-17.9 2.3-22 9-1.8 3.1-3.4 6.3-4.6 9.6v.1c-1.1 2.9-2 5.9-2.7 8.9-.3 1.3-.5 2.7-.7 4-.3 1.7-.5 3.3-.6 5-.2 1.9-.2 3.8-.2 5.7 0 .5-.1 1.1-.1 1.6h.1c.1 2 0 4 .2 6 .8 6.3 6.3 12.3 12 15.4.7.4 1.4.7 2.2.9.7.4 1.4.7 2.2.9l.3.1c3 .7 6.1 1.3 9.1 2.1-.2.2-.4.5-.6.8-.5.7-1.1 1.2-1.6 1.9-2.7.1-5.2 1.3-7 3.3l-17.2 19.1c-23.9 26.5-38.4 38.9-45 75-1.1 6.3-1.9 12.6-2.5 19-.3.6-.8.9-1.1 1.5-1.9 4.1-3.7 8.3-5.4 12.4-3.2-.7-6.4 1.4-7.1 4.6-.5 2.6.7 5.3 3.1 6.5-2.1 6.4-3.9 12.9-5.4 19.4-.8 3.5-1.6 7-2.1 10.5-.1.5-.1 1-.2 1.5v.1c-.1 1-.1 2.1 0 3.1s.3 2 .6 3v.1l-.1-.2.3.9.2.6c.1.5.3.9.5 1.4.1.3.4.5.5.8.8 1.8 1.9 3.4 3.2 4.9l.6.6c1.3 1.4 2.8 2.7 4.5 3.8.4.3.7.6 1.1.8 2 1.2 4 2.3 6.2 3.1.4.2.9.3 1.4.5 1.1.4 2.3.8 3.5 1.1-.5 3-1.2 6-1.7 9-.1.5-.1.9-.2 1.4-.2 1.1-.5 2.2-.6 3.4 0 .2-.1.4-.1.6l.3.2c-.7 7.5-.1 15.1 1.8 22.3.8 3.1 1.8 6.2 3 9.1l-.9-.2c-8.6-1.6-22 2.5-27.5 10.5-2.5 3.8-4.6 7.8-6.3 12.1l-.1.2c-1.5 3.6-2.7 7.4-3.6 11.2-.4 1.7-.6 3.4-.9 5.1-.3 2.1-.6 4.2-.8 6.4-.2 2.4-.2 4.8-.1 7.2 0 .7-.1 1.3 0 2l.2.1c.1 2.6.2 5.2.6 7.8 1.4 7.8 8.6 15.3 15.9 19l.5.3c1.4.7 2.8 1.2 4.3 1.6 2.4.6 4.8 1.1 7.2 1.7h.1c1.1.2 2.3.2 3.4 0 .2 0 .3-.1.5-.2.9-.3 1.8-.7 2.5-1.3.1-.1.3-.2.4-.3.2-.2.4-.3.6-.5 4.2 1 8.3 2 12.5 2.9 1.2 2.6 3.6 4.5 6.4 5.1h.1c17.9 3.6 35.6 7.7 53.5 11.5 26.7 5.7 53.5 11.2 80.2 17.3h.1c2.8.6 5.7-.2 7.9-2 4.2.8 8.4 1.7 12.7 2.5.8 2.6 3 4.6 5.7 5.2h.1l.5.1c2.2.4 4.4.8 6.6 1.3h.1c8.6 1.6 22-2.5 27.4-10.5 2.2-3.4 4.1-6.9 5.6-10.6l1.2-2.7c.1-.3.3-.6.4-.9h-.1c4.7-12 6.1-25.1 4-37.8-1.7-9.6-12.2-18.8-20.7-20.9H2316.2c5.1-4.7 9.5-10.1 13-16.1 1.9-3.3 3.5-6.8 4.7-10.4v-.1h.3l.1-.6c.3-1 .5-2 .7-3 .2-.5.4-1 .5-1.6.8-2.9 1.4-5.9 2.2-8.9 13.5 2.5 25.5-.6 30.9-10.2.5-.9 1-1.9 1.3-2.9.2-.5.3-.9.5-1.5 2.6-10 4.4-20.1 5.4-30.3 2.7-.1 4.9-2 5.5-4.6 1-3.2-1.1-6.4-4.3-7.1zm-20.9-48.7c1.3-13.8 2.3-27.7 3-41.7 1.4 5.2 2 11.1 1 19.9-1 7.3-2.3 14.6-4 21.8zm-209.5-67.9c1.6-5.6 4.2-10.9 7.6-15.7-4.3 10.8-8.3 21.7-12.1 32.6 1.3-5.7 2.7-11.3 4.5-16.9z" style="opacity:.35;fill:#2b124c;enable-background:new"></path><g id="Group_32671" transform="translate(400.251 348.678)"><g id="Group_32637" transform="translate(32.739 72.097)"><g id="Group_32635" transform="translate(212.859 37.349)"><path id="Path_30003" d="m1718 363.7-7.8-24.5c-.8-2.9-3-5.2-5.8-6.4-7.6-2.8-15.2 5.7-13.1 14.5l4.3 18.1c5.3 22.3 13.8 25.5 11 48.5-2.5 21.3-8.4 42.1-17.4 61.6l-19.4 28.2c-3.6 7.7-1.9 16.9 3.9 21.7 7.5 6.2 18.6 2.6 22.9-7.5l21.2-36.6c4.2-10 7.7-20.3 10.2-30.8 9-35.5.9-52.9-10-86.8z" class="st13"></path><path id="Path_30004" d="M1721.2 416.4c4.4-20.3-.3-19.7.9-37.4-1.2-5.2-2.5-10.3-4.1-15.4l-7.8-24.5c-.8-2.9-3-5.2-5.8-6.4-7.6-2.8-15.2 5.7-13.1 14.5l4.3 18.1c5.3 22.3 13.8 25.5 11 48.5-2.5 21.3-8.4 42.1-17.4 61.6l-19.3 28.2c-1.9 4.2-2.3 8.9-1.1 13.4 19.5-12.6 39.6-41.4 52.4-100.6z" class="st13"></path></g><g id="Group_32636"><path id="Path_30005" d="m1716.4 354.8 17.2-19.1c1.9-2.3 4.9-3.6 7.9-3.4 8 .6 11.5 11.4 6 18.6l-11.4 14.7c-14 18.1-23 17.5-30 39.6-6.5 20.5-9.7 41.8-9.5 63.3l6 33.6c.1 8.5-5.2 16.2-12.5 18.2-9.4 2.6-18-5.2-17.8-16.2L1668 462c.3-10.8 1.4-21.7 3.4-32.3 6.6-36 21.1-48.4 45-74.9z" class="st13"></path><path id="Path_30006" d="M1691.8 401.6c4.4-20.3 8.4-17.8 14.5-34.5 3.2-4.2 6.5-8.4 10.1-12.3l17.2-19.1c1.9-2.3 4.9-3.6 7.9-3.4 8 .6 11.5 11.4 6 18.6l-11.4 14.7c-14 18.1-23 17.5-30 39.6-6.5 20.5-9.7 41.8-9.5 63.3l6 33.6c0 4.6-1.6 9.1-4.5 12.6-12.6-19.4-19.1-54-6.3-113.1z" class="st13"></path></g></g><g id="Group_32640" transform="translate(15.415 177.032)"><g id="Group_32638"><path id="Path_30007" d="M1736.4 356.4c-.2-5.6-2.5-11-6.4-15.1-.3 2.1-.4 4.1-.8 6.3-7.4 34.3-33.7 57.9-60.7 56.6 0 .8.1 1.6.2 2.4l-.1-.2c.2 1 .6 2 1 2.9 3.7 8.5 13 14.3 25.1 16.7 14.5 3.4 27.7.4 33.4-9.7.5-.9 1-1.9 1.3-2.9.2-.5.3-.9.5-1.5 4.6-18 6.9-36.7 6.5-55.5z" class="st14"></path><path id="Path_30008" d="M1729.1 347.6c.5-2.1.5-4.2.8-6.3-2.7-3-6.2-5.2-10-6.5-3.6-1.2-7.3-2-11.1-2.4-9.9-1.2-19.5 4-23.8 12.9-8 17-13.7 34.9-16.9 53.4-.1.5-.1 1-.2 1.5 0 1.3.1 2.6.4 3.9 27.2 1.4 53.4-22.2 60.8-56.5z" class="st14"></path></g><g id="Group_32639" transform="translate(217.567 46.891)"><path id="Path_30010" d="M1736.5 356.4c-.3-10-6.9-18.6-16.4-21.6-3.6-1.2-7.3-2-11-2.4-9.9-1.2-19.5 4-23.8 12.9-8 17-13.7 34.9-16.9 53.4-.1.5-.1 1-.2 1.5-.2 2.1 0 4.3.6 6.3l-.1-.2c.2 1 .6 2 1 2.9 3.7 8.5 13 14.3 25.1 16.7 14.5 3.4 27.7.4 33.4-9.7.5-.9 1-1.9 1.3-2.9.2-.5.3-.9.5-1.5 4.6-17.9 6.8-36.6 6.5-55.4z" class="st14"></path><path id="Path_30011" d="M1723.8 367.1c2.1-9.9 2.4-20 .9-30-1.5-.9-3-1.7-4.6-2.3-3.6-1.2-7.3-2-11-2.4-9.9-1.2-19.5 4-23.8 12.9-8 17-13.7 34.9-16.9 53.4-.1.5-.1 1-.2 1.5-.2 2.1 0 4.3.6 6.3l-.1-.2c.2 1 .6 2 1 2.9 1.7 3.7 4.4 6.9 7.8 9.2 20.2-.8 40-22 46.3-51.3z" style="opacity:.27;fill:#f4bd27;enable-background:new"></path></g></g><g id="Group_32642" transform="translate(232.992 223.924)"><g id="Group_35169"><defs><path id="SVGID_00000096031430257466771120000004521331513523031939_" d="M1736.5 356.4c-.3-10-6.9-18.6-16.4-21.6-3.6-1.2-7.3-2-11-2.4-9.9-1.2-19.5 4-23.8 12.9-8 17-13.7 34.9-16.9 53.4-.1.5-.1 1-.2 1.5-.2 2.1 0 4.3.6 6.3l-.1-.2c.2 1 .6 2 1 2.9 3.7 8.5 13 14.3 25.1 16.7 14.5 3.4 27.7.4 33.4-9.7.5-.9 1-1.9 1.3-2.9.2-.5.3-.9.5-1.5 4.6-17.9 6.8-36.6 6.5-55.4z"></path></defs><clipPath id="SVGID_00000064328780661678343350000018008966617582520461_"><use xlink:href="#SVGID_00000096031430257466771120000004521331513523031939_" style="overflow:visible"></use></clipPath><g id="Group_35168" style="clip-path:url(#SVGID_00000064328780661678343350000018008966617582520461_)"><path id="Path_34932" d="m1736.2 370-13.8-3c.6-.1 1.3-.1 1.9 0l3.9.8c.3.1.5.3.7.5l2 .4c0-.8-.5-1.6-1.4-1.8l-6.1-1.3c-1.2-.3-2.6 0-3.6.8L1579 336.1c-.3-.1-.6-.1-.9-.1l.5-2.2-7.2-1.5-3.4 15.9 7.2 1.5.5-2.2c.3.1.6.2.8.3l140.8 30.3c.6 1.1 1.7 1.9 2.9 2.1l6.1 1.3c.8.2 1.7-.3 2-1.1l5.3 1.1c3.2.7 6.4-1.4 7.1-4.6.8-3-1.3-6.2-4.5-6.9zm-10.7 10.3-3.9-.8c-.6-.1-1.1-.4-1.6-.7l6.4 1.4c-.3.1-.6.1-.9.1z" class="st17"></path></g></g></g><g id="Group_32644" transform="translate(15.359 177.036)"><g id="Group_35171"><defs><path id="SVGID_00000082342893226588617940000004033359891705869751_" d="M1685.1 345.4c4.4-8.9 14-14.1 23.8-12.9 3.8.4 7.5 1.2 11.1 2.4 9.5 3 16.1 11.6 16.4 21.6.4 18.8-1.9 37.5-6.6 55.7-.1.5-.3 1-.5 1.5-.7 2-1.8 3.9-3.2 5.5l.2-.1c-.6.8-1.3 1.6-2.1 2.3-6.8 6.2-17.8 7.7-29.7 4.9-14.6-2.9-25.4-11-26.5-22.6-.1-1.1-.1-2.1 0-3.2 0-.5.1-1 .2-1.5 3.2-18.7 8.9-36.7 16.9-53.6z"></path></defs><clipPath id="SVGID_00000064334679213409790590000004470731614686880668_"><use xlink:href="#SVGID_00000082342893226588617940000004033359891705869751_" style="overflow:visible"></use></clipPath><g id="Group_35170" style="clip-path:url(#SVGID_00000064334679213409790590000004470731614686880668_)"><path id="Path_34934" d="m1838.2 389.8-.5 2.2-.9-.3-140.8-30.3c-.6-1.1-1.7-1.9-2.9-2.2l-6.1-1.3c-.8-.1-1.6.3-2 1.1l1.9.4c.3-.1.6-.2.9-.2l3.9.8c.6.1 1.2.4 1.7.8l-13.8-3c-3.3-.7-6.4 1.4-7.1 4.7-.7 3.2 1.4 6.4 4.6 7.1l5.3 1.1c0 .8.5 1.6 1.4 1.8l6.1 1.3c1.2.3 2.5 0 3.5-.7l140.8 30.3c.3.1.6.1.9.1l-.5 2.2 7.2 1.5 3.4-15.9-7-1.5zm-149-17.3-3.9-.8c-.3-.1-.5-.3-.7-.5l6.4 1.4c-.6 0-1.2 0-1.8-.1z" class="st17"></path></g></g></g><g id="Group_32645" transform="translate(116.961 223.581)"><path id="Path_30042" d="M1677 332.5c0 1.6-.1 3.1-.1 4.7.7 13.5 9.1 22.6 20 26.4 4.4 1.5 8.9 2.5 13.5 2.9 11.5 1.1 22.9-3.7 29.1-15.8l1.7-4c-19.7-10.6-41.9-15.6-64.2-14.2z" style="fill:#ce5f00"></path><path id="Path_30043" d="M1686.5 338.9c.6-1.1 1.4-2.1 2.2-3.1 16.4 7.6 34.4 11.3 52.5 10.8 3.8 18.6.3 46.7-6.3 64.4-5.5 14.6-19.9 18.2-34.3 16-15.2-2.3-33.3-10.8-32.5-28.7.8-19.6 10.1-41.7 18.4-59.4.6-1.2-8.8 18.9 0 0z" style="fill:#e66b00"></path><path id="Path_30044" d="M1741.2 346.7h-2.2c.7 17.1-2.5 37.3-7.7 51.2-3.3 8.8-9.8 13.5-17.7 15.4 5.2-22.2 9.2-44.7 12.2-67.5-12.8-1.3-25.4-4.7-37.1-10.1-.8 1-1.5 2-2.2 3.1.2-.4-.5 1.1-1.3 2.8-7.9 17.1-16.3 37.9-17.1 56.6v.1c-.8 17.9 17.3 26.4 32.5 28.7 3.2.5 6.4.7 9.6.5 10.9-.5 20.5-5.1 24.8-16.5 6.5-17.6 10-45.7 6.2-64.3z" style="opacity:.5;fill:#ce5f00;enable-background:new"></path></g><g id="Group_32646" transform="translate(35.276 284.399)"><path id="Path_30045" d="M1668.3 332.3c-1.1 11.3.8 22.7 5.3 33 13.3 30.9 47.3 51.9 91 60.7 52.8 12.2 100.5 1.5 121.5-35.2 1.9-3.4 3.5-6.9 4.8-10.5-79.4 8.3-153.6-7.7-222.6-48z" class="st13"></path><path id="Path_30046" d="M1851.9 382.1c-22 23.9-60.5 30-102.5 20.3-36.2-7.3-65-23.8-79.2-47.8.9 3.6 2.1 7.2 3.5 10.7 13.3 30.9 47.3 51.9 91 60.7 52.8 12.2 100.5 1.5 121.5-35.2 1.9-3.4 3.5-6.9 4.8-10.5-13 1.2-26.1 1.9-39.1 1.8z" style="opacity:.5;fill:#2b124c;enable-background:new"></path></g><path id="Path_30047" d="M1928 659.3c17.2-64.9 25-132.4 24-202.2-2-40.2-27.1-67.4-59.6-78.4-13-4.4-26.5-7.3-40.2-8.7-34.2-3.3-68.2 11.1-86.6 46.9-29.6 63.2-50.4 128-61.5 194.1-.3 1.9-.4 3.7-.6 5.6 69 40.3 143.2 56.3 222.6 48 .7-1.7 1.4-3.4 1.9-5.3z" class="st13"></path><g id="Group_32651" transform="translate(0 315.41)"><path id="Path_30048" d="M1875.1 368.4c-44.7-9.1-89.3-18.7-133.8-28.8-3.8-.8-7.8.9-9.8 4.3-13.1 21.5-18.5 46.8-15.4 71.7.5 3.9 3.4 7 7.2 7.9 44.7 9.1 89.3 18.7 133.8 28.8 3.8.8 7.8-.9 9.8-4.3 13.1-21.5 18.5-46.8 15.4-71.7-.5-3.8-3.4-7-7.2-7.9z" class="st4"></path><path id="Path_30049" d="M1720.4 345.5c2-3.9.5-8.8-3.5-10.8-.6-.3-1.3-.6-2-.7-2.4-.5-4.8-.9-7.2-1.4-8.6-1.6-22 2.5-27.4 10.5-10.3 15.3-14.3 33.9-11.2 52 1.7 9.6 12.2 18.8 20.7 20.9 2.4.6 4.8 1.2 7.2 1.7 4.3.9 8.6-1.8 9.6-6.1.2-.7.2-1.4.2-2.1-.6-22.1 4.1-44 13.6-64z" class="st4"></path><path id="Path_30050" d="M1929.4 396.8c-1.7-9.6-12.2-18.8-20.7-20.9-2.4-.6-4.8-1.2-7.2-1.7-4.3-.9-8.6 1.8-9.6 6.1-.2.7-.2 1.4-.2 2.1.4 22.1-4.3 44-13.7 64-2 3.9-.5 8.8 3.5 10.8.6.3 1.3.6 2 .7 2.4.5 4.8.9 7.2 1.4 8.6 1.6 22-2.5 27.4-10.5 10.3-15.2 14.3-33.9 11.3-52z" class="st4"></path><g id="Group_35172" transform="translate(33.851 6.842)"><path id="Path_34936" d="M1852.1 427.3c6.5-18.5 9.4-38 8.4-57.6-4.4-1-8.8-2.1-13.2-3.1 1 19.7-1.9 39.4-8.5 58-1.5.4-2.7 1.5-3.3 2.9-.4 1-.8 1.9-1.1 2.9-.5 1.3-.3 2.7.7 3.7-1.3 3.1-2.8 6.2-4.3 9.2 4.4.9 8.9 1.8 13.3 2.6 2.7-5.3 5.2-10.9 7.3-16.5.1.6.1 1.2-.1 1.7-.2.7-.5 1.3-.8 1.9-.3.6-.6 1.1-1.1 1.5h-.1c-.3.7-.6 1.3-.8 2 .1 0 .1-.1.2-.1 1.3-.5 2.5-1.4 3.1-2.6.4-1 .8-1.9 1.1-2.9.5-1.2.2-2.6-.6-3.5-.1.1-.2 0-.2-.1zm-16 3c.3-.7.5-1.3.8-2 .2-.6.6-1.1 1.1-1.5-.7 1.8-1.4 3.7-2.1 5.5-.2-.7-.1-1.4.2-2z" class="st13"></path><path id="Path_34937" d="M1686.5 332.3c-9 17.4-14.4 36.4-16.1 55.9-.1 0-.2.1-.3.1-1.2.5-1.9 1.7-2 3-.1 1-.1 2.1-.2 3.1.1 1.5.8 2.8 1.9 3.8l.1.1c-.1 3.4 0 6.9.2 10.3 4.4 1 8.8 2.1 13.2 3.1-.2-3.4-.2-6.8-.2-10.2 1.3-.5 2.1-1.7 2.1-3.1 0-1 .1-2.1.2-3.1 0-1.5-.6-3-1.8-4 1.7-19.6 7.2-38.8 16.1-56.3-4.3-1-8.7-1.9-13.2-2.7zm-3 61.3c.3.6.4 1.2.4 1.8 0 .7-.1 1.4-.1 2.1.1.7-.1 1.4-.6 2 .1-2 .2-4 .3-5.9zm-13.5 4.2V396c-.3-.6-.4-1.2-.4-1.8 0-.7.1-1.4.1-2.1 0-.6.3-1.1.6-1.6-.2 2.4-.3 4.9-.3 7.3z" class="st13"></path></g></g><path id="Path_30087" d="M1938.2 577.2c-66.4-28-137.4-43.3-209.4-45.1-3.8-.1-7.2 2.4-8.2 6.1-7.2 25.8-13 51.9-17.2 78.4 69.1 40.5 143.6 56.5 223.3 48.1 7-25.8 12.6-52 16.6-78.5.4-3.9-1.6-7.5-5.1-9z" style="fill:#fcda4b"></path><g id="Group_32656" transform="translate(35.383 199.774)"><g id="Group_35175"><defs><path id="SVGID_00000059294111425685386830000007704774311449469882_" d="m1668 416.1.5 1c68.8 40.1 142.8 56.1 222 47.8l.8-.7c6.9-25.5 12.4-51.4 16.4-77.5.6-4-1.6-7.9-5.3-9.5-66.2-27.8-136.9-43.1-208.7-45-4-.1-7.6 2.6-8.7 6.4-7.1 25.6-12.8 51.4-17 77.5z"></path></defs><clipPath id="SVGID_00000153664337835530920380000001686876975172903845_"><use xlink:href="#SVGID_00000059294111425685386830000007704774311449469882_" style="overflow:visible"></use></clipPath><g id="Group_35174" style="clip-path:url(#SVGID_00000153664337835530920380000001686876975172903845_)"><g id="Group_35173" transform="translate(37.834 -10.027)"><path id="Path_34938" d="m1843.3 366.6-15.9-3.4-1.5 7.2 2.2.5c-.1.3-.2.6-.3.8l-12.5 58.1c-1.1.6-1.8 1.7-2.1 2.9l-1.3 6.1c-.1.8.3 1.6 1.1 2l-1.1 5.3c-.7 3.2 1.4 6.4 4.6 7.1 3.2.7 6.4-1.3 7.1-4.5v-.1l3-13.8c.1.6.1 1.3 0 1.9l-.8 3.9c-.1.3-.3.5-.5.7l-.4 2c.8 0 1.6-.6 1.8-1.4l1.3-6.1c.3-1.3 0-2.6-.8-3.6l12.5-58c.1-.3.1-.6.1-.9l2.2.5 1.3-7.2zm-30.2 71.3.8-3.9c.1-.6.4-1.1.7-1.6l-1.4 6.4c-.1-.3-.1-.6-.1-.9z" class="st17"></path><path id="Path_34939" d="m1682.3 339.5 2.2.5c-.1.3-.2.5-.3.8l-12.5 58.1c-1.1.6-1.9 1.7-2.1 2.9l-1.3 6.1c-.1.8.3 1.6 1.1 2l-1.1 5.3c-.7 3.3 1.4 6.4 4.7 7.1 3.2.7 6.4-1.4 7.1-4.6l3-13.8c.1.6.1 1.3 0 1.9l-.8 3.9c-.1.3-.3.5-.5.7l-.4 2c.8 0 1.6-.6 1.8-1.4l1.3-6.1c.3-1.3 0-2.6-.8-3.6l12.5-58c.1-.3.1-.6.1-.9l2.2.5 1.5-7.2-15.9-3.4-1.8 7.2zm-12.6 68.4c-.1-.3-.2-.6-.1-.9l.8-3.9c.1-.6.4-1.1.7-1.6l-1.4 6.4z" class="st17"></path></g></g></g></g><g id="Group_32657" transform="translate(120.872 233.875)"><path id="Path_30120" d="M1699.1 396.1c-19.6-4.2-34.6-10.2-30.4-29.6l7-32.4c.3-1.3 1.5-2.1 2.8-1.8.2 0 .3.1.5.1 20.5 8.7 42.5 13.4 64.8 14 1.3 0 2.3 1 2.3 2.3 0 .2 0 .3-.1.5-2.3 10.8-4.6 21.6-7 32.4-4.1 19.4-20.3 18.7-39.9 14.5z" class="st0"></path></g><g id="Group_35176" transform="translate(112.961 26.479)"><path id="Path_34941" d="m1823.7 358.6-15.9-3.4-1.5 7.2 2.2.5c-.1.3-.2.6-.3.8l-30.3 140.8c-1.1.6-1.8 1.7-2.1 2.9l-1.3 6.1c-.2.8.3 1.7 1.1 2l.2-.7-1.3 6c-.7 3.3 1.4 6.4 4.7 7.1 3.2.7 6.3-1.4 7.1-4.6l3-13.8c.1.6.1 1.3 0 1.9l-.8 3.9c-.1.3-.3.5-.5.7l-.4 2c.8 0 1.6-.6 1.8-1.4l1.3-6.1c.3-1.3 0-2.6-.8-3.6l30.3-140.8c.1-.3.1-.6.1-.9l2.2.5 1.2-7.1zm-47.9 154.9c-.1-.3-.2-.6-.2-.9l.8-3.9c.1-.6.4-1.1.7-1.6l-1.3 6.4z" class="st0"></path><path id="Path_34942" d="m1700.1 339.5 2.2.5c-.1.3-.2.5-.3.8l-30.3 140.8c-1.1.6-1.8 1.7-2.1 2.9l-1.3 6.1c-.2.8.3 1.6 1.1 2l-1.1 5.3c-.7 3.3 1.4 6.4 4.7 7.1 3.2.7 6.4-1.4 7.1-4.6l3-13.8c.1.6.1 1.3 0 1.9l-.8 3.9c-.1.3-.3.5-.5.7l-.4 1.9c.8 0 1.6-.5 1.8-1.4l1.3-6.1c.3-1.2 0-2.6-.8-3.6l30.3-140.8c.1-.3.1-.6.1-.9l2.2.5 1.6-7.2-15.9-3.4-1.9 7.4zm-30.4 151.1c-.1-.3-.2-.6-.1-.9l.8-3.9c.1-.6.4-1.1.7-1.6l-1.4 6.4z" class="st0"></path></g><g id="Group_32666" transform="translate(81.2)"><path id="Path_30154" d="M1880.3 441.8c-65.5-12.4-130.7-26.4-195.5-42.1-7.1-1.7-15.3-9.4-16.3-17.3-1.8-14.2 1.3-28.6 8.8-40.8 4.1-6.7 14.9-10.4 22-9 65.5 12.4 130.7 26.4 195.5 42.1 7.1 1.7 15.4 9.4 16.4 17.3 1.8 14.2-1.3 28.6-8.8 40.8-4.2 6.7-14.9 10.3-22.1 9z" class="st4"></path><g id="Group_35177" transform="translate(35.525 4.259)"><path id="Path_34943" d="M1831.2 416.9c5.8-16.5 8.4-33.9 7.5-51.4-3.9-.9-7.8-1.9-11.7-2.8.8 17.6-1.7 35.1-7.6 51.7-1.3.4-2.4 1.3-2.9 2.6-.3.9-.7 1.7-1 2.6-.5 1.1-.2 2.4.6 3.3.1-.2.1-.4.2-.5-1.3 3-2.6 5.9-4.1 8.8 3.9.8 7.9 1.6 11.8 2.3 1.4-2.7 2.7-5.5 3.9-8.3h.1c1.2-.4 2.3-1.2 2.9-2.4.4-.9.7-1.7 1-2.6.4-1.1.2-2.3-.5-3.1 0-.1-.1-.2-.2-.2zm-14.1 2.6c.2-.6.5-1.2.7-1.7.2-.5.6-1 1-1.3-.6 1.6-1.2 3.3-1.9 4.9-.2-.7-.1-1.3.2-1.9zm11.6 3.9c-.2.4-.3.8-.5 1.1.8-1.9 1.6-3.8 2.3-5.8.1.5.1 1.1-.1 1.5-.2.6-.5 1.2-.7 1.7-.2.7-.5 1.2-1 1.5z" class="st25"></path><path id="Path_34944" d="M1684.5 332.3c-8 15.5-12.8 32.5-14.3 49.9-.1 0-.2.1-.2.1-1 .5-1.7 1.5-1.8 2.7-.1.9-.1 1.8-.1 2.8.1 1.3.7 2.5 1.6 3.3l.1.1c-.1 3.1 0 6.1.1 9.2l11.7 2.7c-.1-3-.2-6.1-.1-9.1h.1c.1-.1.2-.1.3-.2.9-.5 1.4-1.5 1.5-2.5 0-.9.1-1.9.1-2.8 0-1.4-.5-2.7-1.6-3.6 1.5-17.5 6.4-34.6 14.4-50.3-3.9-.8-7.9-1.6-11.8-2.3zm-2.7 54.6c.2.5.4 1.1.3 1.6 0 .6-.1 1.2-.1 1.9 0 .6-.2 1.3-.5 1.8 0-1.8.1-3.5.3-5.3zm-12.1 3.8v-1.6c-.2-.5-.4-1-.4-1.6 0-.6.1-1.2.1-1.9 0-.5.2-1 .6-1.4-.1 2.2-.2 4.4-.3 6.5z" class="st25"></path></g></g></g></g></g></switch></svg> 