<?xml version="1.0" encoding="UTF-8"?>
<svg id="multi-color" xmlns="http://www.w3.org/2000/svg" xmlns:xlink="http://www.w3.org/1999/xlink" viewBox="0 0 266.67 153.33">
  <defs>
    <style>
      .cls-1 {
        fill: url(#New_Gradient_Swatch_8);
      }

      .cls-1, .cls-2, .cls-3, .cls-4, .cls-5, .cls-6, .cls-7, .cls-8, .cls-9, .cls-10 {
        stroke-width: 0px;
      }

      .cls-2 {
        fill: url(#New_Gradient_Swatch_9);
      }

      .cls-3 {
        fill: url(#New_Gradient_Swatch_1);
      }

      .cls-4 {
        fill: url(#radial-gradient);
      }

      .cls-5 {
        fill: url(#radial-gradient-2);
      }

      .cls-6 {
        fill: url(#radial-gradient-3);
      }

      .cls-7 {
        fill: url(#radial-gradient-4);
      }

      .cls-8 {
        fill: url(#radial-gradient-6);
      }

      .cls-9 {
        fill: url(#radial-gradient-5);
      }

      .cls-11 {
        opacity: .5;
      }
    </style>
    <radialGradient id="New_Gradient_Swatch_9" data-name="New Gradient Swatch 9" cx="2246.27" cy="-2085.31" fx="2246.27" fy="-2085.31" r="75.08" gradientTransform="translate(2233.84 -2175.53) rotate(89.77) scale(1 -1)" gradientUnits="userSpaceOnUse">
      <stop offset="0" stop-color="#16a4de"/>
      <stop offset="0" stop-color="#1aa1da" stop-opacity="1"/>
      <stop offset="0" stop-color="#2698d1" stop-opacity="1"/>
      <stop offset="0" stop-color="#3a8ac1" stop-opacity="1"/>
      <stop offset=".01" stop-color="#5676aa" stop-opacity="1"/>
      <stop offset=".02" stop-color="#7b5c8d" stop-opacity="1"/>
      <stop offset=".02" stop-color="#a73d6b" stop-opacity="1"/>
      <stop offset=".02" stop-color="#b23663" stop-opacity="1"/>
      <stop offset=".2" stop-color="#b33965" stop-opacity=".98"/>
      <stop offset=".34" stop-color="#b7446d" stop-opacity=".93"/>
      <stop offset=".46" stop-color="#be567b" stop-opacity=".84"/>
      <stop offset=".57" stop-color="#c86f8f" stop-opacity=".71"/>
      <stop offset=".68" stop-color="#d490a9" stop-opacity=".55"/>
      <stop offset=".78" stop-color="#e4b9c8" stop-opacity=".35"/>
      <stop offset=".87" stop-color="#f6e8ed" stop-opacity=".11"/>
      <stop offset=".91" stop-color="#fff" stop-opacity="0"/>
    </radialGradient>
    <radialGradient id="New_Gradient_Swatch_8" data-name="New Gradient Swatch 8" cx="2246.27" cy="-2087.12" fx="2246.27" fy="-2087.12" r="56.79" gradientTransform="translate(2233.84 -2175.53) rotate(89.77) scale(1 -1)" gradientUnits="userSpaceOnUse">
      <stop offset="0" stop-color="#16a4de"/>
      <stop offset=".12" stop-color="#1aa5de" stop-opacity=".98"/>
      <stop offset=".23" stop-color="#27aae0" stop-opacity=".93"/>
      <stop offset=".35" stop-color="#3cb2e3" stop-opacity=".84"/>
      <stop offset=".47" stop-color="#5abee7" stop-opacity=".71"/>
      <stop offset=".59" stop-color="#80cded" stop-opacity=".54"/>
      <stop offset=".71" stop-color="#afe0f3" stop-opacity=".34"/>
      <stop offset=".83" stop-color="#e6f5fb" stop-opacity=".11"/>
      <stop offset=".88" stop-color="#fff" stop-opacity="0"/>
    </radialGradient>
    <radialGradient id="radial-gradient" cx="170.52" cy="71.74" fx="170.52" fy="71.74" r="69.26" gradientUnits="userSpaceOnUse">
      <stop offset=".6" stop-color="aqua"/>
      <stop offset=".64" stop-color="#04ffff" stop-opacity=".98"/>
      <stop offset=".68" stop-color="#10ffff" stop-opacity=".94"/>
      <stop offset=".73" stop-color="#24ffff" stop-opacity=".86"/>
      <stop offset=".77" stop-color="#41ffff" stop-opacity=".75"/>
      <stop offset=".81" stop-color="#65ffff" stop-opacity=".6"/>
      <stop offset=".85" stop-color="#92ffff" stop-opacity=".42"/>
      <stop offset=".89" stop-color="#c6ffff" stop-opacity=".22"/>
      <stop offset=".93" stop-color="#fff" stop-opacity="0"/>
    </radialGradient>
    <radialGradient id="radial-gradient-2" cx="178.09" cy="82.54" fx="178.09" fy="82.54" r="71.4" gradientUnits="userSpaceOnUse">
      <stop offset=".59" stop-color="#8cc63f"/>
      <stop offset=".63" stop-color="#96cb4f" stop-opacity=".91"/>
      <stop offset=".7" stop-color="#b0d87c" stop-opacity=".68"/>
      <stop offset=".81" stop-color="#daedc2" stop-opacity=".31"/>
      <stop offset=".9" stop-color="#fff" stop-opacity="0"/>
    </radialGradient>
    <radialGradient id="radial-gradient-3" cx="175.26" cy="81.72" fx="175.26" fy="81.72" r="67.54" gradientUnits="userSpaceOnUse">
      <stop offset=".42" stop-color="#009245"/>
      <stop offset=".5" stop-color="#07954a" stop-opacity=".97"/>
      <stop offset=".59" stop-color="#1c9e59" stop-opacity=".89"/>
      <stop offset=".67" stop-color="#3fad73" stop-opacity=".75"/>
      <stop offset=".76" stop-color="#71c297" stop-opacity=".56"/>
      <stop offset=".84" stop-color="#b1ddc6" stop-opacity=".31"/>
      <stop offset=".93" stop-color="#fefefe" stop-opacity="0"/>
      <stop offset=".93" stop-color="#fff" stop-opacity="0"/>
    </radialGradient>
    <radialGradient id="radial-gradient-4" cx="2272.99" cy="-2045.54" fx="2272.99" fy="-2045.54" r="72.62" gradientTransform="translate(2233.84 -2175.53) rotate(89.77) scale(1 -1)" gradientUnits="userSpaceOnUse">
      <stop offset="0" stop-color="#ffc54a" stop-opacity="1"/>
      <stop offset=".15" stop-color="#ffc54c" stop-opacity=".99"/>
      <stop offset=".26" stop-color="#ffc752" stop-opacity=".95"/>
      <stop offset=".35" stop-color="#ffcb5e" stop-opacity=".89"/>
      <stop offset=".44" stop-color="#ffd06e" stop-opacity=".8"/>
      <stop offset=".53" stop-color="#ffd783" stop-opacity=".68"/>
      <stop offset=".61" stop-color="#ffdf9c" stop-opacity=".54"/>
      <stop offset=".69" stop-color="#ffe9ba" stop-opacity=".38"/>
      <stop offset=".76" stop-color="#fff4dd" stop-opacity=".19"/>
      <stop offset=".82" stop-color="#fff" stop-opacity="0"/>
    </radialGradient>
    <radialGradient id="radial-gradient-5" cx="180.76" cy="85.44" fx="180.76" fy="85.44" r="63.54" gradientUnits="userSpaceOnUse">
      <stop offset=".61" stop-color="blue"/>
      <stop offset=".74" stop-color="#6b6bff" stop-opacity=".58"/>
      <stop offset=".92" stop-color="#fff" stop-opacity="0"/>
    </radialGradient>
    <radialGradient id="New_Gradient_Swatch_1" data-name="New Gradient Swatch 1" cx="162.22" cy="47.42" fx="150.74" fy="58.9" r="22.78" gradientTransform="translate(16.85 -51.02) rotate(11.62) scale(1 1.42)" gradientUnits="userSpaceOnUse">
      <stop offset=".5" stop-color="#ffc54a"/>
      <stop offset=".69" stop-color="#ffc54b" stop-opacity=".99"/>
      <stop offset=".76" stop-color="#ffc650" stop-opacity=".97"/>
      <stop offset=".8" stop-color="#ffc958" stop-opacity=".92"/>
      <stop offset=".84" stop-color="#ffcd64" stop-opacity=".85"/>
      <stop offset=".87" stop-color="#ffd274" stop-opacity=".77"/>
      <stop offset=".9" stop-color="#ffd887" stop-opacity=".66"/>
      <stop offset=".93" stop-color="#ffe09e" stop-opacity=".53"/>
      <stop offset=".95" stop-color="#ffe8b9" stop-opacity=".39"/>
      <stop offset=".98" stop-color="#fff2d7" stop-opacity=".22"/>
      <stop offset="1" stop-color="#fffcf8" stop-opacity=".04"/>
      <stop offset="1" stop-color="#fff" stop-opacity="0"/>
    </radialGradient>
    <radialGradient id="radial-gradient-6" cx="93.33" cy="82.37" fx="93.33" fy="82.37" r="71.73" gradientTransform="translate(0 152.6) scale(1 -1)" gradientUnits="userSpaceOnUse">
      <stop offset=".07" stop-color="#ccc"/>
      <stop offset=".86" stop-color="#ccc" stop-opacity=".15"/>
      <stop offset="1" stop-color="#ccc" stop-opacity="0"/>
    </radialGradient>
  </defs>
  <g class="cls-11">
    <path class="cls-2" d="m208.17,34.1c0-.1-.04-.21-.12-.28-.16-.16-.41-.15-.57,0l-49.21,49.6c-1.29,1.3-1.28,3.4.02,4.69l1.16,1.15c.48.47.74,1.1.74,1.78s-.26,1.31-.73,1.78l-12.65,12.75c-.47.48-1.1.74-1.78.74s-1.31-.26-1.78-.73l-6.96-6.9c-.63-.62-1.46-.96-2.35-.96s-1.72.35-2.34.98l-24.73,24.92c-.15.15-.15.42,0,.57.08.08.18.12.28.12s.21-.04.28-.12l24.73-24.92c.47-.48,1.1-.74,1.78-.74s1.31.26,1.78.73l6.96,6.9c1.3,1.29,3.4,1.28,4.69-.02l12.65-12.75c.62-.63.96-1.46.96-2.35s-.35-1.72-.98-2.34l-1.16-1.15c-.48-.47-.74-1.1-.74-1.78s.26-1.31.73-1.78l49.21-49.6c.08-.08.12-.18.12-.28Z"/>
    <path class="cls-1" d="m202.32,55.24c0-.1-.04-.21-.12-.28-.08-.08-.18-.12-.28-.12s-.21.04-.28.12l-23.25,23.43c-.47.48-1.1.74-1.78.74s-1.31-.26-1.78-.73l-11.59-11.5c-.63-.62-1.46-.96-2.35-.96s-1.72.35-2.34.98l-12.16,12.25c-.47.48-1.1.74-1.78.74s-1.31-.26-1.78-.73l-2.98-2.96c-.63-.62-1.46-.96-2.35-.96s-1.72.35-2.34.98l-26.04,26.25c-.16.16-.15.41,0,.57.16.16.41.15.57,0l26.04-26.25c.47-.48,1.1-.74,1.78-.74s1.31.26,1.78.73l2.98,2.96c.63.62,1.46.96,2.35.96s1.72-.35,2.34-.98l12.16-12.25c.47-.48,1.1-.74,1.78-.74s1.31.26,1.78.73l11.59,11.5c1.3,1.29,3.4,1.28,4.69-.02l23.25-23.43c.08-.08.12-.18.12-.28Z"/>
    <path class="cls-4" d="m204.53,13.81l-35.78,36.06c-1.08,1.08-1.07,2.84.02,3.92l24.05,23.86c.58.58.9,1.34.9,2.16s-.31,1.59-.89,2.17l-13.14,13.25-.05-.05.05.05c-1.19,1.2-3.13,1.21-4.33.02l-15.98-15.85c-.52-.52-1.22-.81-1.96-.8s-1.44.29-1.96.82l-9.94,10.02c-.52.52-.81,1.22-.8,1.96s.29,1.44.82,1.96l11.63,11.54c.58.58.9,1.34.9,2.16s-.31,1.59-.89,2.17l-20.5,20.66s-.06.04-.1.04-.08-.01-.1-.04c-.06-.05-.06-.15,0-.21l20.5-20.66c1.08-1.08,1.07-2.84-.02-3.92l-11.63-11.54c-.58-.58-.9-1.34-.9-2.16s.31-1.59.89-2.17l9.94-10.02c1.19-1.2,3.13-1.21,4.33-.02l15.98,15.85c.52.52,1.22.81,1.96.8s1.44-.29,1.96-.82l13.14-13.25c1.08-1.08,1.07-2.84-.02-3.92l-24.05-23.86c-.58-.58-.9-1.34-.9-2.16s.31-1.59.89-2.17l35.78-36.06s.06-.04.1-.04.08.01.1.04c.03.03.04.07.04.1s-.01.07-.04.1Zm-10.95,65.96c-.01-.73-.3-1.42-.8-1.95.52.55.79,1.25.8,1.95Zm0,.09c0,.7-.26,1.39-.76,1.94.49-.53.76-1.21.76-1.94Zm-.8-2.04s0,0,0,0c0,0,0,0,0,0Zm-24.18-27.99s0,0,0,0c0,0,0,0,0,0Zm0,0c-.5.54-.78,1.23-.79,1.97,0-.71.27-1.42.79-1.97Zm.02,4.01s0,0,0,0c0,0,0,0,0,0Zm0,0c-.52-.55-.79-1.25-.8-1.96.01.74.3,1.43.8,1.96Zm-.8-2.04h0s0,0,0,0Zm0,.08h0s0,0,0,0Zm-10.66,57.18c.51-.54.79-1.25.79-2s-.28-1.44-.78-1.98c1.04,1.12,1.04,2.86,0,3.98Zm0,0s0,0,0,0c0,0,0,0,0,0Zm0,0h0s0,0,0,0Z"/>
    <path class="cls-5" d="m233.82,63.82c0-.06-.02-.12-.07-.17-.05-.04-.1-.07-.17-.07s-.12.03-.17.07l-38.98,39.29c-.5.51-1.17.79-1.89.79s-1.39-.27-1.9-.78l-45.29-44.94c-.6-.59-1.39-.92-2.23-.91s-1.63.33-2.23.93l-22.96,23.14c-.09.09-.09.25,0,.34.04.04.1.07.17.07s.12-.03.17-.07l22.96-23.14c.5-.51,1.17-.79,1.89-.79s1.39.27,1.9.78l45.29,44.94c1.23,1.22,3.23,1.22,4.46-.02l38.98-39.29s.07-.11.07-.17Z"/>
    <path class="cls-6" d="m195.46,158.1c.06-.06.06-.15,0-.21l-31.71-31.46c-1.08-1.08-1.09-2.83-.02-3.92l31.01-31.26c.58-.58.89-1.35.89-2.17s-.32-1.59-.9-2.16l-38.71-38.4c-.52-.52-.81-1.21-.82-1.96s.28-1.44.8-1.96L194.73,5.56c.06-.06.06-.15,0-.21-.06-.06-.15-.06-.21,0l-38.73,39.04c-1.19,1.2-1.18,3.14.02,4.33l38.71,38.4c.52.52.81,1.21.82,1.96s-.28,1.44-.8,1.96l-31.01,31.26c-.58.58-.89,1.35-.89,2.17s.32,1.59.9,2.16l31.71,31.46c.06.06.15.06.21,0Zm-39.72-113.43c.05-.06.1-.12.16-.17L194.62,5.45l-38.73,39.04c-.06.06-.11.11-.16.17Zm38.89,42.36l-38.71-38.4c-.06-.06-.12-.13-.18-.19.06.07.12.13.18.19l38.71,38.4Zm-10.32,14.54l10.34-10.42s.09-.09.13-.14c-.04.05-.08.09-.13.14l-10.34,10.42Zm-20.94,21.14c.05-.07.11-.14.17-.21-.06.07-.12.14-.17.21Zm-.15.22c.04-.07.09-.13.13-.2-.05.06-.09.13-.13.2Zm-.38.98c.06-.34.19-.67.37-.97-.18.3-.31.63-.37.97Zm-.04.26c0-.08.02-.16.03-.25-.02.08-.03.16-.03.25Zm.75,2.26c-.06-.07-.12-.14-.18-.21.05.07.11.14.18.21Zm-.71-1.42c-.02-.08-.03-.16-.04-.25,0,.08.02.17.04.25Zm.38.97c-.18-.3-.31-.62-.38-.96.07.34.19.66.38.96Zm.14.21c-.05-.06-.09-.13-.13-.2.04.07.09.13.13.2Zm32.05,31.85l-.05-.05s0,0,0,0l.05.05Z"/>
    <path class="cls-7" d="m240.14,67.13c0-.19-.07-.37-.21-.51-.14-.14-.32-.21-.52-.21s-.38.08-.51.22l-48.71,49.1c-.85.86-2.24.86-3.09.01l-10.95-10.86c-1.43-1.42-3.74-1.41-5.15.02l-15.44,15.57c-1.42,1.43-1.41,3.74.02,5.15l7.31,7.25c.86.85.86,2.24.01,3.09l-7.48,7.54c-.28.29-.28.75,0,1.03.14.14.32.21.52.21s.38-.08.51-.22l7.48-7.53c.68-.69,1.06-1.61,1.06-2.58s-.39-1.89-1.08-2.57l-7.31-7.25c-.86-.85-.86-2.24-.01-3.09l15.44-15.57c.41-.41.96-.64,1.54-.65s1.14.22,1.55.63l10.95,10.86c.69.68,1.61,1.06,2.58,1.06s1.89-.39,2.57-1.08l48.71-49.1c.14-.14.21-.33.21-.52Z"/>
    <path class="cls-9" d="m235.54,56.15l-57.46,57.92c-1.19,1.2-3.13,1.21-4.33.02l-29.8-29.56c-.52-.52-1.22-.81-1.96-.8s-1.44.29-1.96.82l-13.84,13.95c-.06.06-.15.06-.21,0-.06-.06-.06-.15,0-.21l13.84-13.95c.58-.58,1.34-.9,2.16-.9s1.59.31,2.17.89l29.8,29.56c.52.52,1.22.81,1.96.8s1.44-.29,1.96-.82l57.46-57.92c.06-.06.15-.06.21,0,.03.03.04.07.04.1s-.01.07-.04.1Zm-57.57,57.82l.05.05-.05-.05,57.46-57.92-57.46,57.92s-.04.04-.06.05c.02-.02.04-.04.06-.05Zm-.06.05h0s0,0,0,0Zm-4.01.02s0,0,0,0h0Zm-29.86-29.62l29.8,29.56s.04.04.06.06c-.02-.02-.04-.04-.06-.06l-29.8-29.56c-.16-.16-.34-.3-.53-.42.19.12.37.26.53.42Zm-4.12.02c.37-.38.83-.64,1.33-.77-.5.13-.96.39-1.33.77l-13.84,13.95,13.84-13.95Z"/>
    <path class="cls-3" d="m189.97,39.89l-22.76,22.94c-1.19,1.2-3.13,1.21-4.33.02l-14.46-14.35c-.58-.58-.9-1.34-.9-2.16s.31-1.59.89-2.17l28.62-28.84c.06-.06.15-.06.21,0,.06.06.06.15,0,.21l-28.62,28.84c-1.08,1.08-1.07,2.84.02,3.92l14.46,14.35c.52.52,1.22.81,1.96.8s1.44-.29,1.96-.82l22.76-22.94s.06-.04.1-.04.08.01.1.04c.03.03.04.07.04.1s-.01.07-.04.1Zm-41.53,4.45c-.5.54-.78,1.25-.77,1.99s.29,1.46.8,2c-.53-.56-.8-1.28-.8-2s.25-1.43.77-1.99Z"/>
    <g>
      <path class="cls-10" d="m155.15,144.78c.43.43,1.13.42,1.55,0,.43-.43.42-1.13,0-1.55-.43-.43-1.13-.42-1.55,0-.43.43-.42,1.13,0,1.55Z"/>
      <path class="cls-10" d="m172.58,113.37c.18.18.47.18.64,0s.18-.47,0-.64c-.18-.18-.47-.18-.64,0-.18.18-.18.47,0,.64Z"/>
      <path class="cls-10" d="m167.85,109.08c.29.29.77.29,1.06,0,.29-.29.29-.77,0-1.06-.29-.29-.77-.29-1.06,0s-.29.77,0,1.06Z"/>
      <path class="cls-10" d="m155.45,97.43c.47.47,1.23.46,1.69,0,.47-.47.46-1.23,0-1.69-.47-.47-1.23-.46-1.69,0-.47.47-.46,1.23,0,1.69Z"/>
      <circle class="cls-10" cx="147.19" cy="87.55" r=".58"/>
      <circle class="cls-10" cx="161.23" cy="81.01" r=".46"/>
      <path class="cls-10" d="m164.13,78.08c.3.3.79.3,1.09,0,.3-.3.3-.79,0-1.09s-.79-.3-1.09,0-.3.79,0,1.09Z"/>
      <circle class="cls-10" cx="180.99" cy="93.72" r="1.22"/>
      <path class="cls-10" d="m190.52,84.12c.32.32.84.32,1.15,0,.32-.32.32-.84,0-1.15-.32-.32-.84-.32-1.15,0-.32.32-.32.84,0,1.15Z"/>
      <path class="cls-10" d="m181.95,75.37c.25.25.66.25.91,0s.25-.66,0-.91c-.25-.25-.66-.25-.91,0-.25.25-.25.66,0,.91Z"/>
      <path class="cls-10" d="m168.1,61.73c.28.28.74.28,1.02,0,.28-.28.28-.74,0-1.02s-.74-.28-1.02,0c-.28.28-.28.74,0,1.02Z"/>
      <circle class="cls-10" cx="172.3" cy="57.49" r=".42"/>
      <path class="cls-10" d="m177.91,64.2c.32.32.84.31,1.15,0,.32-.32.31-.84,0-1.15s-.84-.31-1.15,0c-.32.32-.31.84,0,1.15Z"/>
      <path class="cls-10" d="m155.6,70.49c.55.54,1.43.54,1.97,0,.54-.55.54-1.43,0-1.97-.55-.54-1.43-.54-1.97,0-.54.55-.54,1.43,0,1.97Z"/>
      <circle class="cls-10" cx="186.58" cy="99.27" r=".42"/>
      <circle class="cls-10" cx="189.59" cy="102.25" r="1.22"/>
      <circle class="cls-10" cx="174.78" cy="67.35" r=".46"/>
      <path class="cls-10" d="m185.77,71.51c.18.18.48.18.66,0,.18-.18.18-.48,0-.66s-.48-.18-.66,0c-.18.18-.18.48,0,.66Z"/>
      <path class="cls-10" d="m152.04,100.87c.23.23.61.23.85,0s.23-.61,0-.85-.61-.23-.85,0c-.23.23-.23.61,0,.85Z"/>
      <circle class="cls-10" cx="181.09" cy="110.82" r=".83"/>
      <path class="cls-10" d="m177.58,108.33c.28.27.72.27.99,0,.27-.28.27-.72,0-.99s-.72-.27-.99,0-.27.72,0,.99Z"/>
    </g>
  </g>
  <path class="cls-8" d="m159.82,27.65c-.41-.41-1.08-.41-1.49,0-.39.39-.41,1.02-.06,1.43l-24.07,24.09c-1.11,1.11-2.92,1.11-4.02,0l-6.93-6.93c-1.17-1.17-3.06-1.17-4.23,0l-4.96,4.96c-.23-.19-.55-.17-.77.01l-4.16-4.16c-1.11-1.11-1.11-2.92,0-4.02l20.15-20.13c.1.09.23.13.38.13.34,0,.61-.28.61-.61s-.28-.61-.61-.61-.61.28-.61.61c0,.15.04.28.13.38l-20.15,20.13c-1.17,1.17-1.17,3.06,0,4.23l4.17,4.17c-.15.22-.15.51.03.71l-2.58,2.58c-.45-.41-1.15-.41-1.6,0l-10.64-10.64c.23-.28.23-.67,0-.95l11.84-11.84c1.17-1.17,1.17-3.06,0-4.23l-7.28-7.28c-1.11-1.11-1.11-2.92,0-4.02l6.72-6.72c.42.38,1.09.36,1.5-.04.44-.44.44-1.12,0-1.56-.42-.42-1.12-.42-1.56,0-.41.41-.42,1.06-.04,1.5l-6.72,6.72c-1.17,1.17-1.17,3.06,0,4.23l7.28,7.28c1.11,1.11,1.11,2.92,0,4.02l-11.84,11.85c-.28-.23-.67-.22-.95.01l-3.67-3.67c.12-.16.12-.38,0-.54l9-9c1.17-1.17,1.17-3.06,0-4.23l-31.59-31.62s-.07-.03-.1,0-.03.07,0,.1l31.59,31.59c1.11,1.11,1.11,2.92,0,4.02l-9.01,9.01c-.16-.12-.36-.12-.52,0l-.63-.63c-1.17-1.17-3.06-1.17-4.23,0l-2.55,2.55c-.15-.13-.34-.2-.54-.2s-.39.07-.54.19l-4.86-4.86c-1.17-1.17-3.06-1.17-4.23,0l-48.92,48.9s-.03.07,0,.1.07.03.1,0l48.92-48.92c1.11-1.11,2.92-1.11,4.02,0l4.87,4.87c-.13.15-.2.34-.2.54s.07.39.2.54l-7.09,7.09c-.22-.19-.51-.32-.82-.32s-.6.12-.82.32h-.01c-1.17-1.18-3.06-1.18-4.23-.01l-39.13,39.13s-.03.07,0,.1.07.03.1,0l39.13-39.13c1.11-1.11,2.92-1.11,4.02,0h.01c-.19.23-.31.51-.31.82s.12.6.32.82l-45.17,45.17s-.03.07,0,.1.07.03.1,0l45.17-45.17c.22.19.5.31.8.31s.58-.12.8-.31l1.85,1.85c-.04.07-.07.15-.07.23s.03.17.07.25l-7.79,7.79c-1.17,1.17-1.17,3.06,0,4.23l2.93,2.93c-.25.31-.25.73,0,1.04l-1.09,1.09c-1.17,1.17-1.17,3.06,0,4.23l6.27,6.27c-.1.16-.1.38,0,.54l-15.53,15.56s-.03.07,0,.1.07.03.1,0l15.56-15.56c.16.12.38.12.54,0l6.69,6.69c-.25.31-.25.73,0,1.04l-28.84,28.84s-.03.07,0,.1.07.03.1,0l28.82-28.82c.31.26.74.26,1.05,0l5.29,5.29c-.04.07-.07.15-.07.23s.03.17.09.25l-17.35,17.34s-.03.07,0,.1.07.03.1,0l17.34-17.34c.07.04.15.07.25.07.09,0,.16-.03.23-.07l3.32,3.32c1.11,1.11,1.11,2.92,0,4.02l-35.91,35.91s-.03.07,0,.1.07.03.1,0l35.93-35.93c1.17-1.17,1.17-3.06,0-4.23l-3.32-3.32c.04-.07.07-.15.07-.23s-.03-.17-.07-.25l2.9-2.9c.26.22.66.22.92,0l12.15,12.15c1.11,1.11,1.11,2.92,0,4.02l-38.88,38.88s-.03.07,0,.1.07.03.1,0l38.88-38.88c1.17-1.17,1.17-3.06,0-4.23l-12.15-12.15c.22-.26.22-.64,0-.9l1.01-1.01c1.11-1.11,2.92-1.11,4.02,0l14.41,14.41c1.11,1.11,1.11,2.92,0,4.02l-28.72,28.72s-.03.07,0,.1.07.03.1,0l28.72-28.72c1.17-1.17,1.17-3.06,0-4.23l-14.41-14.41c-1.17-1.15-3.06-1.15-4.23.01l-.99.99c-.26-.22-.64-.22-.9-.01l-5.32-5.32c.06-.07.1-.17.1-.28s-.04-.2-.1-.28l5.44-5.44,5.98,5.98c1.17,1.17,3.06,1.17,4.23,0l1.28-1.28c.52.45,1.31.45,1.84-.01l10.37,10.37c1.17,1.17,3.06,1.17,4.23,0l22.63-22.63c.1.09.23.15.38.15.34,0,.61-.28.61-.61s-.28-.61-.61-.61-.61.28-.61.61c0,.15.04.26.13.36l-22.66,22.63c-1.11,1.11-2.92,1.11-4.02,0l-10.37-10.37c.47-.51.48-1.31.03-1.85l8.95-8.95c1.11-1.11,2.92-1.11,4.02,0l2.97,2.97c1.17,1.17,3.06,1.17,4.23,0l25.82-25.82c.07.04.16.07.25.07.25,0,.45-.2.45-.45s-.2-.45-.45-.45-.45.2-.45.45c0,.1.04.2.1.28l-25.84,25.81c-1.11,1.11-2.92,1.11-4.02,0l-2.97-2.97c-1.17-1.17-3.06-1.17-4.23,0l-8.95,8.95c-.52-.48-1.36-.48-1.88,0l-6.55-6.55c.12-.13.17-.31.17-.5s-.07-.36-.19-.5l2.6-2.6c.07.06.17.1.28.1s.19-.03.26-.09l1.41,1.41c1.17,1.17,3.06,1.17,4.23,0l7.8-7.8c.1.07.22.12.35.12s.26-.04.35-.13l2.74,2.74c1.17,1.17,3.06,1.17,4.23,0l13.41-13.41c.26.2.66.19.9-.06.26-.26.26-.7,0-.96-.26-.26-.7-.26-.96,0-.25.25-.26.64-.04.92l-13.41,13.41c-1.11,1.11-2.92,1.11-4.02,0l-2.74-2.74c.07-.1.13-.22.13-.35s-.04-.25-.12-.35l1.36-1.36c1.17-1.17,1.17-3.06,0-4.23l-6.58-6.6c.19-.22.2-.54.03-.76l4.96-4.96c1.11-1.11,2.92-1.11,4.02,0l6.93,6.93c1.17,1.17,3.06,1.17,4.23,0l24.09-24.09c.41.36,1.05.35,1.44-.04.41-.42.41-1.08,0-1.49Zm-66.25,11.71l3.67,3.67c-.22.28-.22.66,0,.93l-2.62,2.62c-1.11,1.11-2.92,1.11-4.02,0l-1.95-1.97c.1-.12.16-.28.16-.44s-.06-.32-.16-.44l4.39-4.39c.16.12.38.12.54,0Zm-7.83,1.3l2.55-2.55c1.11-1.11,2.92-1.11,4.02,0l.63.63c-.12.16-.12.36,0,.52l-4.39,4.39c-.12-.1-.28-.16-.44-.16s-.32.06-.44.16l-1.92-1.92c.12-.15.19-.34.19-.54-.01-.2-.09-.38-.2-.52Zm-8.27,9.87c.19-.22.32-.51.32-.82s-.12-.58-.31-.8l7.09-7.09c.15.12.32.19.52.19s.39-.07.54-.2l1.92,1.92c-.1.12-.16.28-.16.45s.06.32.16.44l-7.74,7.74c-.07-.04-.16-.07-.25-.07s-.17.03-.25.09l-1.85-1.85Zm-5.93,14.35c-1.11-1.11-1.11-2.92,0-4.02l7.79-7.79c.07.04.15.07.25.07.09,0,.16-.03.23-.07l4.42,4.42c-.19.22-.31.5-.31.8s.12.6.31.82l-8.7,8.7c-.31-.26-.74-.25-1.05,0l-2.93-2.93Zm8.14,15.56l-6.28-6.27c-1.11-1.11-1.11-2.92,0-4.02l1.09-1.09c.31.25.73.25,1.04,0l7.64,7.64c-.17.23-.17.57.01.79l-2.95,2.95c-.17-.1-.39-.1-.55.01Zm8.37,7.35c-.31-.25-.73-.25-1.02,0l-6.71-6.69c.12-.16.12-.38,0-.54l2.95-2.95c.23.17.55.17.77,0l6.82,6.82c-.06.07-.09.16-.09.26s.03.19.09.28l-2.81,2.81Zm8.79,2.6c-.22.26-.22.66,0,.92l-2.9,2.9c-.07-.06-.16-.09-.25-.09s-.17.03-.23.07l-5.29-5.29c.25-.31.25-.74-.01-1.04l2.83-2.83c.07.06.17.1.28.1s.19-.03.26-.09l5.32,5.34Zm-5.31-6.08c-.07-.06-.17-.09-.28-.09s-.2.04-.28.1l-6.82-6.82c.19-.23.19-.55.01-.79l3.3-3.3c1.11-1.11,2.92-1.11,4.02,0l5.47,5.47-5.42,5.42Zm.04-11.02c-1.17-1.15-3.06-1.15-4.21.01l-3.3,3.3c-.23-.19-.57-.19-.8,0l-7.64-7.64c.26-.31.26-.74,0-1.05l8.7-8.7c.22.19.5.31.82.31s.58-.12.8-.31l14.84,14.84c-.12.13-.17.31-.17.5s.07.35.17.5l-3.73,3.73-5.48-5.48Zm16.84,8.4c-.47.52-.47,1.34.01,1.87l-1.28,1.28c-1.11,1.11-2.92,1.11-4.02,0l-5.96-5.96,3.73-3.73c.13.12.31.19.5.19s.35-.07.5-.17l6.53,6.53Zm-6.53-7.73c-.13-.12-.31-.17-.5-.17s-.35.07-.5.17l-14.84-14.84c.19-.22.32-.51.32-.82s-.12-.6-.31-.82l.52-.52c1.11-1.11,2.92-1.11,4.02,0l13.87,13.87c-.06.07-.09.16-.09.26s.03.19.09.28l-2.6,2.6Zm2.97-3.34c-.1,0-.2.03-.28.09l-13.87-13.85c-1.17-1.17-3.06-1.17-4.23,0l-.52.52c-.22-.19-.5-.31-.82-.31s-.6.12-.82.32l-4.42-4.42c.06-.07.09-.16.09-.25s-.03-.17-.07-.25l7.74-7.74c.12.1.28.16.44.16.17,0,.32-.06.45-.16l1.95,1.95c1.17,1.17,3.06,1.17,4.23,0l2.61-2.61c.28.23.66.23.93.01l10.66,10.66c-.39.45-.39,1.14.01,1.59l-2.62,2.62c-1.17,1.17-1.17,3.06,0,4.23l1.15,1.15c1.11,1.11,1.11,2.92,0,4.02l-2.35,2.35c-.09-.07-.17-.1-.28-.1Zm13.6-5.66l-7.8,7.8c-1.11,1.11-2.92,1.11-4.02,0l-1.4-1.4c.06-.07.09-.17.09-.28s-.04-.2-.1-.28l2.35-2.35c1.17-1.17,1.17-3.06,0-4.23l-1.15-1.15c-1.11-1.11-1.11-2.92,0-4.02l2.64-2.64c.45.39,1.12.39,1.57,0l7.83,7.83c-.07.1-.13.22-.13.35s.04.28.13.36Zm2.17-6.2c1.11,1.11,1.11,2.92,0,4.02l-1.37,1.37c-.1-.07-.22-.13-.35-.13s-.26.04-.35.13l-7.83-7.83c.41-.45.41-1.14,0-1.59l2.6-2.6c.2.16.5.17.71.01l6.59,6.6Z"/>
</svg>