<svg xmlns="http://www.w3.org/2000/svg" viewBox="0 0 1366 641" preserveAspectRatio="xMidYMid" width="1366" height="641" xmlns:xlink="http://www.w3.org/1999/xlink" style="shape-rendering:auto;display:block;background-position-x:0%;background-position-y:0%;background-size:auto;background-origin:padding-box;background-clip:border-box;background:scroll rgb(255, 255, 255) none  repeat;width:1366px;height:641px;;animation:none"><g><defs><linearGradient gradientUnits="userSpaceOnUse" y2="0" y1="0" x2="1366" x1="658" id="ldbk-photon-qixpw0jsvbs-lg"><stop offset="0" stop-color="#1d3f72"></stop>

    
<stop offset="1" stop-color="#34ffef"></stop></linearGradient>

  
<mask id="ldbk-photon-qixpw0jsvbs-mask"><g><path fill="#fff" d="M1666 -0.5 L664.8840154582678 -0.5 A15.5 15.5 0 0 1 664.8840154582678 31.5 L1666 31.5" transform="matrix(1,0,0,1,36.85466384887695,0)" style="fill:rgb(255, 255, 255);transform:matrix(1, 0, 0, 1, 36.8547, 0);;animation:none"></path>
<path fill="#000" d="M1431.135879176083 -0.5 L1465.2717583521662 -0.5 A15.5 15.5 0 0 1 1465.2717583521662 31.5 L1431.135879176083 31.5 A15.5 15.5 0 0 1 1431.135879176083 -0.5" transform="matrix(1,0,0,1,0,0)" opacity="1" style="fill:rgb(0, 0, 0);transform:matrix(1, 0, 0, 1, 0, 0);;animation:none"></path>
<path fill="#fff" d="M1666 30.5 L642.675938464255 30.5 A15.5 15.5 0 0 0 642.675938464255 62.5 L1666 62.5" transform="matrix(1,0,0,1,-40.604305267333984,0)" style="fill:rgb(255, 255, 255);transform:matrix(1, 0, 0, 1, -40.6043, 0);;animation:none"></path>
<path fill="#fff" d="M720.872550938711 30.5 L731.2362039087835 30.5 A15.5 15.5 0 0 1 731.2362039087835 62.5 L720.872550938711 62.5 A15.5 15.5 0 0 1 720.872550938711 30.5" transform="matrix(1,0,0,1,0,0)" opacity="1" style="fill:rgb(255, 255, 255);transform:matrix(1, 0, 0, 1, 0, 0);;animation:none"></path>
<path fill="#fff" d="M1666 61.5 L675.3530733013846 61.5 A15.5 15.5 0 0 1 675.3530733013846 93.5 L1666 93.5" transform="matrix(1,0,0,1,1.1094577312469482,0)" style="fill:rgb(255, 255, 255);transform:matrix(1, 0, 0, 1, 1.10946, 0);;animation:none"></path>
<path fill="#000" d="M1418.4347639074488 61.5 L1439.8695278148975 61.5 A15.5 15.5 0 0 1 1439.8695278148975 93.5 L1418.4347639074488 93.5 A15.5 15.5 0 0 1 1418.4347639074488 61.5" transform="matrix(1,0,0,1,-907.7569580078125,0)" opacity="0.612245" style="fill:rgb(0, 0, 0);transform:matrix(1, 0, 0, 1, -907.757, 0);opacity:0.612245;;animation:none"></path>
<path fill="#fff" d="M1666 92.5 L618.5076761056717 92.5 A15.5 15.5 0 0 0 618.5076761056717 124.5 L1666 124.5" transform="matrix(1,0,0,1,-0.8482685089111328,0)" style="fill:rgb(255, 255, 255);transform:matrix(1, 0, 0, 1, -0.848269, 0);;animation:none"></path>
<path fill="#fff" d="M688.6529253474699 92.5 L726.7007516219267 92.5 A15.5 15.5 0 0 1 726.7007516219267 124.5 L688.6529253474699 124.5 A15.5 15.5 0 0 1 688.6529253474699 92.5" transform="matrix(1,0,0,1,0,0)" opacity="1" style="fill:rgb(255, 255, 255);transform:matrix(1, 0, 0, 1, 0, 0);;animation:none"></path>
<path fill="#fff" d="M1666 123.5 L639.9088441018606 123.5 A15.5 15.5 0 0 1 639.9088441018606 155.5 L1666 155.5" transform="matrix(1,0,0,1,10.832743644714355,0)" style="fill:rgb(255, 255, 255);transform:matrix(1, 0, 0, 1, 10.8327, 0);;animation:none"></path>
<path fill="#000" d="M1409.681432614342 123.5 L1422.3628652286839 123.5 A15.5 15.5 0 0 1 1422.3628652286839 155.5 L1409.681432614342 155.5 A15.5 15.5 0 0 1 1409.681432614342 123.5" transform="matrix(1,0,0,1,-1029.576416015625,0)" opacity="0.408163" style="fill:rgb(0, 0, 0);transform:matrix(1, 0, 0, 1, -1029.58, 0);opacity:0.408163;;animation:none"></path>
<path fill="#fff" d="M1666 154.5 L588.394616294222 154.5 A15.5 15.5 0 0 0 588.394616294222 186.5 L1666 186.5" transform="matrix(1,0,0,1,-1.4261016845703125,0)" style="fill:rgb(255, 255, 255);transform:matrix(1, 0, 0, 1, -1.4261, 0);;animation:none"></path>
<path fill="#fff" d="M723.3081702877851 154.5 L748.9263776147436 154.5 A15.5 15.5 0 0 1 748.9263776147436 186.5 L723.3081702877851 186.5 A15.5 15.5 0 0 1 723.3081702877851 154.5" transform="matrix(1,0,0,1,0,0)" opacity="1" style="fill:rgb(255, 255, 255);transform:matrix(1, 0, 0, 1, 0, 0);;animation:none"></path>
<path fill="#fff" d="M1666 185.5 L645.0438451379857 185.5 A15.5 15.5 0 0 1 645.0438451379857 217.5 L1666 217.5" transform="matrix(1,0,0,1,36.423095703125,0)" style="fill:rgb(255, 255, 255);transform:matrix(1, 0, 0, 1, 36.4231, 0);;animation:none"></path>
<path fill="#000" d="M1417.2361258632177 185.5 L1437.4722517264354 185.5 A15.5 15.5 0 0 1 1437.4722517264354 217.5 L1417.2361258632177 217.5 A15.5 15.5 0 0 1 1417.2361258632177 185.5" transform="matrix(1,0,0,1,-758.2784423828125,0)" opacity="0.612245" style="fill:rgb(0, 0, 0);transform:matrix(1, 0, 0, 1, -758.278, 0);opacity:0.612245;;animation:none"></path>
<path fill="#fff" d="M1666 216.5 L616.370862171369 216.5 A15.5 15.5 0 0 0 616.370862171369 248.5 L1666 248.5" transform="matrix(1,0,0,1,-46.76898193359375,0)" style="fill:rgb(255, 255, 255);transform:matrix(1, 0, 0, 1, -46.769, 0);;animation:none"></path>
<path fill="#fff" d="M706.6882062203645 216.5 L722.3812844354342 216.5 A15.5 15.5 0 0 1 722.3812844354342 248.5 L706.6882062203645 248.5 A15.5 15.5 0 0 1 706.6882062203645 216.5" transform="matrix(1,0,0,1,0,0)" opacity="1" style="fill:rgb(255, 255, 255);transform:matrix(1, 0, 0, 1, 0, 0);;animation:none"></path>
<path fill="#fff" d="M1666 247.5 L642.351622478724 247.5 A15.5 15.5 0 0 1 642.351622478724 279.5 L1666 279.5" transform="matrix(1,0,0,1,12.931783676147461,0)" style="fill:rgb(255, 255, 255);transform:matrix(1, 0, 0, 1, 12.9318, 0);;animation:none"></path>
<path fill="#000" d="M1413.7800613029997 247.5 L1430.5601226059994 247.5 A15.5 15.5 0 0 1 1430.5601226059994 279.5 L1413.7800613029997 279.5 A15.5 15.5 0 0 1 1413.7800613029997 247.5" transform="matrix(1,0,0,1,-422.2174987792969,0)" opacity="1" style="fill:rgb(0, 0, 0);transform:matrix(1, 0, 0, 1, -422.217, 0);;animation:none"></path>
<path fill="#fff" d="M1666 278.5 L612.1525135178097 278.5 A15.5 15.5 0 0 0 612.1525135178097 310.5 L1666 310.5" transform="matrix(1,0,0,1,-28.033639907836914,0)" style="fill:rgb(255, 255, 255);transform:matrix(1, 0, 0, 1, -28.0336, 0);;animation:none"></path>
<path fill="#fff" d="M742.8240560754648 278.5 L757.5032693871219 278.5 A15.5 15.5 0 0 1 757.5032693871219 310.5 L742.8240560754648 310.5 A15.5 15.5 0 0 1 742.8240560754648 278.5" transform="matrix(1,0,0,1,0,0)" opacity="0.204081" style="fill:rgb(255, 255, 255);transform:matrix(1, 0, 0, 1, 0, 0);opacity:0.204081;;animation:none"></path>
<path fill="#fff" d="M1666 309.5 L648.2407725317315 309.5 A15.5 15.5 0 0 1 648.2407725317315 341.5 L1666 341.5" transform="matrix(1,0,0,1,15.74290657043457,0)" style="fill:rgb(255, 255, 255);transform:matrix(1, 0, 0, 1, 15.7429, 0);;animation:none"></path>
<path fill="#000" d="M1420.7682230260505 309.5 L1444.536446052101 309.5 A15.5 15.5 0 0 1 1444.536446052101 341.5 L1420.7682230260505 341.5 A15.5 15.5 0 0 1 1420.7682230260505 309.5" transform="matrix(1,0,0,1,-1413.292724609375,0)" opacity="0.204082" style="fill:rgb(0, 0, 0);transform:matrix(1, 0, 0, 1, -1413.29, 0);opacity:0.204082;;animation:none"></path>
<path fill="#fff" d="M1666 340.5 L606.4749775944505 340.5 A15.5 15.5 0 0 0 606.4749775944505 372.5 L1666 372.5" transform="matrix(1,0,0,1,-1.4040547609329224,0)" style="fill:rgb(255, 255, 255);transform:matrix(1, 0, 0, 1, -1.40405, 0);;animation:none"></path>
<path fill="#fff" d="M755.2626088998144 340.5 L779.3560699733257 340.5 A15.5 15.5 0 0 1 779.3560699733257 372.5 L755.2626088998144 372.5 A15.5 15.5 0 0 1 755.2626088998144 340.5" transform="matrix(1,0,0,1,0,0)" opacity="1" style="fill:rgb(255, 255, 255);transform:matrix(1, 0, 0, 1, 0, 0);;animation:none"></path>
<path fill="#fff" d="M1666 371.5 L685.9225619944574 371.5 A15.5 15.5 0 0 1 685.9225619944574 403.5 L1666 403.5" transform="matrix(1,0,0,1,34.6976318359375,0)" style="fill:rgb(255, 255, 255);transform:matrix(1, 0, 0, 1, 34.6976, 0);;animation:none"></path>
<path fill="#000" d="M1411.4439949917564 371.5 L1425.8879899835129 371.5 A15.5 15.5 0 0 1 1425.8879899835129 403.5 L1411.4439949917564 403.5 A15.5 15.5 0 0 1 1411.4439949917564 371.5" transform="matrix(1,0,0,1,-587.2771606445312,0)" opacity="0.816327" style="fill:rgb(0, 0, 0);transform:matrix(1, 0, 0, 1, -587.277, 0);opacity:0.816327;;animation:none"></path>
<path fill="#fff" d="M1666 402.5 L661.0534726781765 402.5 A15.5 15.5 0 0 0 661.0534726781765 434.5 L1666 434.5" transform="matrix(1,0,0,1,-26.923795700073242,0)" style="fill:rgb(255, 255, 255);transform:matrix(1, 0, 0, 1, -26.9238, 0);;animation:none"></path>
<path fill="#fff" d="M753.4081994036006 402.5 L785.1458484152555 402.5 A15.5 15.5 0 0 1 785.1458484152555 434.5 L753.4081994036006 434.5 A15.5 15.5 0 0 1 753.4081994036006 402.5" transform="matrix(1,0,0,1,0,0)" opacity="0.204082" style="fill:rgb(255, 255, 255);transform:matrix(1, 0, 0, 1, 0, 0);opacity:0.204082;;animation:none"></path>
<path fill="#fff" d="M1666 433.5 L688.3749835466663 433.5 A15.5 15.5 0 0 1 688.3749835466663 465.5 L1666 465.5" transform="matrix(1,0,0,1,32.600120544433594,0)" style="fill:rgb(255, 255, 255);transform:matrix(1, 0, 0, 1, 32.6001, 0);;animation:none"></path>
<path fill="#000" d="M1426.4098657392967 433.5 L1455.8197314785934 433.5 A15.5 15.5 0 0 1 1455.8197314785934 465.5 L1426.4098657392967 465.5 A15.5 15.5 0 0 1 1426.4098657392967 433.5" transform="matrix(1,0,0,1,0,0)" opacity="1" style="fill:rgb(0, 0, 0);transform:matrix(1, 0, 0, 1, 0, 0);;animation:none"></path>
<path fill="#fff" d="M1666 464.5 L681.4186068454285 464.5 A15.5 15.5 0 0 0 681.4186068454285 496.5 L1666 496.5" transform="matrix(1,0,0,1,-10.905996322631836,0)" style="fill:rgb(255, 255, 255);transform:matrix(1, 0, 0, 1, -10.906, 0);;animation:none"></path>
<path fill="#fff" d="M755.9007168467531 464.5 L789.2207469375213 464.5 A15.5 15.5 0 0 1 789.2207469375213 496.5 L755.9007168467531 496.5 A15.5 15.5 0 0 1 755.9007168467531 464.5" transform="matrix(1,0,0,1,0,0)" opacity="1" style="fill:rgb(255, 255, 255);transform:matrix(1, 0, 0, 1, 0, 0);;animation:none"></path>
<path fill="#fff" d="M1666 495.5 L694.4468590703044 495.5 A15.5 15.5 0 0 1 694.4468590703044 527.5 L1666 527.5" transform="matrix(1,0,0,1,15.715045928955078,0)" style="fill:rgb(255, 255, 255);transform:matrix(1, 0, 0, 1, 15.715, 0);;animation:none"></path>
<path fill="#000" d="M1424.4046287524527 495.5 L1451.8092575049054 495.5 A15.5 15.5 0 0 1 1451.8092575049054 527.5 L1424.4046287524527 527.5 A15.5 15.5 0 0 1 1424.4046287524527 495.5" transform="matrix(1,0,0,1,-393.9067077636719,0)" opacity="1" style="fill:rgb(0, 0, 0);transform:matrix(1, 0, 0, 1, -393.907, 0);;animation:none"></path>
<path fill="#fff" d="M1666 526.5 L655.4049311341489 526.5 A15.5 15.5 0 0 0 655.4049311341489 558.5 L1666 558.5" transform="matrix(1,0,0,1,-0.9793281555175781,0)" style="fill:rgb(255, 255, 255);transform:matrix(1, 0, 0, 1, -0.979328, 0);;animation:none"></path>
<path fill="#fff" d="M770.5617345464343 526.5 L802.2395065180351 526.5 A15.5 15.5 0 0 1 802.2395065180351 558.5 L770.5617345464343 558.5 A15.5 15.5 0 0 1 770.5617345464343 526.5" transform="matrix(1,0,0,1,0,0)" opacity="0.204082" style="fill:rgb(255, 255, 255);transform:matrix(1, 0, 0, 1, 0, 0);opacity:0.204082;;animation:none"></path>
<path fill="#fff" d="M1666 557.5 L694.3532700135223 557.5 A15.5 15.5 0 0 1 694.3532700135223 589.5 L1666 589.5" transform="matrix(1,0,0,1,0.9266111254692078,0)" style="fill:rgb(255, 255, 255);transform:matrix(1, 0, 0, 1, 0.926611, 0);;animation:none"></path>
<path fill="#000" d="M1420.7293902956778 557.5 L1444.4587805913557 557.5 A15.5 15.5 0 0 1 1444.4587805913557 589.5 L1420.7293902956778 589.5 A15.5 15.5 0 0 1 1420.7293902956778 557.5" transform="matrix(1,0,0,1,-823.682373046875,0)" opacity="0.612245" style="fill:rgb(0, 0, 0);transform:matrix(1, 0, 0, 1, -823.682, 0);opacity:0.612245;;animation:none"></path>
<path fill="#fff" d="M1666 588.5 L634.7357443664463 588.5 A15.5 15.5 0 0 0 634.7357443664463 620.5 L1666 620.5" transform="matrix(1,0,0,1,-0.8453178405761719,0)" style="fill:rgb(255, 255, 255);transform:matrix(1, 0, 0, 1, -0.845318, 0);;animation:none"></path>
<path fill="#fff" d="M759.4922006092719 588.5 L785.4017371805874 588.5 A15.5 15.5 0 0 1 785.4017371805874 620.5 L759.4922006092719 620.5 A15.5 15.5 0 0 1 759.4922006092719 588.5" transform="matrix(1,0,0,1,0,0)" opacity="0.816327" style="fill:rgb(255, 255, 255);transform:matrix(1, 0, 0, 1, 0, 0);opacity:0.816327;;animation:none"></path>
<path fill="#fff" d="M1666 619.5 L684.9727653028312 619.5 A15.5 15.5 0 0 1 684.9727653028312 651.5 L1666 651.5" transform="matrix(1,0,0,1,31.895456314086914,0)" style="fill:rgb(255, 255, 255);transform:matrix(1, 0, 0, 1, 31.8955, 0);;animation:none"></path>
<path fill="#000" d="M1410.5636559182376 619.5 L1424.1273118364752 619.5 A15.5 15.5 0 0 1 1424.1273118364752 651.5 L1410.5636559182376 651.5 A15.5 15.5 0 0 1 1410.5636559182376 619.5" transform="matrix(1,0,0,1,-744.2849731445312,0)" opacity="0.612244" style="fill:rgb(0, 0, 0);transform:matrix(1, 0, 0, 1, -744.285, 0);opacity:0.612244;;animation:none"></path></g></mask></defs>


<rect mask="url(#ldbk-photon-qixpw0jsvbs-mask)" fill="url(#ldbk-photon-qixpw0jsvbs-lg)" height="641" width="1366" y="0" x="0" style="fill:url('#ldbk-photon-qixpw0jsvbs-lg');;animation:none"></rect>
<g></g></g><!-- [ldio] generated by https://loading.io --></svg>