<svg xmlns="http://www.w3.org/2000/svg" version="1.1" xmlns:xlink="http://www.w3.org/1999/xlink" xmlns:svgjs="http://svgjs.dev/svgjs" width="1440" height="560" preserveAspectRatio="none" viewBox="0 0 1440 560"><g mask="url(&quot;#SvgjsMask1020&quot;)" fill="none"><path d="M-51.63 377.69L-51.63 377.69" stroke="rgba(0, 43, 26, 1)" stroke-width="1.5"></path><path d="M-51.63 377.69L-44.3 490.13" stroke="rgba(0, 43, 26, 1)" stroke-width="1.5"></path><path d="M-51.63 377.69L95.01 337.7" stroke="rgba(0, 43, 26, 1)" stroke-width="1.5"></path><path d="M-44.3 490.13L-44.3 490.13" stroke="rgba(0, 43, 26, 1)" stroke-width="1.5"></path><path d="M-44.3 490.13L98.63 562.26" stroke="rgba(0, 43, 26, 1)" stroke-width="1.5"></path><path d="M-44.3 490.13L-69.12 652.58" stroke="rgba(0, 43, 26, 1)" stroke-width="1.5"></path><path d="M-44.3 490.13L72.36 647.32" stroke="rgba(0, 43, 26, 1)" stroke-width="1.5"></path><path d="M-69.12 652.58L-69.12 652.58" stroke="rgba(0, 43, 26, 1)" stroke-width="1.5"></path><path d="M-69.12 652.58L72.36 647.32" stroke="rgba(0, 43, 26, 1)" stroke-width="1.5"></path><path d="M-69.12 652.58L98.63 562.26" stroke="rgba(0, 43, 26, 1)" stroke-width="1.5"></path><path d="M-69.12 652.58L-51.63 377.69" stroke="rgba(0, 43, 26, 1)" stroke-width="1.5"></path><path d="M-69.12 652.58L246.47 672.16" stroke="rgba(0, 43, 26, 1)" stroke-width="1.5"></path><path d="M95.01 337.7L95.01 337.7" stroke="rgba(0, 43, 26, 1)" stroke-width="1.5"></path><path d="M95.01 337.7L249.91 394.15" stroke="rgba(0, 43, 26, 1)" stroke-width="1.5"></path><path d="M98.63 562.26L98.63 562.26" stroke="rgba(0, 43, 26, 1)" stroke-width="1.5"></path><path d="M98.63 562.26L72.36 647.32" stroke="rgba(0, 43, 26, 1)" stroke-width="1.5"></path><path d="M98.63 562.26L227.47 527.64" stroke="rgba(0, 43, 26, 1)" stroke-width="1.5"></path><path d="M72.36 647.32L72.36 647.32" stroke="rgba(0, 43, 26, 1)" stroke-width="1.5"></path><path d="M72.36 647.32L246.47 672.16" stroke="rgba(0, 43, 26, 1)" stroke-width="1.5"></path><path d="M72.36 647.32L227.47 527.64" stroke="rgba(0, 43, 26, 1)" stroke-width="1.5"></path><path d="M72.36 647.32L-51.63 377.69" stroke="rgba(0, 43, 26, 1)" stroke-width="1.5"></path><path d="M249.91 394.15L249.91 394.15" stroke="rgba(0, 43, 26, 1)" stroke-width="1.5"></path><path d="M249.91 394.15L369.73 337.58" stroke="rgba(0, 43, 26, 1)" stroke-width="1.5"></path><path d="M249.91 394.15L227.47 527.64" stroke="rgba(0, 43, 26, 1)" stroke-width="1.5"></path><path d="M227.47 527.64L227.47 527.64" stroke="rgba(0, 43, 26, 1)" stroke-width="1.5"></path><path d="M246.47 672.16L246.47 672.16" stroke="rgba(0, 43, 26, 1)" stroke-width="1.5"></path><path d="M246.47 672.16L384.38 693.44" stroke="rgba(0, 43, 26, 1)" stroke-width="1.5"></path><path d="M369.73 337.58L369.73 337.58" stroke="rgba(0, 43, 26, 1)" stroke-width="1.5"></path><path d="M369.73 337.58L382.09 507.14" stroke="rgba(0, 43, 26, 1)" stroke-width="1.5"></path><path d="M369.73 337.58L554.91 392.65" stroke="rgba(0, 43, 26, 1)" stroke-width="1.5"></path><path d="M369.73 337.58L227.47 527.64" stroke="rgba(0, 43, 26, 1)" stroke-width="1.5"></path><path d="M382.09 507.14L382.09 507.14" stroke="rgba(0, 43, 26, 1)" stroke-width="1.5"></path><path d="M382.09 507.14L227.47 527.64" stroke="rgba(0, 43, 26, 1)" stroke-width="1.5"></path><path d="M382.09 507.14L543.45 514.64" stroke="rgba(0, 43, 26, 1)" stroke-width="1.5"></path><path d="M384.38 693.44L384.38 693.44" stroke="rgba(0, 43, 26, 1)" stroke-width="1.5"></path><path d="M384.38 693.44L488.96 683.95" stroke="rgba(0, 43, 26, 1)" stroke-width="1.5"></path><path d="M384.38 693.44L382.09 507.14" stroke="rgba(0, 43, 26, 1)" stroke-width="1.5"></path><path d="M384.38 693.44L227.47 527.64" stroke="rgba(0, 43, 26, 1)" stroke-width="1.5"></path><path d="M384.38 693.44L543.45 514.64" stroke="rgba(0, 43, 26, 1)" stroke-width="1.5"></path><path d="M554.91 392.65L554.91 392.65" stroke="rgba(0, 43, 26, 1)" stroke-width="1.5"></path><path d="M554.91 392.65L660.48 349.42" stroke="rgba(0, 43, 26, 1)" stroke-width="1.5"></path><path d="M554.91 392.65L543.45 514.64" stroke="rgba(0, 43, 26, 1)" stroke-width="1.5"></path><path d="M554.91 392.65L677.16 528.44" stroke="rgba(0, 43, 26, 1)" stroke-width="1.5"></path><path d="M554.91 392.65L382.09 507.14" stroke="rgba(0, 43, 26, 1)" stroke-width="1.5"></path><path d="M543.45 514.64L543.45 514.64" stroke="rgba(0, 43, 26, 1)" stroke-width="1.5"></path><path d="M543.45 514.64L677.16 528.44" stroke="rgba(0, 43, 26, 1)" stroke-width="1.5"></path><path d="M488.96 683.95L488.96 683.95" stroke="rgba(0, 43, 26, 1)" stroke-width="1.5"></path><path d="M488.96 683.95L543.45 514.64" stroke="rgba(0, 43, 26, 1)" stroke-width="1.5"></path><path d="M488.96 683.95L669.54 699.07" stroke="rgba(0, 43, 26, 1)" stroke-width="1.5"></path><path d="M488.96 683.95L382.09 507.14" stroke="rgba(0, 43, 26, 1)" stroke-width="1.5"></path><path d="M679.45 209.14L679.45 209.14" stroke="rgba(0, 43, 26, 1)" stroke-width="1.5"></path><path d="M679.45 209.14L790.96 206.39" stroke="rgba(0, 43, 26, 1)" stroke-width="1.5"></path><path d="M679.45 209.14L660.48 349.42" stroke="rgba(0, 43, 26, 1)" stroke-width="1.5"></path><path d="M679.45 209.14L841.62 95.54" stroke="rgba(0, 43, 26, 1)" stroke-width="1.5"></path><path d="M679.45 209.14L554.91 392.65" stroke="rgba(0, 43, 26, 1)" stroke-width="1.5"></path><path d="M679.45 209.14L819.53 409.01" stroke="rgba(0, 43, 26, 1)" stroke-width="1.5"></path><path d="M679.45 209.14L995.03 243.64" stroke="rgba(0, 43, 26, 1)" stroke-width="1.5"></path><path d="M660.48 349.42L660.48 349.42" stroke="rgba(0, 43, 26, 1)" stroke-width="1.5"></path><path d="M660.48 349.42L819.53 409.01" stroke="rgba(0, 43, 26, 1)" stroke-width="1.5"></path><path d="M660.48 349.42L677.16 528.44" stroke="rgba(0, 43, 26, 1)" stroke-width="1.5"></path><path d="M677.16 528.44L677.16 528.44" stroke="rgba(0, 43, 26, 1)" stroke-width="1.5"></path><path d="M669.54 699.07L669.54 699.07" stroke="rgba(0, 43, 26, 1)" stroke-width="1.5"></path><path d="M669.54 699.07L798.46 675.12" stroke="rgba(0, 43, 26, 1)" stroke-width="1.5"></path><path d="M669.54 699.07L677.16 528.44" stroke="rgba(0, 43, 26, 1)" stroke-width="1.5"></path><path d="M669.54 699.07L543.45 514.64" stroke="rgba(0, 43, 26, 1)" stroke-width="1.5"></path><path d="M841.62 95.54L841.62 95.54" stroke="rgba(0, 43, 26, 1)" stroke-width="1.5"></path><path d="M841.62 95.54L790.96 206.39" stroke="rgba(0, 43, 26, 1)" stroke-width="1.5"></path><path d="M841.62 95.54L1008.37 53.84" stroke="rgba(0, 43, 26, 1)" stroke-width="1.5"></path><path d="M841.62 95.54L992.49 -41.58" stroke="rgba(0, 43, 26, 1)" stroke-width="1.5"></path><path d="M790.96 206.39L790.96 206.39" stroke="rgba(0, 43, 26, 1)" stroke-width="1.5"></path><path d="M790.96 206.39L660.48 349.42" stroke="rgba(0, 43, 26, 1)" stroke-width="1.5"></path><path d="M790.96 206.39L819.53 409.01" stroke="rgba(0, 43, 26, 1)" stroke-width="1.5"></path><path d="M790.96 206.39L995.03 243.64" stroke="rgba(0, 43, 26, 1)" stroke-width="1.5"></path><path d="M819.53 409.01L819.53 409.01" stroke="rgba(0, 43, 26, 1)" stroke-width="1.5"></path><path d="M819.53 409.01L844.06 538.11" stroke="rgba(0, 43, 26, 1)" stroke-width="1.5"></path><path d="M819.53 409.01L957.5 396.47" stroke="rgba(0, 43, 26, 1)" stroke-width="1.5"></path><path d="M819.53 409.01L677.16 528.44" stroke="rgba(0, 43, 26, 1)" stroke-width="1.5"></path><path d="M819.53 409.01L982.08 540.63" stroke="rgba(0, 43, 26, 1)" stroke-width="1.5"></path><path d="M844.06 538.11L844.06 538.11" stroke="rgba(0, 43, 26, 1)" stroke-width="1.5"></path><path d="M844.06 538.11L982.08 540.63" stroke="rgba(0, 43, 26, 1)" stroke-width="1.5"></path><path d="M844.06 538.11L798.46 675.12" stroke="rgba(0, 43, 26, 1)" stroke-width="1.5"></path><path d="M798.46 675.12L798.46 675.12" stroke="rgba(0, 43, 26, 1)" stroke-width="1.5"></path><path d="M992.49 -41.58L992.49 -41.58" stroke="rgba(0, 43, 26, 1)" stroke-width="1.5"></path><path d="M992.49 -41.58L1008.37 53.84" stroke="rgba(0, 43, 26, 1)" stroke-width="1.5"></path><path d="M992.49 -41.58L1152.58 -63.41" stroke="rgba(0, 43, 26, 1)" stroke-width="1.5"></path><path d="M992.49 -41.58L1148.16 102.41" stroke="rgba(0, 43, 26, 1)" stroke-width="1.5"></path><path d="M992.49 -41.58L1244.41 -60.23" stroke="rgba(0, 43, 26, 1)" stroke-width="1.5"></path><path d="M1008.37 53.84L1008.37 53.84" stroke="rgba(0, 43, 26, 1)" stroke-width="1.5"></path><path d="M995.03 243.64L995.03 243.64" stroke="rgba(0, 43, 26, 1)" stroke-width="1.5"></path><path d="M995.03 243.64L1133.47 239.73" stroke="rgba(0, 43, 26, 1)" stroke-width="1.5"></path><path d="M995.03 243.64L1091.7 360.88" stroke="rgba(0, 43, 26, 1)" stroke-width="1.5"></path><path d="M957.5 396.47L957.5 396.47" stroke="rgba(0, 43, 26, 1)" stroke-width="1.5"></path><path d="M957.5 396.47L1091.7 360.88" stroke="rgba(0, 43, 26, 1)" stroke-width="1.5"></path><path d="M957.5 396.47L982.08 540.63" stroke="rgba(0, 43, 26, 1)" stroke-width="1.5"></path><path d="M957.5 396.47L995.03 243.64" stroke="rgba(0, 43, 26, 1)" stroke-width="1.5"></path><path d="M982.08 540.63L982.08 540.63" stroke="rgba(0, 43, 26, 1)" stroke-width="1.5"></path><path d="M982.08 540.63L1094.71 542.59" stroke="rgba(0, 43, 26, 1)" stroke-width="1.5"></path><path d="M982.08 540.63L956.91 681.22" stroke="rgba(0, 43, 26, 1)" stroke-width="1.5"></path><path d="M982.08 540.63L1153.95 646.27" stroke="rgba(0, 43, 26, 1)" stroke-width="1.5"></path><path d="M956.91 681.22L956.91 681.22" stroke="rgba(0, 43, 26, 1)" stroke-width="1.5"></path><path d="M956.91 681.22L798.46 675.12" stroke="rgba(0, 43, 26, 1)" stroke-width="1.5"></path><path d="M956.91 681.22L844.06 538.11" stroke="rgba(0, 43, 26, 1)" stroke-width="1.5"></path><path d="M956.91 681.22L1094.71 542.59" stroke="rgba(0, 43, 26, 1)" stroke-width="1.5"></path><path d="M1152.58 -63.41L1152.58 -63.41" stroke="rgba(0, 43, 26, 1)" stroke-width="1.5"></path><path d="M1152.58 -63.41L1244.41 -60.23" stroke="rgba(0, 43, 26, 1)" stroke-width="1.5"></path><path d="M1148.16 102.41L1148.16 102.41" stroke="rgba(0, 43, 26, 1)" stroke-width="1.5"></path><path d="M1148.16 102.41L1133.47 239.73" stroke="rgba(0, 43, 26, 1)" stroke-width="1.5"></path><path d="M1148.16 102.41L1008.37 53.84" stroke="rgba(0, 43, 26, 1)" stroke-width="1.5"></path><path d="M1148.16 102.41L1297.04 97" stroke="rgba(0, 43, 26, 1)" stroke-width="1.5"></path><path d="M1148.16 102.41L1152.58 -63.41" stroke="rgba(0, 43, 26, 1)" stroke-width="1.5"></path><path d="M1148.16 102.41L1244.41 -60.23" stroke="rgba(0, 43, 26, 1)" stroke-width="1.5"></path><path d="M1148.16 102.41L995.03 243.64" stroke="rgba(0, 43, 26, 1)" stroke-width="1.5"></path><path d="M1133.47 239.73L1133.47 239.73" stroke="rgba(0, 43, 26, 1)" stroke-width="1.5"></path><path d="M1133.47 239.73L1091.7 360.88" stroke="rgba(0, 43, 26, 1)" stroke-width="1.5"></path><path d="M1133.47 239.73L1308.11 254.5" stroke="rgba(0, 43, 26, 1)" stroke-width="1.5"></path><path d="M1133.47 239.73L1247.28 390.36" stroke="rgba(0, 43, 26, 1)" stroke-width="1.5"></path><path d="M1091.7 360.88L1091.7 360.88" stroke="rgba(0, 43, 26, 1)" stroke-width="1.5"></path><path d="M1094.71 542.59L1094.71 542.59" stroke="rgba(0, 43, 26, 1)" stroke-width="1.5"></path><path d="M1094.71 542.59L1153.95 646.27" stroke="rgba(0, 43, 26, 1)" stroke-width="1.5"></path><path d="M1094.71 542.59L1091.7 360.88" stroke="rgba(0, 43, 26, 1)" stroke-width="1.5"></path><path d="M1094.71 542.59L1244.69 661.15" stroke="rgba(0, 43, 26, 1)" stroke-width="1.5"></path><path d="M1153.95 646.27L1153.95 646.27" stroke="rgba(0, 43, 26, 1)" stroke-width="1.5"></path><path d="M1153.95 646.27L1244.69 661.15" stroke="rgba(0, 43, 26, 1)" stroke-width="1.5"></path><path d="M1153.95 646.27L1305.72 526.41" stroke="rgba(0, 43, 26, 1)" stroke-width="1.5"></path><path d="M1153.95 646.27L956.91 681.22" stroke="rgba(0, 43, 26, 1)" stroke-width="1.5"></path><path d="M1153.95 646.27L1247.28 390.36" stroke="rgba(0, 43, 26, 1)" stroke-width="1.5"></path><path d="M1244.41 -60.23L1244.41 -60.23" stroke="rgba(0, 43, 26, 1)" stroke-width="1.5"></path><path d="M1244.41 -60.23L1297.04 97" stroke="rgba(0, 43, 26, 1)" stroke-width="1.5"></path><path d="M1244.41 -60.23L1445.16 -50.4" stroke="rgba(0, 43, 26, 1)" stroke-width="1.5"></path><path d="M1297.04 97L1297.04 97" stroke="rgba(0, 43, 26, 1)" stroke-width="1.5"></path><path d="M1297.04 97L1308.11 254.5" stroke="rgba(0, 43, 26, 1)" stroke-width="1.5"></path><path d="M1297.04 97L1459.28 98.37" stroke="rgba(0, 43, 26, 1)" stroke-width="1.5"></path><path d="M1308.11 254.5L1308.11 254.5" stroke="rgba(0, 43, 26, 1)" stroke-width="1.5"></path><path d="M1308.11 254.5L1247.28 390.36" stroke="rgba(0, 43, 26, 1)" stroke-width="1.5"></path><path d="M1308.11 254.5L1452.09 190.93" stroke="rgba(0, 43, 26, 1)" stroke-width="1.5"></path><path d="M1308.11 254.5L1440.32 362.35" stroke="rgba(0, 43, 26, 1)" stroke-width="1.5"></path><path d="M1247.28 390.36L1247.28 390.36" stroke="rgba(0, 43, 26, 1)" stroke-width="1.5"></path><path d="M1247.28 390.36L1305.72 526.41" stroke="rgba(0, 43, 26, 1)" stroke-width="1.5"></path><path d="M1247.28 390.36L1091.7 360.88" stroke="rgba(0, 43, 26, 1)" stroke-width="1.5"></path><path d="M1247.28 390.36L1440.32 362.35" stroke="rgba(0, 43, 26, 1)" stroke-width="1.5"></path><path d="M1305.72 526.41L1305.72 526.41" stroke="rgba(0, 43, 26, 1)" stroke-width="1.5"></path><path d="M1305.72 526.41L1420.01 537.16" stroke="rgba(0, 43, 26, 1)" stroke-width="1.5"></path><path d="M1305.72 526.41L1244.69 661.15" stroke="rgba(0, 43, 26, 1)" stroke-width="1.5"></path><path d="M1305.72 526.41L1094.71 542.59" stroke="rgba(0, 43, 26, 1)" stroke-width="1.5"></path><path d="M1244.69 661.15L1244.69 661.15" stroke="rgba(0, 43, 26, 1)" stroke-width="1.5"></path><path d="M1244.69 661.15L1449.93 683.04" stroke="rgba(0, 43, 26, 1)" stroke-width="1.5"></path><path d="M1244.69 661.15L1420.01 537.16" stroke="rgba(0, 43, 26, 1)" stroke-width="1.5"></path><path d="M1445.16 -50.4L1445.16 -50.4" stroke="rgba(0, 43, 26, 1)" stroke-width="1.5"></path><path d="M1445.16 -50.4L1574.83 -104.27" stroke="rgba(0, 43, 26, 1)" stroke-width="1.5"></path><path d="M1445.16 -50.4L1459.28 98.37" stroke="rgba(0, 43, 26, 1)" stroke-width="1.5"></path><path d="M1445.16 -50.4L1562.32 98.54" stroke="rgba(0, 43, 26, 1)" stroke-width="1.5"></path><path d="M1459.28 98.37L1459.28 98.37" stroke="rgba(0, 43, 26, 1)" stroke-width="1.5"></path><path d="M1459.28 98.37L1452.09 190.93" stroke="rgba(0, 43, 26, 1)" stroke-width="1.5"></path><path d="M1459.28 98.37L1562.32 98.54" stroke="rgba(0, 43, 26, 1)" stroke-width="1.5"></path><path d="M1452.09 190.93L1452.09 190.93" stroke="rgba(0, 43, 26, 1)" stroke-width="1.5"></path><path d="M1452.09 190.93L1539.82 242.1" stroke="rgba(0, 43, 26, 1)" stroke-width="1.5"></path><path d="M1452.09 190.93L1562.32 98.54" stroke="rgba(0, 43, 26, 1)" stroke-width="1.5"></path><path d="M1440.32 362.35L1440.32 362.35" stroke="rgba(0, 43, 26, 1)" stroke-width="1.5"></path><path d="M1440.32 362.35L1539.82 242.1" stroke="rgba(0, 43, 26, 1)" stroke-width="1.5"></path><path d="M1440.32 362.35L1606.62 359.04" stroke="rgba(0, 43, 26, 1)" stroke-width="1.5"></path><path d="M1420.01 537.16L1420.01 537.16" stroke="rgba(0, 43, 26, 1)" stroke-width="1.5"></path><path d="M1420.01 537.16L1449.93 683.04" stroke="rgba(0, 43, 26, 1)" stroke-width="1.5"></path><path d="M1420.01 537.16L1440.32 362.35" stroke="rgba(0, 43, 26, 1)" stroke-width="1.5"></path><path d="M1420.01 537.16L1603.63 534.07" stroke="rgba(0, 43, 26, 1)" stroke-width="1.5"></path><path d="M1420.01 537.16L1605.89 654.61" stroke="rgba(0, 43, 26, 1)" stroke-width="1.5"></path><path d="M1449.93 683.04L1449.93 683.04" stroke="rgba(0, 43, 26, 1)" stroke-width="1.5"></path><path d="M1449.93 683.04L1605.89 654.61" stroke="rgba(0, 43, 26, 1)" stroke-width="1.5"></path><path d="M1449.93 683.04L1305.72 526.41" stroke="rgba(0, 43, 26, 1)" stroke-width="1.5"></path><path d="M1449.93 683.04L1603.63 534.07" stroke="rgba(0, 43, 26, 1)" stroke-width="1.5"></path><path d="M1574.83 -104.27L1574.83 -104.27" stroke="rgba(0, 43, 26, 1)" stroke-width="1.5"></path><path d="M1562.32 98.54L1562.32 98.54" stroke="rgba(0, 43, 26, 1)" stroke-width="1.5"></path><path d="M1562.32 98.54L1539.82 242.1" stroke="rgba(0, 43, 26, 1)" stroke-width="1.5"></path><path d="M1562.32 98.54L1574.83 -104.27" stroke="rgba(0, 43, 26, 1)" stroke-width="1.5"></path><path d="M1539.82 242.1L1539.82 242.1" stroke="rgba(0, 43, 26, 1)" stroke-width="1.5"></path><path d="M1539.82 242.1L1606.62 359.04" stroke="rgba(0, 43, 26, 1)" stroke-width="1.5"></path><path d="M1606.62 359.04L1606.62 359.04" stroke="rgba(0, 43, 26, 1)" stroke-width="1.5"></path><path d="M1606.62 359.04L1603.63 534.07" stroke="rgba(0, 43, 26, 1)" stroke-width="1.5"></path><path d="M1606.62 359.04L1452.09 190.93" stroke="rgba(0, 43, 26, 1)" stroke-width="1.5"></path><path d="M1606.62 359.04L1420.01 537.16" stroke="rgba(0, 43, 26, 1)" stroke-width="1.5"></path><path d="M1603.63 534.07L1603.63 534.07" stroke="rgba(0, 43, 26, 1)" stroke-width="1.5"></path><path d="M1603.63 534.07L1605.89 654.61" stroke="rgba(0, 43, 26, 1)" stroke-width="1.5"></path><path d="M1605.89 654.61L1605.89 654.61" stroke="rgba(0, 43, 26, 1)" stroke-width="1.5"></path><circle r="5" cx="-51.63" cy="377.69" fill="rgba(0, 43, 26, 1)"></circle><circle r="5" cx="-44.3" cy="490.13" fill="rgba(0, 43, 26, 1)"></circle><circle r="5" cx="-69.12" cy="652.58" fill="rgba(0, 43, 26, 1)"></circle><circle r="5" cx="95.01" cy="337.7" fill="rgba(0, 43, 26, 1)"></circle><circle r="5" cx="98.63" cy="562.26" fill="rgba(0, 43, 26, 1)"></circle><circle r="5" cx="72.36" cy="647.32" fill="rgba(0, 43, 26, 1)"></circle><circle r="5" cx="249.91" cy="394.15" fill="rgba(0, 43, 26, 1)"></circle><circle r="5" cx="227.47" cy="527.64" fill="rgba(0, 43, 26, 1)"></circle><circle r="5" cx="246.47" cy="672.16" fill="rgba(0, 43, 26, 1)"></circle><circle r="5" cx="369.73" cy="337.58" fill="rgba(0, 43, 26, 1)"></circle><circle r="5" cx="382.09" cy="507.14" fill="rgba(0, 43, 26, 1)"></circle><circle r="5" cx="384.38" cy="693.44" fill="rgba(0, 43, 26, 1)"></circle><circle r="5" cx="554.91" cy="392.65" fill="rgba(0, 43, 26, 1)"></circle><circle r="5" cx="543.45" cy="514.64" fill="rgba(0, 43, 26, 1)"></circle><circle r="5" cx="488.96" cy="683.95" fill="rgba(0, 43, 26, 1)"></circle><circle r="5" cx="679.45" cy="209.14" fill="rgba(0, 43, 26, 1)"></circle><circle r="5" cx="660.48" cy="349.42" fill="rgba(0, 43, 26, 1)"></circle><circle r="5" cx="677.16" cy="528.44" fill="rgba(0, 43, 26, 1)"></circle><circle r="5" cx="669.54" cy="699.07" fill="rgba(0, 43, 26, 1)"></circle><circle r="5" cx="841.62" cy="95.54" fill="rgba(0, 43, 26, 1)"></circle><circle r="5" cx="790.96" cy="206.39" fill="rgba(0, 43, 26, 1)"></circle><circle r="5" cx="819.53" cy="409.01" fill="rgba(0, 43, 26, 1)"></circle><circle r="5" cx="844.06" cy="538.11" fill="rgba(0, 43, 26, 1)"></circle><circle r="5" cx="798.46" cy="675.12" fill="rgba(0, 43, 26, 1)"></circle><circle r="5" cx="992.49" cy="-41.58" fill="rgba(0, 43, 26, 1)"></circle><circle r="5" cx="1008.37" cy="53.84" fill="rgba(0, 43, 26, 1)"></circle><circle r="5" cx="995.03" cy="243.64" fill="rgba(0, 43, 26, 1)"></circle><circle r="5" cx="957.5" cy="396.47" fill="rgba(0, 43, 26, 1)"></circle><circle r="5" cx="982.08" cy="540.63" fill="rgba(0, 43, 26, 1)"></circle><circle r="5" cx="956.91" cy="681.22" fill="rgba(0, 43, 26, 1)"></circle><circle r="5" cx="1152.58" cy="-63.41" fill="rgba(0, 43, 26, 1)"></circle><circle r="5" cx="1148.16" cy="102.41" fill="rgba(0, 43, 26, 1)"></circle><circle r="5" cx="1133.47" cy="239.73" fill="rgba(0, 43, 26, 1)"></circle><circle r="5" cx="1091.7" cy="360.88" fill="rgba(0, 43, 26, 1)"></circle><circle r="5" cx="1094.71" cy="542.59" fill="rgba(0, 43, 26, 1)"></circle><circle r="5" cx="1153.95" cy="646.27" fill="rgba(0, 43, 26, 1)"></circle><circle r="5" cx="1244.41" cy="-60.23" fill="rgba(0, 43, 26, 1)"></circle><circle r="5" cx="1297.04" cy="97" fill="rgba(0, 43, 26, 1)"></circle><circle r="5" cx="1308.11" cy="254.5" fill="rgba(0, 43, 26, 1)"></circle><circle r="5" cx="1247.28" cy="390.36" fill="rgba(0, 43, 26, 1)"></circle><circle r="5" cx="1305.72" cy="526.41" fill="rgba(0, 43, 26, 1)"></circle><circle r="5" cx="1244.69" cy="661.15" fill="rgba(0, 43, 26, 1)"></circle><circle r="5" cx="1445.16" cy="-50.4" fill="rgba(0, 43, 26, 1)"></circle><circle r="5" cx="1459.28" cy="98.37" fill="rgba(0, 43, 26, 1)"></circle><circle r="5" cx="1452.09" cy="190.93" fill="rgba(0, 43, 26, 1)"></circle><circle r="5" cx="1440.32" cy="362.35" fill="rgba(0, 43, 26, 1)"></circle><circle r="5" cx="1420.01" cy="537.16" fill="rgba(0, 43, 26, 1)"></circle><circle r="5" cx="1449.93" cy="683.04" fill="rgba(0, 43, 26, 1)"></circle><circle r="5" cx="1574.83" cy="-104.27" fill="rgba(0, 43, 26, 1)"></circle><circle r="5" cx="1562.32" cy="98.54" fill="rgba(0, 43, 26, 1)"></circle><circle r="5" cx="1539.82" cy="242.1" fill="rgba(0, 43, 26, 1)"></circle><circle r="5" cx="1606.62" cy="359.04" fill="rgba(0, 43, 26, 1)"></circle><circle r="5" cx="1603.63" cy="534.07" fill="rgba(0, 43, 26, 1)"></circle><circle r="5" cx="1605.89" cy="654.61" fill="rgba(0, 43, 26, 1)"></circle><path d="M-71.46 656.07L-71.46 656.07" stroke="hsl(161.60000000000002, 100%, 21.7%)" stroke-width="1.5"></path><path d="M-71.46 656.07L-74.6 488.82" stroke="hsl(161.60000000000002, 100%, 21.7%)" stroke-width="1.5"></path><path d="M-71.46 656.07L109.09 675.63" stroke="hsl(161.60000000000002, 100%, 21.7%)" stroke-width="1.5"></path><path d="M-71.46 656.07L89.65 504.15" stroke="hsl(161.60000000000002, 100%, 21.7%)" stroke-width="1.5"></path><path d="M-71.46 656.07L201.21 554.48" stroke="hsl(161.60000000000002, 100%, 21.7%)" stroke-width="1.5"></path><path d="M-71.46 656.07L231.49 654.83" stroke="hsl(161.60000000000002, 100%, 21.7%)" stroke-width="1.5"></path><path d="M-71.46 656.07L362.09 642.26" stroke="hsl(161.60000000000002, 100%, 21.7%)" stroke-width="1.5"></path><path d="M377.46 559.18L377.46 559.18" stroke="hsl(161.60000000000002, 100%, 21.7%)" stroke-width="1.5"></path><path d="M377.46 559.18L362.09 642.26" stroke="hsl(161.60000000000002, 100%, 21.7%)" stroke-width="1.5"></path><path d="M377.46 559.18L231.49 654.83" stroke="hsl(161.60000000000002, 100%, 21.7%)" stroke-width="1.5"></path><path d="M377.46 559.18L201.21 554.48" stroke="hsl(161.60000000000002, 100%, 21.7%)" stroke-width="1.5"></path><path d="M377.46 559.18L553.65 525.8" stroke="hsl(161.60000000000002, 100%, 21.7%)" stroke-width="1.5"></path><path d="M377.46 559.18L561.74 647.74" stroke="hsl(161.60000000000002, 100%, 21.7%)" stroke-width="1.5"></path><path d="M377.46 559.18L661.09 495.6" stroke="hsl(161.60000000000002, 100%, 21.7%)" stroke-width="1.5"></path><path d="M711.63 643.58L711.63 643.58" stroke="hsl(161.60000000000002, 100%, 21.7%)" stroke-width="1.5"></path><path d="M711.63 643.58L802.2 663.35" stroke="hsl(161.60000000000002, 100%, 21.7%)" stroke-width="1.5"></path><path d="M711.63 643.58L809.56 544.48" stroke="hsl(161.60000000000002, 100%, 21.7%)" stroke-width="1.5"></path><path d="M711.63 643.58L561.74 647.74" stroke="hsl(161.60000000000002, 100%, 21.7%)" stroke-width="1.5"></path><path d="M983.11 704.26L983.11 704.26" stroke="hsl(161.60000000000002, 100%, 21.7%)" stroke-width="1.5"></path><path d="M983.11 704.26L955.69 553.82" stroke="hsl(161.60000000000002, 100%, 21.7%)" stroke-width="1.5"></path><path d="M983.11 704.26L1147.94 707.23" stroke="hsl(161.60000000000002, 100%, 21.7%)" stroke-width="1.5"></path><path d="M1103.86 371.58L1103.86 371.58" stroke="hsl(161.60000000000002, 100%, 21.7%)" stroke-width="1.5"></path><path d="M1103.86 371.58L1007.61 367.41" stroke="hsl(161.60000000000002, 100%, 21.7%)" stroke-width="1.5"></path><path d="M1103.86 371.58L1143.92 237.54" stroke="hsl(161.60000000000002, 100%, 21.7%)" stroke-width="1.5"></path><path d="M1103.86 371.58L1128.86 514.38" stroke="hsl(161.60000000000002, 100%, 21.7%)" stroke-width="1.5"></path><path d="M1103.86 371.58L1251.22 393.95" stroke="hsl(161.60000000000002, 100%, 21.7%)" stroke-width="1.5"></path><path d="M1103.86 371.58L1245.45 194.54" stroke="hsl(161.60000000000002, 100%, 21.7%)" stroke-width="1.5"></path><path d="M1128.86 514.38L1128.86 514.38" stroke="hsl(161.60000000000002, 100%, 21.7%)" stroke-width="1.5"></path><path d="M1128.86 514.38L1298.1 509.67" stroke="hsl(161.60000000000002, 100%, 21.7%)" stroke-width="1.5"></path><path d="M1128.86 514.38L1251.22 393.95" stroke="hsl(161.60000000000002, 100%, 21.7%)" stroke-width="1.5"></path><path d="M1128.86 514.38L955.69 553.82" stroke="hsl(161.60000000000002, 100%, 21.7%)" stroke-width="1.5"></path><path d="M1147.94 707.23L1147.94 707.23" stroke="hsl(161.60000000000002, 100%, 21.7%)" stroke-width="1.5"></path><path d="M1147.94 707.23L1287.31 680.49" stroke="hsl(161.60000000000002, 100%, 21.7%)" stroke-width="1.5"></path><path d="M1147.94 707.23L1128.86 514.38" stroke="hsl(161.60000000000002, 100%, 21.7%)" stroke-width="1.5"></path><path d="M1147.94 707.23L955.69 553.82" stroke="hsl(161.60000000000002, 100%, 21.7%)" stroke-width="1.5"></path><path d="M1251.22 393.95L1251.22 393.95" stroke="hsl(161.60000000000002, 100%, 21.7%)" stroke-width="1.5"></path><path d="M1251.22 393.95L1298.1 509.67" stroke="hsl(161.60000000000002, 100%, 21.7%)" stroke-width="1.5"></path><path d="M1251.22 393.95L1399.09 349.9" stroke="hsl(161.60000000000002, 100%, 21.7%)" stroke-width="1.5"></path><path d="M1425.82 68.5L1425.82 68.5" stroke="hsl(161.60000000000002, 100%, 21.7%)" stroke-width="1.5"></path><path d="M1425.82 68.5L1303.4 51.96" stroke="hsl(161.60000000000002, 100%, 21.7%)" stroke-width="1.5"></path><path d="M1425.82 68.5L1429.73 199.04" stroke="hsl(161.60000000000002, 100%, 21.7%)" stroke-width="1.5"></path><path d="M1425.82 68.5L1555.35 92.16" stroke="hsl(161.60000000000002, 100%, 21.7%)" stroke-width="1.5"></path><path d="M1425.82 68.5L1407.53 -63.45" stroke="hsl(161.60000000000002, 100%, 21.7%)" stroke-width="1.5"></path><path d="M1425.82 68.5L1541.76 -54.24" stroke="hsl(161.60000000000002, 100%, 21.7%)" stroke-width="1.5"></path><path d="M1425.82 68.5L1245.45 194.54" stroke="hsl(161.60000000000002, 100%, 21.7%)" stroke-width="1.5"></path><path d="M1399.09 349.9L1399.09 349.9" stroke="hsl(161.60000000000002, 100%, 21.7%)" stroke-width="1.5"></path><path d="M1399.09 349.9L1429.73 199.04" stroke="hsl(161.60000000000002, 100%, 21.7%)" stroke-width="1.5"></path><path d="M1399.09 349.9L1441.92 518.32" stroke="hsl(161.60000000000002, 100%, 21.7%)" stroke-width="1.5"></path><path d="M1441.92 518.32L1441.92 518.32" stroke="hsl(161.60000000000002, 100%, 21.7%)" stroke-width="1.5"></path><path d="M1441.92 518.32L1298.1 509.67" stroke="hsl(161.60000000000002, 100%, 21.7%)" stroke-width="1.5"></path><path d="M1457.97 682.48L1457.97 682.48" stroke="hsl(161.60000000000002, 100%, 21.7%)" stroke-width="1.5"></path><path d="M1457.97 682.48L1441.92 518.32" stroke="hsl(161.60000000000002, 100%, 21.7%)" stroke-width="1.5"></path><path d="M1457.97 682.48L1287.31 680.49" stroke="hsl(161.60000000000002, 100%, 21.7%)" stroke-width="1.5"></path><path d="M1457.97 682.48L1593.03 499.22" stroke="hsl(161.60000000000002, 100%, 21.7%)" stroke-width="1.5"></path><path d="M-74.6 488.82L-74.6 488.82" stroke="hsl(161.60000000000002, 100%, 21.7%)" stroke-width="1.5"></path><path d="M-74.6 488.82L89.65 504.15" stroke="hsl(161.60000000000002, 100%, 21.7%)" stroke-width="1.5"></path><path d="M-74.6 488.82L109.09 675.63" stroke="hsl(161.60000000000002, 100%, 21.7%)" stroke-width="1.5"></path><path d="M-74.6 488.82L201.21 554.48" stroke="hsl(161.60000000000002, 100%, 21.7%)" stroke-width="1.5"></path><path d="M-74.6 488.82L231.49 654.83" stroke="hsl(161.60000000000002, 100%, 21.7%)" stroke-width="1.5"></path><path d="M-74.6 488.82L377.46 559.18" stroke="hsl(161.60000000000002, 100%, 21.7%)" stroke-width="1.5"></path><path d="M89.65 504.15L89.65 504.15" stroke="hsl(161.60000000000002, 100%, 21.7%)" stroke-width="1.5"></path><path d="M89.65 504.15L201.21 554.48" stroke="hsl(161.60000000000002, 100%, 21.7%)" stroke-width="1.5"></path><path d="M89.65 504.15L109.09 675.63" stroke="hsl(161.60000000000002, 100%, 21.7%)" stroke-width="1.5"></path><path d="M89.65 504.15L231.49 654.83" stroke="hsl(161.60000000000002, 100%, 21.7%)" stroke-width="1.5"></path><path d="M89.65 504.15L377.46 559.18" stroke="hsl(161.60000000000002, 100%, 21.7%)" stroke-width="1.5"></path><path d="M109.09 675.63L109.09 675.63" stroke="hsl(161.60000000000002, 100%, 21.7%)" stroke-width="1.5"></path><path d="M109.09 675.63L231.49 654.83" stroke="hsl(161.60000000000002, 100%, 21.7%)" stroke-width="1.5"></path><path d="M109.09 675.63L201.21 554.48" stroke="hsl(161.60000000000002, 100%, 21.7%)" stroke-width="1.5"></path><path d="M201.21 554.48L201.21 554.48" stroke="hsl(161.60000000000002, 100%, 21.7%)" stroke-width="1.5"></path><path d="M201.21 554.48L231.49 654.83" stroke="hsl(161.60000000000002, 100%, 21.7%)" stroke-width="1.5"></path><path d="M231.49 654.83L231.49 654.83" stroke="hsl(161.60000000000002, 100%, 21.7%)" stroke-width="1.5"></path><path d="M231.49 654.83L362.09 642.26" stroke="hsl(161.60000000000002, 100%, 21.7%)" stroke-width="1.5"></path><path d="M362.09 642.26L362.09 642.26" stroke="hsl(161.60000000000002, 100%, 21.7%)" stroke-width="1.5"></path><path d="M362.09 642.26L201.21 554.48" stroke="hsl(161.60000000000002, 100%, 21.7%)" stroke-width="1.5"></path><path d="M362.09 642.26L561.74 647.74" stroke="hsl(161.60000000000002, 100%, 21.7%)" stroke-width="1.5"></path><path d="M362.09 642.26L553.65 525.8" stroke="hsl(161.60000000000002, 100%, 21.7%)" stroke-width="1.5"></path><path d="M362.09 642.26L109.09 675.63" stroke="hsl(161.60000000000002, 100%, 21.7%)" stroke-width="1.5"></path><path d="M553.65 525.8L553.65 525.8" stroke="hsl(161.60000000000002, 100%, 21.7%)" stroke-width="1.5"></path><path d="M553.65 525.8L661.09 495.6" stroke="hsl(161.60000000000002, 100%, 21.7%)" stroke-width="1.5"></path><path d="M561.74 647.74L561.74 647.74" stroke="hsl(161.60000000000002, 100%, 21.7%)" stroke-width="1.5"></path><path d="M561.74 647.74L553.65 525.8" stroke="hsl(161.60000000000002, 100%, 21.7%)" stroke-width="1.5"></path><path d="M684.71 379.79L684.71 379.79" stroke="hsl(161.60000000000002, 100%, 21.7%)" stroke-width="1.5"></path><path d="M684.71 379.79L661.09 495.6" stroke="hsl(161.60000000000002, 100%, 21.7%)" stroke-width="1.5"></path><path d="M684.71 379.79L802.79 351.28" stroke="hsl(161.60000000000002, 100%, 21.7%)" stroke-width="1.5"></path><path d="M684.71 379.79L553.65 525.8" stroke="hsl(161.60000000000002, 100%, 21.7%)" stroke-width="1.5"></path><path d="M684.71 379.79L809.56 544.48" stroke="hsl(161.60000000000002, 100%, 21.7%)" stroke-width="1.5"></path><path d="M684.71 379.79L711.63 643.58" stroke="hsl(161.60000000000002, 100%, 21.7%)" stroke-width="1.5"></path><path d="M661.09 495.6L661.09 495.6" stroke="hsl(161.60000000000002, 100%, 21.7%)" stroke-width="1.5"></path><path d="M661.09 495.6L809.56 544.48" stroke="hsl(161.60000000000002, 100%, 21.7%)" stroke-width="1.5"></path><path d="M661.09 495.6L711.63 643.58" stroke="hsl(161.60000000000002, 100%, 21.7%)" stroke-width="1.5"></path><path d="M802.79 351.28L802.79 351.28" stroke="hsl(161.60000000000002, 100%, 21.7%)" stroke-width="1.5"></path><path d="M802.79 351.28L809.56 544.48" stroke="hsl(161.60000000000002, 100%, 21.7%)" stroke-width="1.5"></path><path d="M809.56 544.48L809.56 544.48" stroke="hsl(161.60000000000002, 100%, 21.7%)" stroke-width="1.5"></path><path d="M809.56 544.48L802.2 663.35" stroke="hsl(161.60000000000002, 100%, 21.7%)" stroke-width="1.5"></path><path d="M809.56 544.48L955.69 553.82" stroke="hsl(161.60000000000002, 100%, 21.7%)" stroke-width="1.5"></path><path d="M802.2 663.35L802.2 663.35" stroke="hsl(161.60000000000002, 100%, 21.7%)" stroke-width="1.5"></path><path d="M802.2 663.35L983.11 704.26" stroke="hsl(161.60000000000002, 100%, 21.7%)" stroke-width="1.5"></path><path d="M802.2 663.35L955.69 553.82" stroke="hsl(161.60000000000002, 100%, 21.7%)" stroke-width="1.5"></path><path d="M802.2 663.35L661.09 495.6" stroke="hsl(161.60000000000002, 100%, 21.7%)" stroke-width="1.5"></path><path d="M802.2 663.35L561.74 647.74" stroke="hsl(161.60000000000002, 100%, 21.7%)" stroke-width="1.5"></path><path d="M1007.61 367.41L1007.61 367.41" stroke="hsl(161.60000000000002, 100%, 21.7%)" stroke-width="1.5"></path><path d="M1007.61 367.41L1143.92 237.54" stroke="hsl(161.60000000000002, 100%, 21.7%)" stroke-width="1.5"></path><path d="M1007.61 367.41L1128.86 514.38" stroke="hsl(161.60000000000002, 100%, 21.7%)" stroke-width="1.5"></path><path d="M1007.61 367.41L955.69 553.82" stroke="hsl(161.60000000000002, 100%, 21.7%)" stroke-width="1.5"></path><path d="M1007.61 367.41L802.79 351.28" stroke="hsl(161.60000000000002, 100%, 21.7%)" stroke-width="1.5"></path><path d="M955.69 553.82L955.69 553.82" stroke="hsl(161.60000000000002, 100%, 21.7%)" stroke-width="1.5"></path><path d="M1143.92 237.54L1143.92 237.54" stroke="hsl(161.60000000000002, 100%, 21.7%)" stroke-width="1.5"></path><path d="M1143.92 237.54L1245.45 194.54" stroke="hsl(161.60000000000002, 100%, 21.7%)" stroke-width="1.5"></path><path d="M1143.92 237.54L1251.22 393.95" stroke="hsl(161.60000000000002, 100%, 21.7%)" stroke-width="1.5"></path><path d="M1258.57 -90.09L1258.57 -90.09" stroke="hsl(161.60000000000002, 100%, 21.7%)" stroke-width="1.5"></path><path d="M1258.57 -90.09L1303.4 51.96" stroke="hsl(161.60000000000002, 100%, 21.7%)" stroke-width="1.5"></path><path d="M1258.57 -90.09L1407.53 -63.45" stroke="hsl(161.60000000000002, 100%, 21.7%)" stroke-width="1.5"></path><path d="M1258.57 -90.09L1425.82 68.5" stroke="hsl(161.60000000000002, 100%, 21.7%)" stroke-width="1.5"></path><path d="M1303.4 51.96L1303.4 51.96" stroke="hsl(161.60000000000002, 100%, 21.7%)" stroke-width="1.5"></path><path d="M1303.4 51.96L1245.45 194.54" stroke="hsl(161.60000000000002, 100%, 21.7%)" stroke-width="1.5"></path><path d="M1303.4 51.96L1407.53 -63.45" stroke="hsl(161.60000000000002, 100%, 21.7%)" stroke-width="1.5"></path><path d="M1303.4 51.96L1429.73 199.04" stroke="hsl(161.60000000000002, 100%, 21.7%)" stroke-width="1.5"></path><path d="M1245.45 194.54L1245.45 194.54" stroke="hsl(161.60000000000002, 100%, 21.7%)" stroke-width="1.5"></path><path d="M1245.45 194.54L1429.73 199.04" stroke="hsl(161.60000000000002, 100%, 21.7%)" stroke-width="1.5"></path><path d="M1245.45 194.54L1251.22 393.95" stroke="hsl(161.60000000000002, 100%, 21.7%)" stroke-width="1.5"></path><path d="M1245.45 194.54L1399.09 349.9" stroke="hsl(161.60000000000002, 100%, 21.7%)" stroke-width="1.5"></path><path d="M1298.1 509.67L1298.1 509.67" stroke="hsl(161.60000000000002, 100%, 21.7%)" stroke-width="1.5"></path><path d="M1287.31 680.49L1287.31 680.49" stroke="hsl(161.60000000000002, 100%, 21.7%)" stroke-width="1.5"></path><path d="M1287.31 680.49L1298.1 509.67" stroke="hsl(161.60000000000002, 100%, 21.7%)" stroke-width="1.5"></path><path d="M1287.31 680.49L1441.92 518.32" stroke="hsl(161.60000000000002, 100%, 21.7%)" stroke-width="1.5"></path><path d="M1287.31 680.49L1128.86 514.38" stroke="hsl(161.60000000000002, 100%, 21.7%)" stroke-width="1.5"></path><path d="M1287.31 680.49L1251.22 393.95" stroke="hsl(161.60000000000002, 100%, 21.7%)" stroke-width="1.5"></path><path d="M1407.53 -63.45L1407.53 -63.45" stroke="hsl(161.60000000000002, 100%, 21.7%)" stroke-width="1.5"></path><path d="M1407.53 -63.45L1541.76 -54.24" stroke="hsl(161.60000000000002, 100%, 21.7%)" stroke-width="1.5"></path><path d="M1429.73 199.04L1429.73 199.04" stroke="hsl(161.60000000000002, 100%, 21.7%)" stroke-width="1.5"></path><path d="M1429.73 199.04L1555.35 92.16" stroke="hsl(161.60000000000002, 100%, 21.7%)" stroke-width="1.5"></path><path d="M1541.76 -54.24L1541.76 -54.24" stroke="hsl(161.60000000000002, 100%, 21.7%)" stroke-width="1.5"></path><path d="M1541.76 -54.24L1555.35 92.16" stroke="hsl(161.60000000000002, 100%, 21.7%)" stroke-width="1.5"></path><path d="M1541.76 -54.24L1303.4 51.96" stroke="hsl(161.60000000000002, 100%, 21.7%)" stroke-width="1.5"></path><path d="M1541.76 -54.24L1429.73 199.04" stroke="hsl(161.60000000000002, 100%, 21.7%)" stroke-width="1.5"></path><path d="M1555.35 92.16L1555.35 92.16" stroke="hsl(161.60000000000002, 100%, 21.7%)" stroke-width="1.5"></path><path d="M1582.89 411.34L1582.89 411.34" stroke="hsl(161.60000000000002, 100%, 21.7%)" stroke-width="1.5"></path><path d="M1582.89 411.34L1593.03 499.22" stroke="hsl(161.60000000000002, 100%, 21.7%)" stroke-width="1.5"></path><path d="M1582.89 411.34L1441.92 518.32" stroke="hsl(161.60000000000002, 100%, 21.7%)" stroke-width="1.5"></path><path d="M1593.03 499.22L1593.03 499.22" stroke="hsl(161.60000000000002, 100%, 21.7%)" stroke-width="1.5"></path><path d="M1593.03 499.22L1441.92 518.32" stroke="hsl(161.60000000000002, 100%, 21.7%)" stroke-width="1.5"></path><path d="M1593.03 499.22L1399.09 349.9" stroke="hsl(161.60000000000002, 100%, 21.7%)" stroke-width="1.5"></path><circle r="25" cx="-71.46" cy="656.07" fill="url(&quot;#SvgjsRadialGradient1021&quot;)"></circle><circle r="25" cx="377.46" cy="559.18" fill="url(&quot;#SvgjsRadialGradient1021&quot;)"></circle><circle r="25" cx="711.63" cy="643.58" fill="url(&quot;#SvgjsRadialGradient1021&quot;)"></circle><circle r="25" cx="983.11" cy="704.26" fill="url(&quot;#SvgjsRadialGradient1021&quot;)"></circle><circle r="25" cx="1103.86" cy="371.58" fill="url(&quot;#SvgjsRadialGradient1021&quot;)"></circle><circle r="25" cx="1128.86" cy="514.38" fill="url(&quot;#SvgjsRadialGradient1021&quot;)"></circle><circle r="25" cx="1147.94" cy="707.23" fill="url(&quot;#SvgjsRadialGradient1021&quot;)"></circle><circle r="25" cx="1251.22" cy="393.95" fill="url(&quot;#SvgjsRadialGradient1021&quot;)"></circle><circle r="25" cx="1425.82" cy="68.5" fill="url(&quot;#SvgjsRadialGradient1021&quot;)"></circle><circle r="25" cx="1399.09" cy="349.9" fill="url(&quot;#SvgjsRadialGradient1021&quot;)"></circle><circle r="25" cx="1441.92" cy="518.32" fill="url(&quot;#SvgjsRadialGradient1021&quot;)"></circle><circle r="25" cx="1457.97" cy="682.48" fill="url(&quot;#SvgjsRadialGradient1021&quot;)"></circle><circle r="5" cx="-74.6" cy="488.82" fill="#80aa9d"></circle><circle r="5" cx="89.65" cy="504.15" fill="#80aa9d"></circle><circle r="5" cx="109.09" cy="675.63" fill="#80aa9d"></circle><circle r="5" cx="201.21" cy="554.48" fill="#80aa9d"></circle><circle r="5" cx="231.49" cy="654.83" fill="#80aa9d"></circle><circle r="5" cx="362.09" cy="642.26" fill="#80aa9d"></circle><circle r="5" cx="553.65" cy="525.8" fill="#80aa9d"></circle><circle r="5" cx="561.74" cy="647.74" fill="#80aa9d"></circle><circle r="5" cx="684.71" cy="379.79" fill="#80aa9d"></circle><circle r="5" cx="661.09" cy="495.6" fill="#80aa9d"></circle><circle r="5" cx="802.79" cy="351.28" fill="#80aa9d"></circle><circle r="5" cx="809.56" cy="544.48" fill="#80aa9d"></circle><circle r="5" cx="802.2" cy="663.35" fill="#80aa9d"></circle><circle r="5" cx="1007.61" cy="367.41" fill="#80aa9d"></circle><circle r="5" cx="955.69" cy="553.82" fill="#80aa9d"></circle><circle r="5" cx="1143.92" cy="237.54" fill="#80aa9d"></circle><circle r="5" cx="1258.57" cy="-90.09" fill="#80aa9d"></circle><circle r="5" cx="1303.4" cy="51.96" fill="#80aa9d"></circle><circle r="5" cx="1245.45" cy="194.54" fill="#80aa9d"></circle><circle r="5" cx="1298.1" cy="509.67" fill="#80aa9d"></circle><circle r="5" cx="1287.31" cy="680.49" fill="#80aa9d"></circle><circle r="5" cx="1407.53" cy="-63.45" fill="#80aa9d"></circle><circle r="5" cx="1429.73" cy="199.04" fill="#80aa9d"></circle><circle r="5" cx="1541.76" cy="-54.24" fill="#80aa9d"></circle><circle r="5" cx="1555.35" cy="92.16" fill="#80aa9d"></circle><circle r="5" cx="1582.89" cy="411.34" fill="#80aa9d"></circle><circle r="5" cx="1593.03" cy="499.22" fill="#80aa9d"></circle></g><defs><mask id="SvgjsMask1020"><rect width="1440" height="560" fill="#ffffff"></rect></mask><radialGradient id="SvgjsRadialGradient1021"><stop stop-color="#ffffff" offset="0.1"></stop><stop stop-color="rgba(0, 85, 59, 1)" offset="0.2"></stop><stop stop-color="rgba(0, 85, 59, 0)" offset="1"></stop></radialGradient></defs></svg>